Grandstander-ExtraBold.ufo
<glyph name="exclam" format="2">
  <advance width="708.0"/>
  <unicode hex="0021"/>
  <outline>
    <contour>
      <point x="466.375" y="453.0" type="curve"/>
      <point x="476.0" y="698.0"/>
      <point x="528.5" y="1332.875"/>
      <point x="543.375" y="1455.625" type="curve"/>
      <point x="126.5" y="1472.875" type="line"/>
      <point x="123.75" y="1151.75"/>
      <point x="138.375" y="783.25"/>
      <point x="162.0" y="468.375" type="curve"/>
      <point x="237.25" y="459.375"/>
      <point x="399.25" y="453.0"/>
    </contour>
    <contour>
      <point x="327.25" y="-26.125" type="curve" smooth="yes"/>
      <point x="453.25" y="-26.125"/>
      <point x="548.75" y="58.0"/>
      <point x="548.75" y="191.625" type="curve" smooth="yes"/>
      <point x="548.75" y="303.75"/>
      <point x="447.875" y="386.375"/>
      <point x="323.5" y="386.375" type="curve" smooth="yes"/>
      <point x="198.375" y="386.375"/>
      <point x="97.0" y="311.0"/>
      <point x="97.0" y="188.0" type="curve" smooth="yes"/>
      <point x="97.0" y="62.875"/>
      <point x="196.625" y="-26.125"/>
    </contour>
  </outline>
</glyph>
<glyph name="quotedbl" format="2">
  <advance width="764.0"/>
  <unicode hex="0022"/>
  <outline>
    <contour>
      <point x="291.375" y="1015.375" type="curve"/>
      <point x="314.375" y="1114.25"/>
      <point x="329.625" y="1294.5"/>
      <point x="329.625" y="1388.125" type="curve" smooth="yes"/>
      <point x="329.625" y="1415.375"/>
      <point x="327.875" y="1436.875"/>
      <point x="324.375" y="1451.5" type="curve"/>
      <point x="292.0" y="1456.0"/>
      <point x="256.125" y="1457.75"/>
      <point x="219.375" y="1457.75" type="curve" smooth="yes"/>
      <point x="155.625" y="1457.75"/>
      <point x="104.0" y="1451.75"/>
      <point x="41.375" y="1440.5" type="curve"/>
      <point x="41.375" y="1361.375"/>
      <point x="60.5" y="1168.0"/>
      <point x="96.375" y="1034.875" type="curve"/>
      <point x="152.75" y="1023.375"/>
      <point x="227.0" y="1015.375"/>
    </contour>
    <contour>
      <point x="412.625" y="1022.125" type="curve"/>
      <point x="446.375" y="1022.0"/>
      <point x="516.875" y="1026.25"/>
      <point x="620.25" y="1039.375" type="curve"/>
      <point x="645.125" y="1122.25"/>
      <point x="683.25" y="1312.125"/>
      <point x="683.25" y="1394.5" type="curve" smooth="yes"/>
      <point x="683.25" y="1417.0"/>
      <point x="682.375" y="1435.0"/>
      <point x="681.375" y="1441.375" type="curve"/>
      <point x="601.25" y="1451.875"/>
      <point x="497.625" y="1455.75"/>
      <point x="393.125" y="1455.5" type="curve"/>
      <point x="391.75" y="1441.0"/>
      <point x="391.5" y="1413.0"/>
      <point x="391.5" y="1386.375" type="curve" smooth="yes"/>
      <point x="391.5" y="1297.625"/>
      <point x="403.75" y="1093.375"/>
    </contour>
  </outline>
</glyph>
<glyph name="numbersign" format="2">
  <advance width="1511.0"/>
  <unicode hex="0023"/>
  <outline>
    <contour>
      <point x="44.25" y="803.75" type="curve"/>
      <point x="259.5" y="809.0"/>
      <point x="581.125" y="820.625"/>
      <point x="897.875" y="833.375" type="curve" smooth="yes"/>
      <point x="1106.125" y="841.875"/>
      <point x="1317.75" y="852.75"/>
      <point x="1490.0" y="861.5" type="curve"/>
      <point x="1498.75" y="905.375"/>
      <point x="1511.25" y="1114.375"/>
      <point x="1511.25" y="1158.75" type="curve"/>
      <point x="1305.0" y="1154.375"/>
      <point x="1031.375" y="1141.125"/>
      <point x="750.0" y="1125.25" type="curve" smooth="yes"/>
      <point x="512.75" y="1112.0"/>
      <point x="218.5" y="1095.25"/>
      <point x="56.5" y="1087.375" type="curve"/>
      <point x="54.25" y="1065.625"/>
      <point x="44.25" y="872.125"/>
    </contour>
    <contour>
      <point x="1399.5" y="361.375" type="curve"/>
      <point x="1409.0" y="403.875"/>
      <point x="1437.5" y="610.625"/>
      <point x="1437.5" y="656.625" type="curve"/>
      <point x="1260.125" y="669.75"/>
      <point x="1072.875" y="675.25"/>
      <point x="887.125" y="675.625" type="curve" smooth="yes"/>
      <point x="746.0" y="676.0"/>
      <point x="606.375" y="674.5"/>
      <point x="470.25" y="670.125" type="curve" smooth="yes"/>
      <point x="317.25" y="664.875"/>
      <point x="170.375" y="658.625"/>
      <point x="35.75" y="651.875" type="curve"/>
      <point x="30.75" y="622.0"/>
      <point x="15.5" y="432.375"/>
      <point x="15.5" y="392.75" type="curve"/>
      <point x="113.75" y="400.0"/>
      <point x="226.75" y="402.75"/>
      <point x="348.375" y="402.75" type="curve" smooth="yes"/>
      <point x="483.25" y="402.75"/>
      <point x="630.125" y="400.125"/>
      <point x="777.125" y="393.875" type="curve" smooth="yes"/>
      <point x="991.125" y="385.0"/>
      <point x="1207.75" y="372.75"/>
    </contour>
    <contour>
      <point x="318.875" y="17.75" type="curve"/>
      <point x="377.0" y="17.75"/>
      <point x="600.875" y="33.75"/>
      <point x="644.375" y="42.25" type="curve"/>
      <point x="644.375" y="509.125"/>
      <point x="680.25" y="1164.5"/>
      <point x="702.625" y="1475.25" type="curve"/>
      <point x="595.5" y="1475.25"/>
      <point x="433.5" y="1472.5"/>
      <point x="400.125" y="1465.625" type="curve"/>
      <point x="359.625" y="1131.875"/>
      <point x="318.875" y="625.75"/>
    </contour>
    <contour>
      <point x="874.0" y="55.125" type="curve"/>
      <point x="918.625" y="55.125"/>
      <point x="1153.25" y="90.625"/>
      <point x="1197.375" y="99.875" type="curve"/>
      <point x="1162.625" y="413.875"/>
      <point x="1142.5" y="787.125"/>
      <point x="1142.5" y="1113.75" type="curve" smooth="yes"/>
      <point x="1142.5" y="1247.0"/>
      <point x="1145.375" y="1371.875"/>
      <point x="1152.125" y="1482.25" type="curve"/>
      <point x="1111.125" y="1482.25"/>
      <point x="906.625" y="1468.875"/>
      <point x="877.625" y="1463.875" type="curve"/>
      <point x="859.125" y="1238.375"/>
      <point x="850.75" y="1002.5"/>
      <point x="850.75" y="763.875" type="curve" smooth="yes"/>
      <point x="850.75" y="527.875"/>
      <point x="858.875" y="288.0"/>
    </contour>
  </outline>
</glyph>
<glyph name="dollar" format="2">
  <advance width="1027.0"/>
  <unicode hex="0024"/>
  <anchor x="547.0" y="62.5" name="bottom"/>
  <anchor x="549.5" y="1251.375" name="top"/>
  <outline>
    <contour>
      <point x="670.75" y="-82.0" type="line"/>
      <point x="671.125" y="-12.875"/>
      <point x="669.75" y="113.625"/>
      <point x="668.75" y="157.625" type="curve"/>
      <point x="366.5" y="174.875" type="line"/>
      <point x="359.625" y="140.875"/>
      <point x="340.75" y="-57.875"/>
      <point x="340.5" y="-88.625" type="curve"/>
    </contour>
    <contour>
      <point x="380.875" y="1201.0" type="curve"/>
      <point x="653.625" y="1202.75" type="line"/>
      <point x="654.0" y="1258.75"/>
      <point x="654.125" y="1377.5"/>
      <point x="652.375" y="1420.5" type="curve"/>
      <point x="392.0" y="1408.875" type="line"/>
      <point x="388.5" y="1374.0"/>
      <point x="382.875" y="1244.0"/>
    </contour>
    <component base="s" xOffset="43.75" yOffset="131.25"/>
  </outline>
</glyph>
<glyph name="percent" format="2">
  <advance width="1385.0"/>
  <unicode hex="0025"/>
  <outline>
    <contour>
      <point x="185.0" y="-42.625" type="curve"/>
      <point x="463.375" y="234.25"/>
      <point x="977.375" y="815.875"/>
      <point x="1282.375" y="1270.5" type="curve"/>
      <point x="1245.5" y="1323.125"/>
      <point x="1165.125" y="1410.625"/>
      <point x="1087.625" y="1445.625" type="curve"/>
      <point x="824.75" y="1035.875"/>
      <point x="293.375" y="395.5"/>
      <point x="-8.25" y="98.125" type="curve"/>
      <point x="32.75" y="61.625"/>
      <point x="143.625" y="-15.125"/>
    </contour>
    <contour>
      <point x="1028.75" y="288.375" type="curve" smooth="yes"/>
      <point x="969.625" y="288.375"/>
      <point x="937.75" y="327.75"/>
      <point x="937.75" y="386.5" type="curve" smooth="yes"/>
      <point x="937.75" y="442.0"/>
      <point x="988.375" y="470.625"/>
      <point x="1037.75" y="470.625" type="curve" smooth="yes"/>
      <point x="1085.25" y="470.625"/>
      <point x="1127.0" y="444.875"/>
      <point x="1127.0" y="381.75" type="curve" smooth="yes"/>
      <point x="1127.0" y="322.125"/>
      <point x="1072.125" y="288.375"/>
    </contour>
    <contour>
      <point x="1006.5" y="91.5" type="curve" smooth="yes"/>
      <point x="1205.0" y="91.5"/>
      <point x="1321.875" y="192.5"/>
      <point x="1321.875" y="380.625" type="curve" smooth="yes"/>
      <point x="1321.875" y="549.25"/>
      <point x="1208.625" y="655.75"/>
      <point x="1038.25" y="655.75" type="curve" smooth="yes"/>
      <point x="850.75" y="655.75"/>
      <point x="734.75" y="517.25"/>
      <point x="734.75" y="342.625" type="curve" smooth="yes"/>
      <point x="734.75" y="167.875"/>
      <point x="865.375" y="91.5"/>
    </contour>
    <contour>
      <point x="326.75" y="737.875" type="curve" smooth="yes"/>
      <point x="490.5" y="737.875"/>
      <point x="641.625" y="861.625"/>
      <point x="641.625" y="1041.0" type="curve" smooth="yes"/>
      <point x="641.625" y="1228.25"/>
      <point x="524.5" y="1340.25"/>
      <point x="343.375" y="1340.25" type="curve" smooth="yes"/>
      <point x="154.25" y="1340.25"/>
      <point x="17.75" y="1210.5"/>
      <point x="17.75" y="1021.375" type="curve" smooth="yes"/>
      <point x="17.75" y="854.125"/>
      <point x="153.0" y="737.875"/>
    </contour>
    <contour>
      <point x="335.0" y="959.625" type="curve" smooth="yes"/>
      <point x="288.75" y="959.625"/>
      <point x="240.25" y="983.75"/>
      <point x="240.25" y="1043.875" type="curve" smooth="yes"/>
      <point x="240.25" y="1106.375"/>
      <point x="272.25" y="1146.125"/>
      <point x="340.125" y="1146.125" type="curve" smooth="yes"/>
      <point x="400.75" y="1146.125"/>
      <point x="431.125" y="1106.75"/>
      <point x="431.125" y="1055.0" type="curve" smooth="yes"/>
      <point x="431.125" y="984.25"/>
      <point x="395.125" y="959.625"/>
    </contour>
  </outline>
</glyph>
<glyph name="ampersand" format="2">
  <advance width="1395.0"/>
  <unicode hex="0026"/>
  <outline>
    <contour>
      <point x="551.625" y="-91.25" type="curve" smooth="yes"/>
      <point x="801.125" y="-91.25"/>
      <point x="967.875" y="35.625"/>
      <point x="1032.75" y="115.625" type="curve"/>
      <point x="1069.125" y="68.0"/>
      <point x="1129.625" y="-10.375"/>
      <point x="1166.5" y="-56.5" type="curve"/>
      <point x="1235.25" y="-15.5"/>
      <point x="1316.0" y="73.5"/>
      <point x="1363.875" y="144.25" type="curve"/>
      <point x="1314.875" y="198.375"/>
      <point x="1255.375" y="259.125"/>
      <point x="1202.625" y="311.5" type="curve"/>
      <point x="1245.25" y="358.125"/>
      <point x="1317.75" y="443.5"/>
      <point x="1335.875" y="490.0" type="curve"/>
      <point x="1284.125" y="545.0"/>
      <point x="1182.25" y="626.375"/>
      <point x="1125.25" y="653.375" type="curve"/>
      <point x="1111.375" y="624.625"/>
      <point x="1050.75" y="532.375"/>
      <point x="1020.25" y="502.25" type="curve"/>
      <point x="915.0" y="622.125"/>
      <point x="814.25" y="736.375"/>
      <point x="750.25" y="804.75" type="curve"/>
      <point x="869.375" y="908.5"/>
      <point x="935.25" y="986.125"/>
      <point x="935.25" y="1132.75" type="curve" smooth="yes"/>
      <point x="935.25" y="1310.0"/>
      <point x="778.375" y="1425.75"/>
      <point x="589.0" y="1425.75" type="curve" smooth="yes"/>
      <point x="386.0" y="1425.75"/>
      <point x="204.875" y="1338.75"/>
      <point x="204.875" y="1124.875" type="curve" smooth="yes"/>
      <point x="204.875" y="982.75"/>
      <point x="306.125" y="878.875"/>
      <point x="350.0" y="837.875" type="curve"/>
      <point x="211.25" y="750.75"/>
      <point x="34.0" y="609.0"/>
      <point x="34.0" y="353.0" type="curve" smooth="yes"/>
      <point x="34.0" y="55.125"/>
      <point x="243.25" y="-91.25"/>
    </contour>
    <contour>
      <point x="563.375" y="168.875" type="curve" smooth="yes"/>
      <point x="439.125" y="168.875"/>
      <point x="354.0" y="232.75"/>
      <point x="354.0" y="359.25" type="curve" smooth="yes"/>
      <point x="354.0" y="496.25"/>
      <point x="425.125" y="592.375"/>
      <point x="529.25" y="668.75" type="curve"/>
      <point x="618.25" y="562.75"/>
      <point x="756.5" y="409.75"/>
      <point x="851.75" y="308.625" type="curve"/>
      <point x="802.75" y="250.0"/>
      <point x="681.5" y="168.875"/>
    </contour>
    <contour>
      <point x="565.875" y="964.75" type="curve"/>
      <point x="533.375" y="997.75"/>
      <point x="490.625" y="1066.25"/>
      <point x="490.625" y="1129.75" type="curve" smooth="yes"/>
      <point x="490.625" y="1188.625"/>
      <point x="534.75" y="1213.25"/>
      <point x="575.875" y="1213.25" type="curve" smooth="yes"/>
      <point x="626.625" y="1213.25"/>
      <point x="661.5" y="1184.875"/>
      <point x="661.5" y="1134.375" type="curve" smooth="yes"/>
      <point x="661.5" y="1068.125"/>
      <point x="611.25" y="996.625"/>
    </contour>
  </outline>
</glyph>
<glyph name="quotesingle" format="2">
  <advance width="462.0"/>
  <unicode hex="0027"/>
  <outline>
    <contour>
      <point x="374.75" y="1379.75" type="curve" smooth="yes"/>
      <point x="374.75" y="1411.125"/>
      <point x="373.875" y="1437.0"/>
      <point x="371.125" y="1452.125" type="curve"/>
      <point x="335.875" y="1456.625"/>
      <point x="298.5" y="1458.5"/>
      <point x="259.375" y="1458.5" type="curve" smooth="yes"/>
      <point x="195.75" y="1458.5"/>
      <point x="129.375" y="1453.0"/>
      <point x="64.375" y="1440.5" type="curve"/>
      <point x="64.375" y="1344.75"/>
      <point x="112.25" y="1065.625"/>
      <point x="137.25" y="983.375" type="curve"/>
      <point x="175.5" y="979.75"/>
      <point x="207.75" y="976.875"/>
      <point x="240.0" y="976.875" type="curve" smooth="yes"/>
      <point x="268.0" y="976.875"/>
      <point x="296.875" y="978.625"/>
      <point x="335.0" y="982.25" type="curve"/>
      <point x="360.75" y="1091.25"/>
      <point x="374.75" y="1271.5"/>
    </contour>
  </outline>
</glyph>
<glyph name="parenleft" format="2">
  <advance width="677.0"/>
  <unicode hex="0028"/>
  <outline>
    <contour>
      <point x="333.125" y="-538.25" type="curve"/>
      <point x="402.5" y="-507.0"/>
      <point x="566.625" y="-405.125"/>
      <point x="625.375" y="-361.25" type="curve"/>
      <point x="472.0" y="-163.125"/>
      <point x="378.875" y="185.125"/>
      <point x="378.875" y="532.25" type="curve" smooth="yes"/>
      <point x="378.875" y="870.125"/>
      <point x="494.375" y="1219.375"/>
      <point x="616.875" y="1478.75" type="curve"/>
      <point x="538.625" y="1518.125"/>
      <point x="405.625" y="1560.625"/>
      <point x="273.875" y="1578.625" type="curve"/>
      <point x="126.875" y="1344.875"/>
      <point x="22.5" y="948.375"/>
      <point x="22.5" y="552.375" type="curve" smooth="yes"/>
      <point x="22.5" y="121.375"/>
      <point x="140.75" y="-309.375"/>
    </contour>
  </outline>
</glyph>
<glyph name="parenright" format="2">
  <advance width="651.0"/>
  <unicode hex="0029"/>
  <outline>
    <contour>
      <point x="253.875" y="629.125" type="curve" smooth="yes"/>
      <point x="253.875" y="168.25"/>
      <point x="159.625" y="-157.375"/>
      <point x="26.375" y="-338.125" type="curve"/>
      <point x="73.0" y="-385.375"/>
      <point x="234.25" y="-480.25"/>
      <point x="306.375" y="-504.375" type="curve"/>
      <point x="491.625" y="-278.75"/>
      <point x="618.875" y="225.625"/>
      <point x="618.875" y="578.75" type="curve" smooth="yes"/>
      <point x="618.875" y="924.0"/>
      <point x="521.375" y="1354.875"/>
      <point x="334.0" y="1583.375" type="curve"/>
      <point x="231.0" y="1561.5"/>
      <point x="101.25" y="1520.5"/>
      <point x="11.25" y="1470.375" type="curve"/>
      <point x="164.625" y="1271.125"/>
      <point x="253.875" y="915.125"/>
    </contour>
  </outline>
</glyph>
<glyph name="asterisk" format="2">
  <advance width="963.375"/>
  <unicode hex="002A"/>
  <outline>
    <contour>
      <point x="784.375" y="929.5" type="curve"/>
      <point x="807.25" y="961.5"/>
      <point x="905.25" y="1110.25"/>
      <point x="919.625" y="1148.25" type="curve"/>
      <point x="823.625" y="1201.25"/>
      <point x="641.625" y="1275.375"/>
      <point x="556.625" y="1304.375" type="curve"/>
      <point x="464.625" y="1367.375"/>
      <point x="233.875" y="1499.75"/>
      <point x="148.875" y="1545.0" type="curve"/>
      <point x="122.0" y="1510.375"/>
      <point x="38.5" y="1374.75"/>
      <point x="21.5" y="1332.625" type="curve"/>
      <point x="123.125" y="1280.5"/>
      <point x="353.75" y="1186.625"/>
      <point x="454.375" y="1149.625" type="curve"/>
      <point x="535.0" y="1084.875"/>
      <point x="702.125" y="973.5"/>
    </contour>
    <contour>
      <point x="486.125" y="840.5" type="curve" smooth="yes"/>
      <point x="543.25" y="840.5"/>
      <point x="599.375" y="845.125"/>
      <point x="619.25" y="848.875" type="curve"/>
      <point x="616.625" y="937.625"/>
      <point x="599.125" y="1149.625"/>
      <point x="589.75" y="1249.75" type="curve"/>
      <point x="600.375" y="1331.625"/>
      <point x="610.5" y="1478.375"/>
      <point x="610.5" y="1596.25" type="curve"/>
      <point x="589.75" y="1600.125"/>
      <point x="537.0" y="1603.0"/>
      <point x="483.375" y="1603.0" type="curve" smooth="yes"/>
      <point x="429.75" y="1603.0"/>
      <point x="375.25" y="1600.125"/>
      <point x="354.125" y="1596.25" type="curve"/>
      <point x="359.375" y="1512.75"/>
      <point x="371.875" y="1361.25"/>
      <point x="383.875" y="1249.75" type="curve"/>
      <point x="370.25" y="1119.5"/>
      <point x="353.0" y="945.5"/>
      <point x="352.375" y="848.875" type="curve"/>
      <point x="372.375" y="845.0"/>
      <point x="429.75" y="840.5"/>
    </contour>
    <contour>
      <point x="176.5" y="901.25" type="curve"/>
      <point x="280.5" y="959.25"/>
      <point x="417.0" y="1045.25"/>
      <point x="516.0" y="1108.875" type="curve"/>
      <point x="614.0" y="1153.0"/>
      <point x="843.75" y="1273.125"/>
      <point x="936.625" y="1325.625" type="curve"/>
      <point x="919.25" y="1367.625"/>
      <point x="834.75" y="1508.375"/>
      <point x="807.75" y="1542.375" type="curve"/>
      <point x="722.625" y="1492.375"/>
      <point x="541.875" y="1367.875"/>
      <point x="457.75" y="1304.75" type="curve"/>
      <point x="359.625" y="1266.0"/>
      <point x="140.625" y="1178.875"/>
      <point x="44.625" y="1125.875" type="curve"/>
      <point x="59.125" y="1088.625"/>
      <point x="155.5" y="932.5"/>
    </contour>
  </outline>
</glyph>
<glyph name="plus" format="2">
  <advance width="1050.0"/>
  <unicode hex="002B"/>
  <outline>
    <contour>
      <point x="990.375" y="564.875" type="curve"/>
      <point x="994.75" y="594.75"/>
      <point x="1010.375" y="769.5"/>
      <point x="1010.125" y="888.875" type="curve"/>
      <point x="910.75" y="871.5"/>
      <point x="693.875" y="863.25"/>
      <point x="478.875" y="863.25" type="curve" smooth="yes"/>
      <point x="288.875" y="863.25"/>
      <point x="103.5" y="869.625"/>
      <point x="25.125" y="878.875" type="curve"/>
      <point x="25.125" y="842.75"/>
      <point x="35.25" y="628.375"/>
      <point x="44.0" y="583.75" type="curve"/>
      <point x="190.0" y="562.875"/>
      <point x="464.125" y="546.875"/>
      <point x="681.75" y="546.875" type="curve" smooth="yes"/>
      <point x="815.875" y="546.875"/>
      <point x="926.375" y="552.875"/>
    </contour>
    <contour>
      <point x="679.125" y="1182.375" type="curve"/>
      <point x="649.125" y="1182.5"/>
      <point x="370.375" y="1170.5"/>
      <point x="333.0" y="1167.875" type="curve"/>
      <point x="356.0" y="1044.625"/>
      <point x="391.5" y="716.5"/>
      <point x="391.5" y="463.625" type="curve" smooth="yes"/>
      <point x="391.5" y="393.75"/>
      <point x="388.875" y="327.5"/>
      <point x="382.875" y="272.875" type="curve"/>
      <point x="420.0" y="268.5"/>
      <point x="645.125" y="260.625"/>
      <point x="686.75" y="261.0" type="curve"/>
      <point x="709.625" y="376.75"/>
      <point x="718.5" y="537.625"/>
      <point x="718.5" y="685.75" type="curve" smooth="yes"/>
      <point x="718.5" y="895.0"/>
      <point x="701.125" y="1097.5"/>
    </contour>
  </outline>
</glyph>
<glyph name="comma" format="2">
  <advance width="667.0"/>
  <unicode hex="002C"/>
  <outline>
    <contour>
      <point x="340.375" y="-327.5" type="curve"/>
      <point x="484.5" y="-228.875"/>
      <point x="581.5" y="-78.75"/>
      <point x="581.5" y="113.625" type="curve" smooth="yes"/>
      <point x="581.5" y="294.25"/>
      <point x="446.875" y="358.875"/>
      <point x="323.125" y="358.875" type="curve" smooth="yes"/>
      <point x="204.0" y="358.875"/>
      <point x="66.25" y="299.5"/>
      <point x="66.25" y="157.25" type="curve" smooth="yes"/>
      <point x="66.25" y="63.125"/>
      <point x="127.375" y="-28.5"/>
      <point x="225.0" y="-28.5" type="curve" smooth="yes"/>
      <point x="277.125" y="-28.5"/>
      <point x="304.0" y="-15.75"/>
      <point x="323.0" y="-0.75" type="curve"/>
      <point x="324.25" y="-2.375"/>
      <point x="325.5" y="-6.25"/>
      <point x="325.5" y="-10.5" type="curve" smooth="yes"/>
      <point x="324.625" y="-47.5"/>
      <point x="237.5" y="-130.75"/>
      <point x="188.875" y="-152.875" type="curve"/>
      <point x="226.375" y="-216.625"/>
      <point x="314.25" y="-318.625"/>
    </contour>
  </outline>
</glyph>
<glyph name="hyphen" format="2">
  <advance width="924.375"/>
  <unicode hex="002D"/>
  <outline>
    <contour>
      <point x="882.75" y="829.75" type="curve"/>
      <point x="782.875" y="842.25"/>
      <point x="660.375" y="846.625"/>
      <point x="506.25" y="846.625" type="curve" smooth="yes"/>
      <point x="367.5" y="846.625"/>
      <point x="191.25" y="834.625"/>
      <point x="50.375" y="817.75" type="curve"/>
      <point x="39.875" y="773.0"/>
      <point x="25.25" y="583.875"/>
      <point x="25.625" y="500.375" type="curve"/>
      <point x="222.375" y="512.25"/>
      <point x="788.75" y="528.875"/>
      <point x="899.125" y="528.875" type="curve"/>
      <point x="899.375" y="611.25"/>
      <point x="898.5" y="736.375"/>
    </contour>
  </outline>
</glyph>
<glyph name="period" format="2">
  <advance width="632.0"/>
  <unicode hex="002E"/>
  <outline>
    <contour>
      <point x="271.0" y="385.5" type="curve" smooth="yes"/>
      <point x="149.875" y="385.5"/>
      <point x="45.0" y="292.5"/>
      <point x="45.0" y="175.5" type="curve" smooth="yes"/>
      <point x="45.0" y="49.375"/>
      <point x="157.5" y="-38.0"/>
      <point x="282.25" y="-38.0" type="curve" smooth="yes"/>
      <point x="391.0" y="-38.0"/>
      <point x="483.5" y="44.625"/>
      <point x="483.5" y="159.5" type="curve" smooth="yes"/>
      <point x="483.5" y="284.875"/>
      <point x="397.25" y="385.5"/>
    </contour>
  </outline>
</glyph>
<glyph name="zero" format="2">
  <advance width="1087.0"/>
  <unicode hex="0030"/>
  <outline>
    <contour>
      <point x="536.875" y="-32.0" type="curve" smooth="yes"/>
      <point x="840.625" y="-32.0"/>
      <point x="983.375" y="281.125"/>
      <point x="983.375" y="643.5" type="curve" smooth="yes"/>
      <point x="983.375" y="1040.125"/>
      <point x="865.5" y="1338.0"/>
      <point x="536.875" y="1338.0" type="curve" smooth="yes"/>
      <point x="193.875" y="1338.0"/>
      <point x="75.25" y="1052.5"/>
      <point x="75.25" y="709.75" type="curve" smooth="yes"/>
      <point x="75.25" y="319.75"/>
      <point x="206.625" y="-32.0"/>
    </contour>
    <contour>
      <point x="536.625" y="307.125" type="curve" smooth="yes"/>
      <point x="456.125" y="307.125"/>
      <point x="395.5" y="383.75"/>
      <point x="395.5" y="704.125" type="curve" smooth="yes"/>
      <point x="395.5" y="855.75"/>
      <point x="433.5" y="1037.25"/>
      <point x="536.25" y="1037.25" type="curve" smooth="yes"/>
      <point x="640.0" y="1037.25"/>
      <point x="676.75" y="857.875"/>
      <point x="676.75" y="696.125" type="curve" smooth="yes"/>
      <point x="676.75" y="454.125"/>
      <point x="627.75" y="307.125"/>
    </contour>
  </outline>
</glyph>
<glyph name="one" format="2">
  <advance width="809.0"/>
  <unicode hex="0031"/>
  <outline>
    <contour>
      <point x="540.125" y="289.625" type="curve"/>
      <point x="549.125" y="437.25"/>
      <point x="552.625" y="582.875"/>
      <point x="552.625" y="714.0" type="curve" smooth="yes"/>
      <point x="552.625" y="1028.375"/>
      <point x="541.625" y="1246.25"/>
      <point x="535.25" y="1296.625" type="curve"/>
      <point x="478.625" y="1306.375"/>
      <point x="351.875" y="1311.875"/>
      <point x="291.5" y="1311.875" type="curve"/>
      <point x="202.25" y="1235.5"/>
      <point x="43.25" y="1076.625"/>
      <point x="1.75" y="1034.125" type="curve"/>
      <point x="42.125" y="954.0"/>
      <point x="110.75" y="846.625"/>
      <point x="154.5" y="797.125" type="curve"/>
      <point x="170.0" y="817.25"/>
      <point x="238.5" y="898.25"/>
      <point x="267.5" y="922.625" type="curve"/>
      <point x="258.75" y="814.375"/>
      <point x="246.125" y="375.125"/>
      <point x="246.25" y="276.5" type="curve"/>
      <point x="210.375" y="272.875"/>
      <point x="119.5" y="260.75"/>
      <point x="76.625" y="251.125" type="curve"/>
      <point x="73.125" y="192.5"/>
      <point x="72.75" y="48.125"/>
      <point x="73.125" y="-12.0" type="curve"/>
      <point x="146.125" y="-3.5"/>
      <point x="597.5" y="9.0"/>
      <point x="687.375" y="9.0" type="curve"/>
      <point x="695.875" y="58.25"/>
      <point x="704.25" y="235.625"/>
      <point x="704.375" y="275.75" type="curve"/>
      <point x="667.25" y="283.0"/>
      <point x="604.625" y="289.625"/>
    </contour>
  </outline>
</glyph>
<glyph name="two" format="2">
  <advance width="995.0"/>
  <unicode hex="0032"/>
  <outline>
    <contour>
      <point x="873.75" y="375.5" type="curve"/>
      <point x="747.5" y="367.0"/>
      <point x="572.25" y="347.375"/>
      <point x="490.125" y="336.5" type="curve"/>
      <point x="525.0" y="368.75"/>
      <point x="578.0" y="428.0"/>
      <point x="702.375" y="583.0" type="curve" smooth="yes"/>
      <point x="825.625" y="737.625"/>
      <point x="879.0" y="894.5"/>
      <point x="879.0" y="1026.625" type="curve" smooth="yes"/>
      <point x="879.0" y="1234.75"/>
      <point x="750.25" y="1364.0"/>
      <point x="541.75" y="1364.0" type="curve" smooth="yes"/>
      <point x="331.875" y="1364.0"/>
      <point x="120.75" y="1218.75"/>
      <point x="24.75" y="1028.875" type="curve"/>
      <point x="72.625" y="980.375"/>
      <point x="206.625" y="887.0"/>
      <point x="278.125" y="852.25" type="curve"/>
      <point x="323.25" y="945.875"/>
      <point x="419.375" y="1037.0"/>
      <point x="501.5" y="1037.0" type="curve" smooth="yes"/>
      <point x="532.5" y="1037.0"/>
      <point x="560.125" y="1022.625"/>
      <point x="560.125" y="984.375" type="curve" smooth="yes"/>
      <point x="560.125" y="903.0"/>
      <point x="474.25" y="772.5"/>
      <point x="340.375" y="609.5" type="curve" smooth="yes"/>
      <point x="213.0" y="453.875"/>
      <point x="115.5" y="359.375"/>
      <point x="49.875" y="300.375" type="curve"/>
      <point x="53.75" y="195.5"/>
      <point x="96.875" y="5.0"/>
      <point x="101.875" y="-17.0" type="curve"/>
      <point x="903.25" y="27.0" type="line"/>
      <point x="904.0" y="67.0"/>
      <point x="900.0" y="308.375"/>
    </contour>
  </outline>
</glyph>
<glyph name="three" format="2">
  <advance width="1032.0"/>
  <unicode hex="0033"/>
  <outline>
    <contour>
      <point x="477.0" y="-3.0" type="curve" smooth="yes"/>
      <point x="721.5" y="-3.0"/>
      <point x="935.875" y="144.0"/>
      <point x="935.875" y="398.0" type="curve" smooth="yes"/>
      <point x="935.875" y="583.125"/>
      <point x="807.25" y="699.625"/>
      <point x="651.75" y="733.875" type="curve"/>
      <point x="773.875" y="771.5"/>
      <point x="870.125" y="890.375"/>
      <point x="870.125" y="1007.75" type="curve" smooth="yes"/>
      <point x="870.125" y="1214.75"/>
      <point x="691.75" y="1335.0"/>
      <point x="494.0" y="1335.0" type="curve" smooth="yes"/>
      <point x="226.625" y="1335.0"/>
      <point x="69.625" y="1192.375"/>
      <point x="26.0" y="1134.875" type="curve"/>
      <point x="35.5" y="1122.375"/>
      <point x="134.25" y="1020.875"/>
      <point x="234.625" y="942.125" type="curve"/>
      <point x="268.125" y="981.5"/>
      <point x="372.0" y="1053.0"/>
      <point x="455.5" y="1053.0" type="curve" smooth="yes"/>
      <point x="514.25" y="1053.0"/>
      <point x="543.125" y="1018.25"/>
      <point x="543.125" y="967.75" type="curve" smooth="yes"/>
      <point x="543.125" y="868.75"/>
      <point x="388.125" y="794.5"/>
      <point x="251.0" y="794.5" type="curve"/>
      <point x="251.0" y="694.0"/>
      <point x="266.375" y="596.5"/>
      <point x="278.375" y="558.5" type="curve"/>
      <point x="488.625" y="558.5"/>
      <point x="619.5" y="505.0"/>
      <point x="619.5" y="379.625" type="curve" smooth="yes"/>
      <point x="619.5" y="302.125"/>
      <point x="565.5" y="264.75"/>
      <point x="484.625" y="264.75" type="curve" smooth="yes"/>
      <point x="395.5" y="264.75"/>
      <point x="355.5" y="314.25"/>
      <point x="327.125" y="380.5" type="curve"/>
      <point x="243.875" y="351.75"/>
      <point x="113.75" y="292.625"/>
      <point x="44.0" y="243.0" type="curve"/>
      <point x="107.375" y="78.5"/>
      <point x="258.375" y="-3.0"/>
    </contour>
  </outline>
</glyph>
<glyph name="four" format="2">
  <advance width="1104.0"/>
  <unicode hex="0034"/>
  <outline>
    <contour>
      <point x="1000.75" y="306.875" type="curve"/>
      <point x="1000.75" y="395.875"/>
      <point x="987.0" y="562.75"/>
      <point x="982.875" y="581.625" type="curve"/>
      <point x="965.875" y="582.5"/>
      <point x="881.0" y="583.375"/>
      <point x="828.125" y="582.75" type="curve"/>
      <point x="828.125" y="862.5"/>
      <point x="844.5" y="1247.875"/>
      <point x="851.25" y="1341.875" type="curve"/>
      <point x="773.0" y="1342.0"/>
      <point x="596.75" y="1328.375"/>
      <point x="552.375" y="1321.375" type="curve"/>
      <point x="502.875" y="1255.25"/>
      <point x="183.0" y="733.25"/>
      <point x="61.875" y="527.125" type="curve"/>
      <point x="74.125" y="428.25"/>
      <point x="90.625" y="340.875"/>
      <point x="111.25" y="248.25" type="curve"/>
      <point x="164.5" y="254.375"/>
      <point x="398.75" y="277.75"/>
      <point x="527.375" y="286.0" type="curve"/>
      <point x="515.75" y="149.5"/>
      <point x="507.5" y="37.75"/>
      <point x="507.5" y="-10.25" type="curve"/>
      <point x="563.75" y="-10.125"/>
      <point x="754.875" y="3.5"/>
      <point x="829.5" y="18.625" type="curve"/>
      <point x="826.625" y="76.875"/>
      <point x="825.0" y="170.25"/>
      <point x="825.0" y="304.375" type="curve"/>
      <point x="886.125" y="306.5"/>
      <point x="942.5" y="306.875"/>
    </contour>
    <contour>
      <point x="603.75" y="977.75" type="curve"/>
      <point x="590.25" y="893.0"/>
      <point x="565.375" y="621.75"/>
      <point x="563.625" y="569.625" type="curve"/>
      <point x="498.125" y="569.125"/>
      <point x="382.875" y="555.375"/>
      <point x="355.5" y="551.25" type="curve"/>
      <point x="384.75" y="612.0"/>
      <point x="530.375" y="857.375"/>
    </contour>
  </outline>
</glyph>
<glyph name="five" format="2">
  <advance width="1137.0"/>
  <unicode hex="0035"/>
  <outline>
    <contour>
      <point x="11.75" y="238.375" type="curve"/>
      <point x="125.75" y="65.625"/>
      <point x="341.25" y="0.125"/>
      <point x="520.25" y="0.125" type="curve" smooth="yes"/>
      <point x="818.375" y="0.125"/>
      <point x="1044.375" y="198.5"/>
      <point x="1044.375" y="498.5" type="curve" smooth="yes"/>
      <point x="1044.375" y="734.5"/>
      <point x="897.5" y="943.875"/>
      <point x="661.75" y="943.875" type="curve" smooth="yes"/>
      <point x="558.75" y="943.875"/>
      <point x="472.375" y="893.625"/>
      <point x="448.125" y="848.875" type="curve"/>
      <point x="448.125" y="892.875"/>
      <point x="445.375" y="961.125"/>
      <point x="444.625" y="1004.0" type="curve"/>
      <point x="548.625" y="1022.0"/>
      <point x="803.5" y="1049.875"/>
      <point x="946.0" y="1053.25" type="curve"/>
      <point x="946.0" y="1172.25"/>
      <point x="898.0" y="1313.25"/>
      <point x="891.125" y="1331.375" type="curve"/>
      <point x="702.0" y="1315.375"/>
      <point x="237.875" y="1241.625"/>
      <point x="84.75" y="1207.375" type="curve"/>
      <point x="108.5" y="1019.125"/>
      <point x="123.125" y="803.25"/>
      <point x="123.125" y="570.125" type="curve"/>
      <point x="148.625" y="568.25"/>
      <point x="222.125" y="567.375"/>
      <point x="272.0" y="567.375" type="curve" smooth="yes"/>
      <point x="327.125" y="567.375"/>
      <point x="389.875" y="571.875"/>
      <point x="427.75" y="577.375" type="curve"/>
      <point x="432.75" y="629.625"/>
      <point x="489.25" y="698.875"/>
      <point x="590.625" y="698.875" type="curve" smooth="yes"/>
      <point x="701.75" y="698.875"/>
      <point x="742.25" y="606.375"/>
      <point x="742.25" y="518.75" type="curve" smooth="yes"/>
      <point x="742.25" y="378.875"/>
      <point x="659.875" y="293.0"/>
      <point x="524.25" y="293.0" type="curve" smooth="yes"/>
      <point x="400.25" y="293.0"/>
      <point x="299.25" y="366.125"/>
      <point x="252.375" y="451.5" type="curve"/>
      <point x="206.75" y="426.625"/>
      <point x="61.375" y="313.125"/>
    </contour>
  </outline>
</glyph>
<glyph name="six" format="2">
  <advance width="1154.0"/>
  <unicode hex="0036"/>
  <outline>
    <contour>
      <point x="866.375" y="1142.125" type="curve"/>
      <point x="846.625" y="1233.0"/>
      <point x="763.875" y="1353.375"/>
      <point x="715.5" y="1392.125" type="curve"/>
      <point x="335.75" y="1271.625"/>
      <point x="76.125" y="932.75"/>
      <point x="76.125" y="518.625" type="curve" smooth="yes"/>
      <point x="76.125" y="204.25"/>
      <point x="244.625" y="-9.0"/>
      <point x="549.75" y="-9.0" type="curve" smooth="yes"/>
      <point x="823.375" y="-9.0"/>
      <point x="1049.625" y="179.5"/>
      <point x="1049.625" y="470.0" type="curve" smooth="yes"/>
      <point x="1049.625" y="713.5"/>
      <point x="918.125" y="839.625"/>
      <point x="703.625" y="839.625" type="curve" smooth="yes"/>
      <point x="593.75" y="839.625"/>
      <point x="467.5" y="802.875"/>
      <point x="400.5" y="734.25" type="curve"/>
      <point x="476.625" y="924.25"/>
      <point x="698.625" y="1098.375"/>
    </contour>
    <contour>
      <point x="449.125" y="507.25" type="curve" smooth="yes"/>
      <point x="485.625" y="549.0"/>
      <point x="549.375" y="575.5"/>
      <point x="618.5" y="575.5" type="curve" smooth="yes"/>
      <point x="693.75" y="575.5"/>
      <point x="747.0" y="530.25"/>
      <point x="747.0" y="449.0" type="curve" smooth="yes"/>
      <point x="747.0" y="362.625"/>
      <point x="675.5" y="285.5"/>
      <point x="571.75" y="285.5" type="curve" smooth="yes"/>
      <point x="480.25" y="285.5"/>
      <point x="417.625" y="336.375"/>
      <point x="417.625" y="419.625" type="curve" smooth="yes"/>
      <point x="417.625" y="449.25"/>
      <point x="428.625" y="484.0"/>
    </contour>
  </outline>
</glyph>
<glyph name="seven" format="2">
  <advance width="1012.0"/>
  <unicode hex="0037"/>
  <outline>
    <contour>
      <point x="436.75" y="-45.25" type="curve"/>
      <point x="538.0" y="308.875"/>
      <point x="654.0" y="577.125"/>
      <point x="970.625" y="1096.5" type="curve"/>
      <point x="967.625" y="1127.5"/>
      <point x="931.75" y="1343.75"/>
      <point x="923.875" y="1376.75" type="curve"/>
      <point x="751.0" y="1376.75"/>
      <point x="351.875" y="1319.625"/>
      <point x="74.875" y="1256.625" type="curve"/>
      <point x="74.875" y="1186.25"/>
      <point x="95.0" y="974.25"/>
      <point x="107.625" y="921.75" type="curve"/>
      <point x="160.25" y="938.375"/>
      <point x="386.375" y="991.0"/>
      <point x="578.25" y="1022.5" type="curve"/>
      <point x="361.875" y="756.25"/>
      <point x="181.625" y="396.875"/>
      <point x="63.25" y="75.375" type="curve"/>
      <point x="81.75" y="67.5"/>
      <point x="332.625" y="-15.375"/>
    </contour>
  </outline>
</glyph>
<glyph name="eight" format="2">
  <advance width="1243.0"/>
  <unicode hex="0038"/>
  <outline>
    <contour>
      <point x="613.375" y="-10.75" type="curve" smooth="yes"/>
      <point x="883.75" y="-10.75"/>
      <point x="1106.0" y="143.625"/>
      <point x="1106.0" y="382.25" type="curve" smooth="yes"/>
      <point x="1106.0" y="578.625"/>
      <point x="992.125" y="674.25"/>
      <point x="871.0" y="692.375" type="curve"/>
      <point x="997.625" y="738.125"/>
      <point x="1058.5" y="867.5"/>
      <point x="1058.5" y="1018.125" type="curve" smooth="yes"/>
      <point x="1058.5" y="1257.375"/>
      <point x="868.375" y="1374.625"/>
      <point x="623.0" y="1374.625" type="curve" smooth="yes"/>
      <point x="327.375" y="1374.625"/>
      <point x="91.375" y="1253.5"/>
      <point x="91.375" y="997.25" type="curve" smooth="yes"/>
      <point x="91.375" y="862.625"/>
      <point x="163.875" y="756.5"/>
      <point x="275.0" y="708.625" type="curve"/>
      <point x="144.875" y="645.0"/>
      <point x="51.0" y="533.375"/>
      <point x="51.0" y="377.0" type="curve" smooth="yes"/>
      <point x="51.0" y="108.125"/>
      <point x="288.625" y="-10.75"/>
    </contour>
    <contour>
      <point x="587.375" y="279.5" type="curve" smooth="yes"/>
      <point x="489.875" y="279.5"/>
      <point x="399.375" y="319.875"/>
      <point x="399.375" y="408.625" type="curve" smooth="yes"/>
      <point x="399.375" y="512.25"/>
      <point x="505.75" y="544.875"/>
      <point x="595.25" y="544.875" type="curve" smooth="yes"/>
      <point x="695.875" y="544.875"/>
      <point x="781.5" y="519.0"/>
      <point x="781.5" y="416.125" type="curve" smooth="yes"/>
      <point x="781.5" y="319.875"/>
      <point x="684.875" y="279.5"/>
    </contour>
    <contour>
      <point x="588.625" y="856.875" type="curve" smooth="yes"/>
      <point x="487.0" y="856.875"/>
      <point x="421.875" y="894.0"/>
      <point x="421.875" y="972.625" type="curve" smooth="yes"/>
      <point x="421.875" y="1048.625"/>
      <point x="481.0" y="1114.625"/>
      <point x="578.375" y="1114.625" type="curve" smooth="yes"/>
      <point x="667.125" y="1114.625"/>
      <point x="735.875" y="1080.125"/>
      <point x="735.875" y="993.875" type="curve" smooth="yes"/>
      <point x="735.875" y="925.375"/>
      <point x="683.0" y="856.875"/>
    </contour>
  </outline>
</glyph>
<glyph name="nine" format="2">
  <advance width="1067.0"/>
  <unicode hex="0039"/>
  <outline>
    <contour>
      <point x="897.125" y="26.625" type="curve"/>
      <point x="945.375" y="197.0"/>
      <point x="1014.25" y="525.375"/>
      <point x="1014.25" y="809.375" type="curve" smooth="yes"/>
      <point x="1014.25" y="1144.875"/>
      <point x="859.125" y="1364.0"/>
      <point x="533.875" y="1364.0" type="curve" smooth="yes"/>
      <point x="269.875" y="1364.0"/>
      <point x="32.875" y="1194.625"/>
      <point x="32.875" y="887.125" type="curve" smooth="yes"/>
      <point x="32.875" y="647.25"/>
      <point x="194.625" y="486.875"/>
      <point x="450.0" y="486.875" type="curve" smooth="yes"/>
      <point x="555.875" y="486.875"/>
      <point x="648.25" y="519.625"/>
      <point x="673.0" y="554.375" type="curve"/>
      <point x="658.125" y="315.375"/>
      <point x="531.75" y="56.5"/>
      <point x="501.375" y="-0.25" type="curve"/>
      <point x="660.0" y="-0.25"/>
      <point x="817.625" y="10.5"/>
    </contour>
    <contour>
      <point x="537.625" y="1107.375" type="curve" smooth="yes"/>
      <point x="624.25" y="1107.375"/>
      <point x="676.75" y="1052.25"/>
      <point x="676.75" y="968.375" type="curve" smooth="yes"/>
      <point x="676.75" y="858.75"/>
      <point x="614.875" y="784.375"/>
      <point x="497.0" y="784.375" type="curve" smooth="yes"/>
      <point x="403.625" y="784.375"/>
      <point x="353.875" y="850.125"/>
      <point x="353.875" y="935.375" type="curve" smooth="yes"/>
      <point x="353.875" y="1042.875"/>
      <point x="434.75" y="1107.375"/>
    </contour>
  </outline>
</glyph>
<glyph name="colon" format="2">
  <advance width="564.0"/>
  <unicode hex="003A"/>
  <outline>
    <contour>
      <point x="261.625" y="-9.875" type="curve" smooth="yes"/>
      <point x="375.625" y="-9.875"/>
      <point x="468.875" y="70.625"/>
      <point x="468.875" y="187.125" type="curve" smooth="yes"/>
      <point x="468.875" y="310.0"/>
      <point x="383.375" y="406.875"/>
      <point x="259.625" y="406.875" type="curve" smooth="yes"/>
      <point x="140.375" y="406.875"/>
      <point x="44.75" y="301.5"/>
      <point x="44.75" y="185.5" type="curve" smooth="yes"/>
      <point x="44.75" y="79.25"/>
      <point x="140.25" y="-9.875"/>
    </contour>
    <component base="period" xOffset="-9.125" yOffset="655.625"/>
  </outline>
</glyph>
<glyph name="semicolon" format="2">
  <advance width="593.0"/>
  <unicode hex="003B"/>
  <outline>
    <contour>
      <point x="267.375" y="1041.75" type="curve" smooth="yes"/>
      <point x="146.25" y="1041.75"/>
      <point x="41.375" y="948.75"/>
      <point x="41.375" y="831.75" type="curve" smooth="yes"/>
      <point x="41.375" y="705.625"/>
      <point x="153.875" y="618.25"/>
      <point x="278.625" y="618.25" type="curve" smooth="yes"/>
      <point x="387.375" y="618.25"/>
      <point x="479.875" y="700.875"/>
      <point x="479.875" y="815.75" type="curve" smooth="yes"/>
      <point x="479.875" y="941.125"/>
      <point x="393.625" y="1041.75"/>
    </contour>
    <contour>
      <point x="305.5" y="-325.5" type="curve"/>
      <point x="440.875" y="-232.125"/>
      <point x="532.625" y="-89.875"/>
      <point x="532.625" y="91.125" type="curve" smooth="yes"/>
      <point x="532.625" y="261.25"/>
      <point x="405.875" y="322.375"/>
      <point x="289.125" y="322.375" type="curve" smooth="yes"/>
      <point x="176.125" y="322.375"/>
      <point x="47.125" y="266.5"/>
      <point x="47.125" y="132.125" type="curve" smooth="yes"/>
      <point x="47.125" y="43.25"/>
      <point x="103.875" y="-43.125"/>
      <point x="196.25" y="-43.125" type="curve" smooth="yes"/>
      <point x="245.75" y="-43.125"/>
      <point x="271.75" y="-30.375"/>
      <point x="289.0" y="-16.25" type="curve"/>
      <point x="290.25" y="-17.875"/>
      <point x="291.5" y="-21.75"/>
      <point x="291.5" y="-25.125" type="curve" smooth="yes"/>
      <point x="290.625" y="-60.375"/>
      <point x="208.75" y="-140.125"/>
      <point x="162.75" y="-161.375" type="curve"/>
      <point x="197.625" y="-220.75"/>
      <point x="280.25" y="-316.625"/>
    </contour>
  </outline>
</glyph>
<glyph name="less" format="2">
  <advance width="807.0"/>
  <unicode hex="003C"/>
  <outline>
    <contour>
      <point x="618.125" y="1141.875" type="curve"/>
      <point x="533.125" y="1097.375"/>
      <point x="227.875" y="835.25"/>
      <point x="21.0" y="650.25" type="curve"/>
      <point x="17.0" y="388.625" type="line"/>
      <point x="235.875" y="321.25"/>
      <point x="443.375" y="235.5"/>
      <point x="642.25" y="148.5" type="curve"/>
      <point x="665.375" y="226.375"/>
      <point x="690.25" y="349.0"/>
      <point x="690.5" y="423.625" type="curve"/>
      <point x="617.625" y="482.625"/>
      <point x="341.75" y="585.375"/>
      <point x="261.75" y="611.625" type="curve"/>
      <point x="261.25" y="525.875" type="line"/>
      <point x="444.25" y="679.375"/>
      <point x="588.5" y="794.5"/>
      <point x="772.75" y="929.25" type="curve"/>
      <point x="751.0" y="994.75"/>
      <point x="693.875" y="1097.625"/>
    </contour>
  </outline>
</glyph>
<glyph name="equal" format="2">
  <advance width="1050.0"/>
  <unicode hex="003D"/>
  <outline>
    <contour>
      <point x="84.375" y="1090.125" type="curve"/>
      <point x="65.5" y="1056.75"/>
      <point x="52.875" y="877.375"/>
      <point x="52.875" y="817.75" type="curve"/>
      <point x="217.75" y="820.375"/>
      <point x="835.875" y="824.75"/>
      <point x="1018.625" y="824.75" type="curve"/>
      <point x="1018.625" y="861.5"/>
      <point x="999.125" y="1113.375"/>
      <point x="991.75" y="1157.75" type="curve"/>
      <point x="756.75" y="1157.75"/>
      <point x="228.25" y="1119.125"/>
    </contour>
    <contour>
      <point x="17.25" y="663.75" type="curve"/>
      <point x="16.75" y="603.25"/>
      <point x="24.25" y="421.75"/>
      <point x="32.125" y="387.875" type="curve"/>
      <point x="214.25" y="388.375"/>
      <point x="883.75" y="385.875"/>
      <point x="1023.875" y="385.875" type="curve"/>
      <point x="1023.875" y="422.625"/>
      <point x="1007.625" y="646.125"/>
      <point x="999.25" y="690.625" type="curve"/>
      <point x="931.75" y="694.75"/>
      <point x="844.75" y="697.0"/>
      <point x="750.0" y="697.0" type="curve" smooth="yes"/>
      <point x="518.75" y="697.0"/>
      <point x="233.625" y="683.875"/>
    </contour>
  </outline>
</glyph>
<glyph name="greater" format="2">
  <advance width="790.0"/>
  <unicode hex="003E"/>
  <outline>
    <contour>
      <point x="45.625" y="955.25" type="curve"/>
      <point x="147.375" y="882.125"/>
      <point x="403.875" y="707.125"/>
      <point x="480.5" y="655.25" type="curve"/>
      <point x="514.0" y="768.125" type="line"/>
      <point x="371.125" y="663.0"/>
      <point x="40.25" y="442.625"/>
      <point x="13.25" y="431.25" type="curve"/>
      <point x="13.25" y="392.5"/>
      <point x="64.375" y="215.875"/>
      <point x="97.5" y="184.625" type="curve"/>
      <point x="137.375" y="194.625"/>
      <point x="504.875" y="370.25"/>
      <point x="764.75" y="501.0" type="curve"/>
      <point x="757.0" y="814.0" type="line"/>
      <point x="567.25" y="949.0"/>
      <point x="297.5" y="1131.75"/>
      <point x="244.5" y="1145.75" type="curve"/>
      <point x="182.75" y="1113.375"/>
      <point x="94.875" y="1018.625"/>
    </contour>
  </outline>
</glyph>
<glyph name="question" format="2">
  <advance width="1036.0"/>
  <unicode hex="003F"/>
  <outline>
    <contour>
      <point x="675.25" y="454.125" type="curve"/>
      <point x="680.5" y="592.625"/>
      <point x="752.125" y="704.5"/>
      <point x="829.625" y="773.25" type="curve" smooth="yes"/>
      <point x="916.0" y="850.25"/>
      <point x="992.5" y="931.125"/>
      <point x="992.5" y="1110.875" type="curve" smooth="yes"/>
      <point x="992.5" y="1353.875"/>
      <point x="778.875" y="1472.0"/>
      <point x="515.625" y="1472.0" type="curve" smooth="yes"/>
      <point x="267.0" y="1472.0"/>
      <point x="42.875" y="1343.625"/>
      <point x="-10.375" y="1118.625" type="curve"/>
      <point x="272.25" y="953.75" type="line"/>
      <point x="325.0" y="1091.625"/>
      <point x="404.375" y="1158.875"/>
      <point x="510.625" y="1158.875" type="curve" smooth="yes"/>
      <point x="575.875" y="1158.875"/>
      <point x="623.5" y="1126.125"/>
      <point x="623.5" y="1066.75" type="curve" smooth="yes"/>
      <point x="623.5" y="1012.5"/>
      <point x="576.5" y="959.875"/>
      <point x="508.25" y="898.375" type="curve" smooth="yes"/>
      <point x="379.375" y="781.625"/>
      <point x="302.0" y="651.5"/>
      <point x="302.0" y="471.5" type="curve"/>
      <point x="429.75" y="458.625"/>
      <point x="519.5" y="454.125"/>
    </contour>
    <contour>
      <point x="512.0" y="-10.0" type="curve" smooth="yes"/>
      <point x="631.25" y="-10.0"/>
      <point x="735.125" y="80.625"/>
      <point x="735.125" y="196.625" type="curve" smooth="yes"/>
      <point x="735.125" y="303.5"/>
      <point x="634.875" y="377.25"/>
      <point x="504.5" y="377.25" type="curve" smooth="yes"/>
      <point x="392.0" y="377.25"/>
      <point x="287.875" y="284.5"/>
      <point x="287.875" y="182.75" type="curve" smooth="yes"/>
      <point x="287.875" y="60.25"/>
      <point x="392.875" y="-10.0"/>
    </contour>
  </outline>
</glyph>
<glyph name="at" format="2">
  <advance width="1920.0"/>
  <unicode hex="0040"/>
  <outline>
    <contour>
      <point x="834.0" y="-41.0" type="curve" smooth="yes"/>
      <point x="1120.25" y="-41.0"/>
      <point x="1348.0" y="38.5"/>
      <point x="1433.0" y="178.0" type="curve"/>
      <point x="1212.75" y="348.25" type="line"/>
      <point x="1154.25" y="275.25"/>
      <point x="1025.625" y="209.0"/>
      <point x="852.125" y="209.0" type="curve" smooth="yes"/>
      <point x="574.75" y="209.0"/>
      <point x="320.75" y="364.875"/>
      <point x="320.75" y="650.25" type="curve" smooth="yes"/>
      <point x="320.75" y="1009.5"/>
      <point x="644.375" y="1238.75"/>
      <point x="1024.375" y="1238.75" type="curve" smooth="yes"/>
      <point x="1336.0" y="1238.75"/>
      <point x="1541.5" y="1052.375"/>
      <point x="1541.5" y="750.5" type="curve" smooth="yes"/>
      <point x="1541.5" y="666.75"/>
      <point x="1518.5" y="594.625"/>
      <point x="1459.25" y="594.625" type="curve" smooth="yes"/>
      <point x="1419.5" y="594.625"/>
      <point x="1393.125" y="611.5"/>
      <point x="1379.5" y="673.75" type="curve" smooth="yes"/>
      <point x="1373.75" y="700.125"/>
      <point x="1332.125" y="905.5"/>
      <point x="1291.25" y="1116.875" type="curve"/>
      <point x="1236.0" y="1114.25"/>
      <point x="1117.375" y="1109.375"/>
      <point x="1074.125" y="1109.0" type="curve"/>
      <point x="1075.375" y="1093.75"/>
      <point x="1079.375" y="1055.875"/>
      <point x="1084.125" y="1033.0" type="curve"/>
      <point x="1039.625" y="1075.75"/>
      <point x="970.0" y="1089.125"/>
      <point x="877.375" y="1089.125" type="curve" smooth="yes"/>
      <point x="655.125" y="1089.125"/>
      <point x="486.5" y="911.75"/>
      <point x="486.5" y="694.25" type="curve" smooth="yes"/>
      <point x="486.5" y="479.375"/>
      <point x="627.75" y="350.75"/>
      <point x="855.875" y="350.75" type="curve" smooth="yes"/>
      <point x="998.125" y="350.75"/>
      <point x="1150.875" y="397.125"/>
      <point x="1204.75" y="494.5" type="curve"/>
      <point x="1241.0" y="402.125"/>
      <point x="1354.0" y="341.0"/>
      <point x="1475.0" y="341.0" type="curve" smooth="yes"/>
      <point x="1709.75" y="341.0"/>
      <point x="1829.125" y="508.125"/>
      <point x="1829.125" y="733.5" type="curve" smooth="yes"/>
      <point x="1829.125" y="1202.375"/>
      <point x="1496.5" y="1497.0"/>
      <point x="1009.75" y="1497.0" type="curve" smooth="yes"/>
      <point x="464.625" y="1497.0"/>
      <point x="8.5" y="1161.625"/>
      <point x="8.5" y="634.125" type="curve" smooth="yes"/>
      <point x="8.5" y="192.375"/>
      <point x="378.0" y="-41.0"/>
    </contour>
    <contour>
      <point x="914.875" y="609.0" type="curve" smooth="yes"/>
      <point x="844.625" y="609.0"/>
      <point x="784.375" y="640.625"/>
      <point x="784.375" y="720.75" type="curve" smooth="yes"/>
      <point x="784.375" y="789.5"/>
      <point x="840.875" y="843.875"/>
      <point x="958.75" y="843.875" type="curve" smooth="yes"/>
      <point x="1020.875" y="843.875"/>
      <point x="1066.5" y="838.375"/>
      <point x="1096.375" y="823.875" type="curve"/>
      <point x="1120.875" y="712.0" type="line"/>
      <point x="1074.625" y="654.625"/>
      <point x="1006.5" y="609.0"/>
    </contour>
  </outline>
</glyph>
<glyph name="A" format="2">
  <advance width="1185.25"/>
  <unicode hex="0041"/>
  <anchor x="580.125" y="0.0" name="bottom"/>
  <anchor x="1142.125" y="5.5" name="ogonek"/>
  <anchor x="657.0" y="1326.5" name="top"/>
  <outline>
    <contour>
      <point x="409.875" y="-15.0" type="curve"/>
      <point x="418.875" y="61.25"/>
      <point x="442.5" y="195.5"/>
      <point x="470.625" y="320.25" type="curve"/>
      <point x="508.625" y="328.25"/>
      <point x="642.5" y="338.0"/>
      <point x="748.5" y="339.75" type="curve"/>
      <point x="749.875" y="224.625"/>
      <point x="753.5" y="80.0"/>
      <point x="759.375" y="-15.0" type="curve"/>
      <point x="874.125" y="-15.0"/>
      <point x="1068.75" y="-5.0"/>
      <point x="1142.125" y="5.5" type="curve"/>
      <point x="1083.625" y="762.75"/>
      <point x="1027.125" y="1089.0"/>
      <point x="975.25" y="1323.0" type="curve"/>
      <point x="899.5" y="1332.25"/>
      <point x="824.75" y="1336.875"/>
      <point x="748.625" y="1336.875" type="curve" smooth="yes"/>
      <point x="622.125" y="1336.875"/>
      <point x="488.375" y="1325.0"/>
      <point x="335.25" y="1305.75" type="curve"/>
      <point x="233.375" y="947.0"/>
      <point x="72.25" y="257.75"/>
      <point x="27.375" y="-2.625" type="curve"/>
      <point x="122.25" y="-7.625"/>
      <point x="339.625" y="-15.0"/>
    </contour>
    <contour>
      <point x="516.125" y="633.0" type="curve"/>
      <point x="530.25" y="722.25"/>
      <point x="571.0" y="943.75"/>
      <point x="587.875" y="1024.5" type="curve"/>
      <point x="608.0" y="1027.0"/>
      <point x="694.375" y="1033.0"/>
      <point x="723.625" y="1033.0" type="curve"/>
      <point x="727.25" y="991.0"/>
      <point x="738.125" y="698.625"/>
      <point x="740.875" y="649.375" type="curve"/>
      <point x="688.25" y="648.625"/>
      <point x="552.125" y="639.125"/>
    </contour>
  </outline>
</glyph>
<glyph name="B" format="2">
  <advance width="1174.0"/>
  <unicode hex="0042"/>
  <anchor x="587.0" y="0.0" name="bottom"/>
  <anchor x="587.0" y="1291.0" name="top"/>
  <outline>
    <contour>
      <point x="90.375" y="25.125" type="curve"/>
      <point x="158.25" y="9.5"/>
      <point x="261.875" y="2.25"/>
      <point x="369.25" y="2.25" type="curve" smooth="yes"/>
      <point x="807.0" y="2.25"/>
      <point x="1096.625" y="75.375"/>
      <point x="1096.625" y="436.75" type="curve" smooth="yes"/>
      <point x="1096.625" y="601.5"/>
      <point x="979.25" y="714.125"/>
      <point x="799.25" y="727.25" type="curve" smooth="yes"/>
      <point x="787.75" y="728.125"/>
      <point x="780.75" y="728.125"/>
      <point x="773.875" y="728.0" type="curve"/>
      <point x="868.0" y="744.875"/>
      <point x="1005.25" y="838.625"/>
      <point x="1005.25" y="1001.25" type="curve" smooth="yes"/>
      <point x="1005.25" y="1221.375"/>
      <point x="835.75" y="1306.0"/>
      <point x="595.5" y="1306.0" type="curve" smooth="yes"/>
      <point x="434.625" y="1306.0"/>
      <point x="237.5" y="1293.0"/>
      <point x="118.625" y="1285.0" type="curve"/>
      <point x="118.625" y="1256.0"/>
      <point x="90.375" y="207.0"/>
    </contour>
    <contour>
      <point x="459.375" y="336.375" type="curve"/>
      <point x="452.375" y="551.375" type="line"/>
      <point x="497.25" y="556.375"/>
      <point x="545.625" y="558.375"/>
      <point x="579.625" y="558.375" type="curve" smooth="yes"/>
      <point x="726.25" y="558.375"/>
      <point x="764.125" y="516.0"/>
      <point x="764.125" y="455.625" type="curve" smooth="yes"/>
      <point x="764.125" y="364.625"/>
      <point x="625.5" y="335.5"/>
      <point x="511.25" y="335.5" type="curve" smooth="yes"/>
      <point x="490.25" y="335.5"/>
      <point x="471.625" y="335.5"/>
    </contour>
    <contour>
      <point x="447.75" y="834.875" type="curve"/>
      <point x="441.5" y="1038.125" type="line"/>
      <point x="483.0" y="1043.375"/>
      <point x="541.75" y="1050.25"/>
      <point x="582.75" y="1050.25" type="curve" smooth="yes"/>
      <point x="652.375" y="1050.25"/>
      <point x="705.375" y="1014.375"/>
      <point x="705.375" y="952.25" type="curve" smooth="yes"/>
      <point x="705.375" y="882.75"/>
      <point x="624.5" y="847.75"/>
      <point x="545.75" y="842.0" type="curve" smooth="yes"/>
      <point x="521.625" y="836.375"/>
      <point x="493.125" y="835.125"/>
    </contour>
  </outline>
</glyph>
<glyph name="C" format="2">
  <advance width="1137.0"/>
  <unicode hex="0043"/>
  <anchor x="569.0" y="0.0" name="bottom"/>
  <anchor x="565.25" y="1292.25" name="top"/>
  <outline>
    <contour>
      <point x="1107.5" y="224.25" type="curve"/>
      <point x="1058.375" y="306.875"/>
      <point x="937.0" y="421.25"/>
      <point x="855.75" y="478.875" type="curve"/>
      <point x="785.25" y="402.875"/>
      <point x="700.125" y="350.25"/>
      <point x="611.5" y="350.25" type="curve" smooth="yes"/>
      <point x="467.5" y="350.25"/>
      <point x="417.0" y="507.625"/>
      <point x="417.0" y="690.875" type="curve" smooth="yes"/>
      <point x="417.0" y="869.375"/>
      <point x="485.25" y="1014.375"/>
      <point x="617.875" y="1014.375" type="curve" smooth="yes"/>
      <point x="744.375" y="1014.375"/>
      <point x="809.875" y="884.375"/>
      <point x="818.375" y="859.5" type="curve"/>
      <point x="892.25" y="905.5"/>
      <point x="1025.875" y="1005.5"/>
      <point x="1087.5" y="1072.875" type="curve"/>
      <point x="987.625" y="1244.0"/>
      <point x="806.0" y="1326.0"/>
      <point x="606.25" y="1326.0" type="curve" smooth="yes"/>
      <point x="237.875" y="1326.0"/>
      <point x="30.0" y="1047.125"/>
      <point x="30.0" y="661.125" type="curve" smooth="yes"/>
      <point x="30.0" y="263.125"/>
      <point x="235.5" y="-13.125"/>
      <point x="617.875" y="-13.125" type="curve" smooth="yes"/>
      <point x="833.5" y="-13.125"/>
      <point x="1006.5" y="106.0"/>
    </contour>
  </outline>
</glyph>
<glyph name="D" format="2">
  <advance width="1198.0"/>
  <unicode hex="0044"/>
  <anchor x="599.0" y="0.0" name="bottom"/>
  <anchor x="311.0" y="646.0" name="center"/>
  <anchor x="529.125" y="1291.0" name="top"/>
  <outline>
    <contour>
      <point x="152.125" y="-33.125" type="curve"/>
      <point x="824.875" y="-30.75"/>
      <point x="1125.0" y="73.0"/>
      <point x="1125.0" y="636.75" type="curve" smooth="yes"/>
      <point x="1125.0" y="1127.25"/>
      <point x="942.75" y="1325.0"/>
      <point x="443.75" y="1325.0" type="curve" smooth="yes"/>
      <point x="305.875" y="1325.0"/>
      <point x="132.75" y="1308.875"/>
      <point x="45.125" y="1299.0" type="curve"/>
      <point x="54.0" y="1166.5"/>
      <point x="126.0" y="183.125"/>
    </contour>
    <contour>
      <point x="489.125" y="340.0" type="curve"/>
      <point x="475.25" y="538.125"/>
      <point x="456.25" y="819.75"/>
      <point x="443.375" y="1012.125" type="curve"/>
      <point x="460.25" y="1013.375"/>
      <point x="488.25" y="1013.625"/>
      <point x="510.625" y="1013.625" type="curve" smooth="yes"/>
      <point x="694.375" y="1013.625"/>
      <point x="758.75" y="807.125"/>
      <point x="758.75" y="609.0" type="curve" smooth="yes"/>
      <point x="758.75" y="438.625"/>
      <point x="697.125" y="344.125"/>
    </contour>
  </outline>
</glyph>
<glyph name="E" format="2">
  <advance width="957.0"/>
  <unicode hex="0045"/>
  <anchor x="496.5" y="0.0" name="bottom"/>
  <anchor x="692.375" y="0.125" name="ogonek"/>
  <anchor x="496.5" y="1319.75" name="top"/>
  <anchor x="37.5" y="1291.0" name="topleft"/>
  <outline>
    <contour>
      <point x="815.75" y="-14.25" type="curve"/>
      <point x="826.875" y="20.375"/>
      <point x="851.25" y="238.5"/>
      <point x="851.5" y="358.375" type="curve"/>
      <point x="799.125" y="362.625"/>
      <point x="705.875" y="368.75"/>
      <point x="614.25" y="368.75" type="curve" smooth="yes"/>
      <point x="530.625" y="368.75"/>
      <point x="440.125" y="368.625"/>
      <point x="426.375" y="368.375" type="curve"/>
      <point x="426.375" y="405.875"/>
      <point x="429.0" y="543.25"/>
      <point x="430.75" y="573.625" type="curve"/>
      <point x="472.125" y="574.0"/>
      <point x="664.125" y="561.875"/>
      <point x="708.875" y="559.25" type="curve"/>
      <point x="714.0" y="849.0" type="line"/>
      <point x="626.375" y="847.25"/>
      <point x="517.125" y="843.125"/>
      <point x="438.875" y="842.75" type="curve"/>
      <point x="438.875" y="870.0"/>
      <point x="439.25" y="979.5"/>
      <point x="442.5" y="1005.375" type="curve"/>
      <point x="842.75" y="1038.375" type="line"/>
      <point x="851.875" y="1141.5"/>
      <point x="859.0" y="1233.25"/>
      <point x="859.0" y="1328.5" type="curve"/>
      <point x="804.0" y="1328.5"/>
      <point x="474.125" y="1324.375"/>
      <point x="91.375" y="1251.0" type="curve"/>
      <point x="86.25" y="1156.25"/>
      <point x="78.75" y="945.125"/>
      <point x="78.75" y="658.75" type="curve" smooth="yes"/>
      <point x="78.75" y="472.375"/>
      <point x="82.625" y="257.375"/>
      <point x="91.375" y="27.375" type="curve"/>
      <point x="206.0" y="20.625"/>
      <point x="323.875" y="13.75"/>
      <point x="438.5" y="7.625" type="curve" smooth="yes"/>
      <point x="565.25" y="1.5"/>
      <point x="689.375" y="-6.125"/>
    </contour>
  </outline>
</glyph>
<glyph name="F" format="2">
  <advance width="949.0"/>
  <unicode hex="0046"/>
  <anchor x="475.0" y="0.0" name="bottom"/>
  <anchor x="475.0" y="1291.0" name="top"/>
  <outline>
    <contour>
      <point x="504.875" y="-3.25" type="line"/>
      <point x="496.125" y="165.875"/>
      <point x="480.625" y="370.875"/>
      <point x="463.5" y="534.625" type="curve"/>
      <point x="569.25" y="534.625"/>
      <point x="702.75" y="523.75"/>
      <point x="781.375" y="515.0" type="curve"/>
      <point x="789.375" y="622.25"/>
      <point x="789.75" y="716.625"/>
      <point x="789.75" y="804.25" type="curve"/>
      <point x="730.75" y="815.0"/>
      <point x="551.0" y="832.625"/>
      <point x="437.125" y="832.625" type="curve"/>
      <point x="433.75" y="884.375"/>
      <point x="428.125" y="955.0"/>
      <point x="423.375" y="994.375" type="curve"/>
      <point x="600.5" y="994.375"/>
      <point x="804.0" y="977.5"/>
      <point x="881.625" y="973.625" type="curve"/>
      <point x="881.625" y="1053.125"/>
      <point x="876.25" y="1173.875"/>
      <point x="867.875" y="1280.0" type="curve"/>
      <point x="782.375" y="1298.125"/>
      <point x="653.375" y="1312.125"/>
      <point x="496.125" y="1312.625" type="curve" smooth="yes"/>
      <point x="367.375" y="1313.0"/>
      <point x="223.125" y="1311.375"/>
      <point x="78.5" y="1301.75" type="curve"/>
      <point x="96.125" y="880.875"/>
      <point x="111.875" y="444.625"/>
      <point x="120.625" y="13.375" type="curve"/>
    </contour>
  </outline>
</glyph>
<glyph name="G" format="2">
  <advance width="1275.0"/>
  <unicode hex="0047"/>
  <anchor x="643.0" y="0.0" name="bottom"/>
  <anchor x="643.0" y="1291.0" name="top"/>
  <outline>
    <contour>
      <point x="682.0" y="-48.0" type="curve" smooth="yes"/>
      <point x="1022.0" y="-48.0"/>
      <point x="1190.375" y="202.625"/>
      <point x="1190.375" y="487.375" type="curve" smooth="yes"/>
      <point x="1190.375" y="537.375"/>
      <point x="1185.5" y="606.875"/>
      <point x="1171.5" y="653.25" type="curve"/>
      <point x="1029.625" y="691.875"/>
      <point x="764.875" y="725.625"/>
      <point x="627.0" y="726.875" type="curve"/>
      <point x="619.125" y="668.0"/>
      <point x="614.25" y="533.75"/>
      <point x="614.5" y="472.875" type="curve"/>
      <point x="670.0" y="471.875"/>
      <point x="811.125" y="454.875"/>
      <point x="851.875" y="443.625" type="curve"/>
      <point x="853.875" y="433.0"/>
      <point x="854.875" y="422.0"/>
      <point x="854.875" y="406.125" type="curve" smooth="yes"/>
      <point x="854.875" y="330.25"/>
      <point x="782.375" y="266.125"/>
      <point x="686.125" y="266.125" type="curve" smooth="yes"/>
      <point x="507.0" y="266.125"/>
      <point x="422.5" y="418.25"/>
      <point x="422.5" y="620.5" type="curve" smooth="yes"/>
      <point x="422.5" y="815.25"/>
      <point x="499.625" y="992.0"/>
      <point x="644.5" y="992.0" type="curve" smooth="yes"/>
      <point x="751.5" y="992.0"/>
      <point x="813.875" y="928.0"/>
      <point x="847.75" y="879.375" type="curve"/>
      <point x="953.125" y="943.875"/>
      <point x="1090.5" y="1066.875"/>
      <point x="1131.0" y="1114.375" type="curve"/>
      <point x="1028.5" y="1260.5"/>
      <point x="831.25" y="1338.0"/>
      <point x="639.75" y="1338.0" type="curve" smooth="yes"/>
      <point x="271.375" y="1338.0"/>
      <point x="64.75" y="1051.0"/>
      <point x="64.75" y="646.0" type="curve" smooth="yes"/>
      <point x="64.75" y="210.5"/>
      <point x="296.5" y="-48.0"/>
    </contour>
  </outline>
</glyph>
<glyph name="H" format="2">
  <advance width="1094.0"/>
  <unicode hex="0048"/>
  <anchor x="547.0" y="0.0" name="bottom"/>
  <anchor x="524.875" y="1063.0" name="center"/>
  <anchor x="547.0" y="1291.0" name="top"/>
  <anchor x="20.0" y="1291.0" name="topleft"/>
  <outline>
    <contour>
      <point x="103.375" y="4.125" type="curve"/>
      <point x="176.25" y="4.125"/>
      <point x="387.0" y="10.75"/>
      <point x="457.625" y="19.75" type="curve"/>
      <point x="456.5" y="80.125"/>
      <point x="445.5" y="362.625"/>
      <point x="440.5" y="489.625" type="curve"/>
      <point x="500.375" y="489.625"/>
      <point x="576.625" y="490.875"/>
      <point x="644.875" y="492.875" type="curve"/>
      <point x="644.875" y="339.0"/>
      <point x="645.25" y="189.875"/>
      <point x="645.25" y="1.5" type="curve"/>
      <point x="772.875" y="1.5"/>
      <point x="920.375" y="6.0"/>
      <point x="969.625" y="10.75" type="curve"/>
      <point x="970.875" y="119.5"/>
      <point x="976.0" y="354.5"/>
      <point x="984.75" y="589.0" type="curve" smooth="yes"/>
      <point x="995.25" y="893.125"/>
      <point x="1012.625" y="1219.25"/>
      <point x="1024.625" y="1299.0" type="curve"/>
      <point x="981.5" y="1303.875"/>
      <point x="891.25" y="1306.75"/>
      <point x="798.125" y="1306.75" type="curve" smooth="yes"/>
      <point x="750.625" y="1306.75"/>
      <point x="696.375" y="1305.875"/>
      <point x="660.875" y="1304.0" type="curve"/>
      <point x="654.75" y="1168.25"/>
      <point x="650.125" y="876.75"/>
      <point x="646.875" y="803.625" type="curve"/>
      <point x="590.75" y="803.25"/>
      <point x="500.0" y="799.5"/>
      <point x="426.875" y="791.5" type="curve"/>
      <point x="424.125" y="838.0"/>
      <point x="420.25" y="960.125"/>
      <point x="420.25" y="1054.125" type="curve" smooth="yes"/>
      <point x="420.25" y="1130.0"/>
      <point x="419.75" y="1226.75"/>
      <point x="420.75" y="1296.0" type="curve"/>
      <point x="331.875" y="1296.0"/>
      <point x="94.25" y="1285.0"/>
      <point x="68.5" y="1282.0" type="curve"/>
      <point x="64.5" y="1229.375"/>
      <point x="62.625" y="1150.875"/>
      <point x="62.625" y="1056.5" type="curve" smooth="yes"/>
      <point x="62.625" y="705.875"/>
      <point x="85.875" y="147.25"/>
    </contour>
  </outline>
</glyph>
<glyph name="I" format="2">
  <advance width="583.25"/>
  <unicode hex="0049"/>
  <anchor x="296.75" y="0.0" name="bottom"/>
  <anchor x="451.5" y="-21.0" name="ogonek"/>
  <anchor x="296.75" y="1291.0" name="top"/>
  <anchor x="45.625" y="1291.0" name="topleft"/>
  <outline>
    <contour>
      <point x="451.5" y="-21.0" type="curve"/>
      <point x="469.875" y="88.0"/>
      <point x="475.125" y="332.0"/>
      <point x="475.125" y="552.375" type="curve" smooth="yes"/>
      <point x="475.125" y="814.5"/>
      <point x="466.5" y="1117.375"/>
      <point x="456.125" y="1322.625" type="curve"/>
      <point x="367.5" y="1322.625"/>
      <point x="166.75" y="1317.25"/>
      <point x="117.0" y="1315.25" type="curve"/>
      <point x="110.625" y="1056.0"/>
      <point x="107.125" y="808.875"/>
      <point x="107.125" y="588.625" type="curve" smooth="yes"/>
      <point x="107.125" y="375.5"/>
      <point x="111.875" y="117.75"/>
      <point x="116.0" y="-6.5" type="curve"/>
      <point x="214.625" y="-19.875"/>
      <point x="361.625" y="-21.0"/>
    </contour>
  </outline>
</glyph>
<glyph name="J" format="2">
  <advance width="1178.0"/>
  <unicode hex="004A"/>
  <anchor x="589.0" y="0.0" name="bottom"/>
  <anchor x="801.75" y="1294.375" name="top"/>
  <outline>
    <contour>
      <point x="534.875" y="-19.0" type="curve" smooth="yes"/>
      <point x="850.25" y="-19.0"/>
      <point x="1052.25" y="130.625"/>
      <point x="1052.25" y="610.375" type="curve" smooth="yes"/>
      <point x="1052.25" y="780.375"/>
      <point x="1035.125" y="1105.0"/>
      <point x="1020.0" y="1281.75" type="curve"/>
      <point x="965.625" y="1288.875"/>
      <point x="914.875" y="1290.875"/>
      <point x="847.875" y="1290.875" type="curve" smooth="yes"/>
      <point x="785.125" y="1290.875"/>
      <point x="705.75" y="1282.75"/>
      <point x="647.5" y="1271.0" type="curve"/>
      <point x="650.625" y="1249.0"/>
      <point x="684.5" y="847.75"/>
      <point x="684.5" y="640.875" type="curve" smooth="yes"/>
      <point x="684.5" y="422.25"/>
      <point x="653.125" y="326.375"/>
      <point x="555.125" y="326.375" type="curve" smooth="yes"/>
      <point x="467.5" y="326.375"/>
      <point x="377.25" y="425.375"/>
      <point x="341.5" y="564.375" type="curve"/>
      <point x="260.0" y="534.0"/>
      <point x="59.625" y="440.0"/>
      <point x="7.75" y="400.625" type="curve"/>
      <point x="55.0" y="134.0"/>
      <point x="255.0" y="-19.0"/>
    </contour>
  </outline>
</glyph>
<glyph name="K" format="2">
  <advance width="1108.25"/>
  <unicode hex="004B"/>
  <anchor x="558.0" y="0.0" name="bottom"/>
  <anchor x="558.0" y="1291.0" name="top"/>
  <outline>
    <contour>
      <point x="93.875" y="-32.0" type="curve"/>
      <point x="247.125" y="-14.5"/>
      <point x="427.25" y="3.625"/>
      <point x="468.125" y="5.75" type="curve"/>
      <point x="468.125" y="48.625"/>
      <point x="451.5" y="285.625"/>
      <point x="440.125" y="435.5" type="curve"/>
      <point x="459.125" y="445.5"/>
      <point x="475.25" y="455.625"/>
      <point x="497.25" y="472.625" type="curve"/>
      <point x="576.875" y="363.875"/>
      <point x="724.0" y="91.625"/>
      <point x="763.5" y="-4.125" type="curve"/>
      <point x="864.75" y="28.375"/>
      <point x="1024.0" y="109.875"/>
      <point x="1080.625" y="147.75" type="curve"/>
      <point x="1050.375" y="221.625"/>
      <point x="875.875" y="502.0"/>
      <point x="716.375" y="688.875" type="curve"/>
      <point x="855.25" y="814.5"/>
      <point x="1018.75" y="1056.375"/>
      <point x="1047.625" y="1131.25" type="curve"/>
      <point x="998.5" y="1156.625"/>
      <point x="869.5" y="1229.0"/>
      <point x="751.125" y="1319.25" type="curve"/>
      <point x="637.5" y="1090.75"/>
      <point x="510.5" y="883.375"/>
      <point x="417.5" y="796.375" type="curve"/>
      <point x="408.75" y="960.75"/>
      <point x="401.75" y="1227.625"/>
      <point x="400.0" y="1297.0" type="curve"/>
      <point x="365.0" y="1303.375"/>
      <point x="298.5" y="1309.625"/>
      <point x="226.75" y="1309.625" type="curve" smooth="yes"/>
      <point x="168.625" y="1309.625"/>
      <point x="93.75" y="1305.125"/>
      <point x="42.0" y="1296.0" type="curve"/>
      <point x="62.75" y="932.0"/>
      <point x="93.875" y="218.625"/>
    </contour>
  </outline>
</glyph>
<glyph name="L" format="2">
  <advance width="961.0"/>
  <unicode hex="004C"/>
  <anchor x="508.5" y="0.0" name="bottom"/>
  <anchor x="508.5" y="646.0" name="center"/>
  <anchor x="280.375" y="1301.25" name="top"/>
  <anchor x="559.25" y="916.125" name="topright"/>
  <outline>
    <contour>
      <point x="80.25" y="27.375" type="curve"/>
      <point x="166.875" y="17.75"/>
      <point x="286.25" y="11.875"/>
      <point x="410.5" y="12.5" type="curve" smooth="yes"/>
      <point x="565.375" y="13.125"/>
      <point x="743.25" y="23.5"/>
      <point x="906.75" y="45.875" type="curve"/>
      <point x="907.25" y="151.625"/>
      <point x="899.75" y="341.5"/>
      <point x="889.5" y="397.375" type="curve"/>
      <point x="737.375" y="397.375"/>
      <point x="603.375" y="393.0"/>
      <point x="440.5" y="383.375" type="curve"/>
      <point x="446.0" y="436.25"/>
      <point x="452.25" y="512.0"/>
      <point x="455.75" y="583.25" type="curve" smooth="yes"/>
      <point x="472.375" y="884.375"/>
      <point x="482.125" y="1171.5"/>
      <point x="480.125" y="1292.0" type="curve"/>
      <point x="456.5" y="1296.5"/>
      <point x="380.125" y="1299.5"/>
      <point x="333.0" y="1299.5" type="curve" smooth="yes"/>
      <point x="230.5" y="1299.5"/>
      <point x="124.0" y="1289.75"/>
      <point x="80.25" y="1283.5" type="curve"/>
      <point x="87.0" y="1141.5"/>
      <point x="95.125" y="882.25"/>
      <point x="95.125" y="631.875" type="curve" smooth="yes"/>
      <point x="95.125" y="380.625"/>
      <point x="87.0" y="137.375"/>
    </contour>
  </outline>
</glyph>
<glyph name="M" format="2">
  <advance width="1477.875"/>
  <unicode hex="004D"/>
  <anchor x="743.75" y="0.0" name="bottom"/>
  <anchor x="743.75" y="1291.0" name="top"/>
  <outline>
    <contour>
      <point x="93.375" y="3.375" type="curve"/>
      <point x="210.125" y="3.375"/>
      <point x="364.125" y="5.5"/>
      <point x="444.625" y="8.375" type="curve"/>
      <point x="444.625" y="38.875"/>
      <point x="442.375" y="450.0"/>
      <point x="440.0" y="763.125" type="curve"/>
      <point x="481.75" y="602.25"/>
      <point x="596.5" y="132.125"/>
      <point x="610.25" y="62.625" type="curve"/>
      <point x="661.75" y="52.375"/>
      <point x="752.75" y="49.75"/>
      <point x="833.0" y="49.75" type="curve"/>
      <point x="868.75" y="129.875"/>
      <point x="1017.125" y="530.125"/>
      <point x="1056.75" y="673.375" type="curve"/>
      <point x="1053.625" y="616.75"/>
      <point x="1049.0" y="485.875"/>
      <point x="1044.625" y="362.0" type="curve" smooth="yes"/>
      <point x="1040.25" y="227.375"/>
      <point x="1033.5" y="91.75"/>
      <point x="1027.875" y="20.375" type="curve"/>
      <point x="1094.125" y="15.625"/>
      <point x="1248.5" y="6.625"/>
      <point x="1358.625" y="6.625" type="curve"/>
      <point x="1372.125" y="169.375"/>
      <point x="1386.25" y="456.875"/>
      <point x="1386.25" y="714.375" type="curve" smooth="yes"/>
      <point x="1386.25" y="921.125"/>
      <point x="1376.625" y="1115.875"/>
      <point x="1349.75" y="1234.625" type="curve"/>
      <point x="1248.75" y="1251.5"/>
      <point x="1051.375" y="1256.5"/>
      <point x="957.75" y="1256.5" type="curve"/>
      <point x="933.75" y="1142.25"/>
      <point x="813.75" y="717.75"/>
      <point x="757.625" y="534.5" type="curve"/>
      <point x="711.875" y="730.5"/>
      <point x="571.875" y="1245.0"/>
      <point x="565.0" y="1262.0" type="curve"/>
      <point x="551.875" y="1262.0"/>
      <point x="263.0" y="1260.125"/>
      <point x="119.25" y="1245.5" type="curve"/>
      <point x="98.5" y="849.75"/>
      <point x="93.375" y="240.25"/>
    </contour>
  </outline>
</glyph>
<glyph name="N" format="2">
  <advance width="1282.0"/>
  <unicode hex="004E"/>
  <anchor x="641.0" y="0.0" name="bottom"/>
  <anchor x="641.0" y="1291.0" name="top"/>
  <outline>
    <contour>
      <point x="486.25" y="-6.75" type="curve"/>
      <point x="486.25" y="122.375"/>
      <point x="474.875" y="577.5"/>
      <point x="461.875" y="684.75" type="curve"/>
      <point x="606.125" y="422.5"/>
      <point x="793.25" y="69.0"/>
      <point x="822.75" y="12.0" type="curve"/>
      <point x="867.875" y="4.0"/>
      <point x="940.0" y="1.375"/>
      <point x="1011.5" y="1.375" type="curve" smooth="yes"/>
      <point x="1059.375" y="1.375"/>
      <point x="1106.625" y="2.25"/>
      <point x="1146.75" y="4.125" type="curve"/>
      <point x="1164.625" y="57.625"/>
      <point x="1181.375" y="376.5"/>
      <point x="1181.375" y="675.0" type="curve" smooth="yes"/>
      <point x="1181.375" y="868.5"/>
      <point x="1174.625" y="1086.125"/>
      <point x="1161.375" y="1211.875" type="curve"/>
      <point x="1102.25" y="1229.75"/>
      <point x="903.0" y="1245.75"/>
      <point x="818.0" y="1245.75" type="curve"/>
      <point x="857.25" y="518.875" type="line"/>
      <point x="751.5" y="771.0"/>
      <point x="625.25" y="1003.5"/>
      <point x="459.25" y="1239.625" type="curve"/>
      <point x="360.125" y="1255.0"/>
      <point x="152.625" y="1265.25"/>
      <point x="94.75" y="1265.25" type="curve"/>
      <point x="104.25" y="1127.875"/>
      <point x="106.875" y="869.25"/>
      <point x="106.875" y="631.625" type="curve" smooth="yes"/>
      <point x="106.875" y="344.625"/>
      <point x="105.0" y="43.375"/>
      <point x="103.75" y="17.25" type="curve"/>
      <point x="172.5" y="8.5"/>
      <point x="347.625" y="-7.0"/>
    </contour>
  </outline>
</glyph>
<glyph name="O" format="2">
  <advance width="1354.0"/>
  <unicode hex="004F"/>
  <anchor x="677.0" y="0.0" name="bottom"/>
  <anchor x="611.25" y="646.0" name="center"/>
  <anchor x="911.0" y="0.0" name="ogonek"/>
  <anchor x="677.0" y="1291.0" name="top"/>
  <anchor x="20.0" y="1291.0" name="topleft"/>
  <anchor x="1000.0" y="1187.875" name="topright"/>
  <outline>
    <contour>
      <point x="666.125" y="-51.0" type="curve" smooth="yes"/>
      <point x="1098.625" y="-51.0"/>
      <point x="1279.625" y="279.625"/>
      <point x="1279.625" y="639.5" type="curve" smooth="yes"/>
      <point x="1279.625" y="1025.25"/>
      <point x="1094.5" y="1320.0"/>
      <point x="666.125" y="1320.0" type="curve" smooth="yes"/>
      <point x="279.375" y="1320.0"/>
      <point x="53.0" y="1032.0"/>
      <point x="53.0" y="635.75" type="curve" smooth="yes"/>
      <point x="53.0" y="243.625"/>
      <point x="237.125" y="-51.0"/>
    </contour>
    <contour>
      <point x="671.125" y="309.625" type="curve" smooth="yes"/>
      <point x="475.75" y="309.625"/>
      <point x="410.5" y="451.5"/>
      <point x="410.5" y="644.0" type="curve" smooth="yes"/>
      <point x="410.5" y="854.375"/>
      <point x="525.375" y="1025.5"/>
      <point x="688.0" y="1025.5" type="curve" smooth="yes"/>
      <point x="887.125" y="1025.5"/>
      <point x="954.375" y="862.5"/>
      <point x="954.375" y="677.375" type="curve" smooth="yes"/>
      <point x="954.375" y="487.0"/>
      <point x="853.875" y="309.625"/>
    </contour>
  </outline>
</glyph>
<glyph name="P" format="2">
  <advance width="1010.0"/>
  <unicode hex="0050"/>
  <anchor x="505.0" y="0.0" name="bottom"/>
  <anchor x="505.0" y="1291.0" name="top"/>
  <outline>
    <contour>
      <point x="60.875" y="-6.75" type="curve"/>
      <point x="140.375" y="-12.125"/>
      <point x="353.75" y="-15.75"/>
      <point x="423.75" y="-15.75" type="curve"/>
      <point x="426.375" y="100.875"/>
      <point x="435.625" y="440.75"/>
      <point x="436.25" y="513.125" type="curve"/>
      <point x="457.875" y="504.25"/>
      <point x="517.125" y="496.875"/>
      <point x="551.0" y="496.875" type="curve" smooth="yes"/>
      <point x="831.625" y="496.875"/>
      <point x="963.875" y="666.875"/>
      <point x="963.875" y="922.125" type="curve" smooth="yes"/>
      <point x="963.875" y="1181.125"/>
      <point x="778.375" y="1291.0"/>
      <point x="509.25" y="1291.0" type="curve" smooth="yes"/>
      <point x="365.75" y="1291.0"/>
      <point x="229.375" y="1280.75"/>
      <point x="103.625" y="1255.0" type="curve"/>
      <point x="80.75" y="1066.75"/>
      <point x="60.875" y="66.875"/>
    </contour>
    <contour>
      <point x="428.875" y="803.0" type="curve"/>
      <point x="429.125" y="841.0"/>
      <point x="427.125" y="1008.75"/>
      <point x="426.25" y="1026.75" type="curve"/>
      <point x="462.125" y="1031.125"/>
      <point x="496.875" y="1034.5"/>
      <point x="528.75" y="1034.5" type="curve" smooth="yes"/>
      <point x="612.75" y="1034.5"/>
      <point x="666.375" y="1010.875"/>
      <point x="666.375" y="924.125" type="curve" smooth="yes"/>
      <point x="666.375" y="840.125"/>
      <point x="597.625" y="794.75"/>
      <point x="512.25" y="794.75" type="curve" smooth="yes"/>
      <point x="485.125" y="794.75"/>
      <point x="451.25" y="798.375"/>
    </contour>
  </outline>
</glyph>
<glyph name="Q" format="2">
  <advance width="1291.0"/>
  <unicode hex="0051"/>
  <anchor x="646.0" y="0.0" name="bottom"/>
  <anchor x="646.0" y="1291.0" name="top"/>
  <outline>
    <contour>
      <point x="1079.875" y="-167.5" type="curve"/>
      <point x="1144.5" y="-120.5"/>
      <point x="1223.0" y="-46.125"/>
      <point x="1266.75" y="20.125" type="curve"/>
      <point x="1195.375" y="54.125"/>
      <point x="1108.25" y="108.875"/>
      <point x="1056.75" y="173.375" type="curve"/>
      <point x="1196.5" y="282.125"/>
      <point x="1222.75" y="469.375"/>
      <point x="1222.75" y="675.375" type="curve" smooth="yes"/>
      <point x="1222.75" y="1039.125"/>
      <point x="1045.25" y="1299.0"/>
      <point x="641.375" y="1299.0" type="curve" smooth="yes"/>
      <point x="271.625" y="1299.0"/>
      <point x="34.625" y="1015.75"/>
      <point x="34.625" y="617.25" type="curve" smooth="yes"/>
      <point x="34.625" y="260.5"/>
      <point x="264.375" y="-17.375"/>
      <point x="609.5" y="-17.375" type="curve" smooth="yes"/>
      <point x="711.375" y="-17.375"/>
      <point x="795.875" y="17.5"/>
      <point x="827.875" y="39.5" type="curve"/>
      <point x="858.0" y="-5.5"/>
      <point x="1015.875" y="-139.625"/>
    </contour>
    <contour>
      <point x="673.625" y="307.0" type="curve"/>
      <point x="667.375" y="302.125"/>
      <point x="649.625" y="292.625"/>
      <point x="609.125" y="292.625" type="curve" smooth="yes"/>
      <point x="441.875" y="292.625"/>
      <point x="372.25" y="499.125"/>
      <point x="372.25" y="675.875" type="curve" smooth="yes"/>
      <point x="372.25" y="877.875"/>
      <point x="473.25" y="1016.0"/>
      <point x="655.625" y="1016.0" type="curve" smooth="yes"/>
      <point x="839.125" y="1016.0"/>
      <point x="915.75" y="870.5"/>
      <point x="915.75" y="640.625" type="curve" smooth="yes"/>
      <point x="915.75" y="509.125"/>
      <point x="902.0" y="436.125"/>
      <point x="881.625" y="404.875" type="curve"/>
      <point x="844.625" y="452.125"/>
      <point x="809.375" y="533.25"/>
      <point x="789.0" y="588.0" type="curve"/>
      <point x="726.125" y="551.875"/>
      <point x="626.25" y="487.5"/>
      <point x="586.375" y="455.375" type="curve"/>
      <point x="601.75" y="412.0"/>
      <point x="652.5" y="327.625"/>
    </contour>
  </outline>
</glyph>
<glyph name="R" format="2">
  <advance width="1094.0"/>
  <unicode hex="0052"/>
  <anchor x="547.0" y="0.0" name="bottom"/>
  <anchor x="502.125" y="1329.25" name="top"/>
  <outline>
    <contour>
      <point x="115.75" y="-24.625" type="curve"/>
      <point x="236.125" y="-24.625"/>
      <point x="396.375" y="-20.875"/>
      <point x="486.375" y="-1.25" type="curve"/>
      <point x="484.5" y="132.375"/>
      <point x="459.25" y="483.625"/>
      <point x="447.625" y="568.625" type="curve"/>
      <point x="477.0" y="569.5"/>
      <point x="507.0" y="573.25"/>
      <point x="543.875" y="581.375" type="curve"/>
      <point x="577.625" y="489.125"/>
      <point x="689.75" y="95.875"/>
      <point x="713.375" y="-20.25" type="curve"/>
      <point x="733.375" y="-18.375"/>
      <point x="974.875" y="27.125"/>
      <point x="1063.0" y="80.625" type="curve"/>
      <point x="1028.375" y="191.75"/>
      <point x="903.375" y="513.75"/>
      <point x="826.375" y="658.25" type="curve"/>
      <point x="937.0" y="714.5"/>
      <point x="1016.5" y="849.25"/>
      <point x="1016.5" y="987.125" type="curve" smooth="yes"/>
      <point x="1016.5" y="1270.125"/>
      <point x="772.625" y="1329.75"/>
      <point x="564.75" y="1329.75" type="curve" smooth="yes"/>
      <point x="419.125" y="1329.75"/>
      <point x="156.625" y="1312.75"/>
      <point x="48.75" y="1303.0" type="curve"/>
      <point x="67.625" y="896.875"/>
      <point x="99.25" y="275.625"/>
    </contour>
    <contour>
      <point x="415.75" y="835.625" type="curve"/>
      <point x="412.625" y="883.625"/>
      <point x="401.375" y="1005.625"/>
      <point x="394.75" y="1062.75" type="curve"/>
      <point x="417.5" y="1065.75"/>
      <point x="481.875" y="1072.75"/>
      <point x="524.875" y="1072.75" type="curve" smooth="yes"/>
      <point x="634.5" y="1072.75"/>
      <point x="703.625" y="1066.0"/>
      <point x="703.625" y="976.5" type="curve" smooth="yes"/>
      <point x="703.625" y="902.125"/>
      <point x="650.875" y="863.5"/>
      <point x="542.5" y="845.75" type="curve" smooth="yes"/>
      <point x="487.0" y="837.125"/>
      <point x="451.375" y="835.625"/>
    </contour>
  </outline>
</glyph>
<glyph name="S" format="2">
  <advance width="1152.0"/>
  <unicode hex="0053"/>
  <anchor x="576.0" y="0.0" name="bottom"/>
  <anchor x="528.5" y="1336.5" name="top"/>
  <outline>
    <contour>
      <point x="558.125" y="-16.875" type="curve" smooth="yes"/>
      <point x="849.125" y="-16.875"/>
      <point x="1067.375" y="157.75"/>
      <point x="1067.375" y="422.75" type="curve" smooth="yes"/>
      <point x="1067.375" y="695.375"/>
      <point x="832.375" y="781.25"/>
      <point x="554.75" y="878.125" type="curve" smooth="yes"/>
      <point x="465.0" y="908.5"/>
      <point x="420.25" y="943.875"/>
      <point x="420.25" y="995.5" type="curve" smooth="yes"/>
      <point x="420.25" y="1056.25"/>
      <point x="479.875" y="1083.375"/>
      <point x="549.75" y="1083.375" type="curve" smooth="yes"/>
      <point x="635.625" y="1083.375"/>
      <point x="743.625" y="1033.0"/>
      <point x="831.375" y="949.875" type="curve"/>
      <point x="887.875" y="1000.125"/>
      <point x="997.5" y="1113.75"/>
      <point x="1029.75" y="1162.25" type="curve"/>
      <point x="906.125" y="1300.75"/>
      <point x="725.75" y="1349.0"/>
      <point x="548.875" y="1349.0" type="curve" smooth="yes"/>
      <point x="296.5" y="1349.0"/>
      <point x="68.75" y="1221.125"/>
      <point x="68.75" y="982.125" type="curve" smooth="yes"/>
      <point x="68.75" y="757.375"/>
      <point x="267.25" y="664.875"/>
      <point x="508.0" y="567.5" type="curve" smooth="yes"/>
      <point x="658.625" y="508.375"/>
      <point x="713.0" y="447.125"/>
      <point x="713.0" y="385.875" type="curve" smooth="yes"/>
      <point x="713.0" y="323.25"/>
      <point x="678.5" y="260.125"/>
      <point x="580.125" y="260.125" type="curve" smooth="yes"/>
      <point x="453.125" y="260.125"/>
      <point x="356.5" y="342.5"/>
      <point x="260.25" y="449.5" type="curve"/>
      <point x="196.625" y="418.0"/>
      <point x="38.5" y="279.0"/>
      <point x="21.5" y="249.75" type="curve"/>
      <point x="141.125" y="55.5"/>
      <point x="374.625" y="-16.875"/>
    </contour>
  </outline>
</glyph>
<glyph name="T" format="2">
  <advance width="1039.0"/>
  <unicode hex="0054"/>
  <anchor x="548.25" y="0.0" name="bottom"/>
  <anchor x="520.0" y="646.0" name="center"/>
  <anchor x="520.0" y="1291.0" name="top"/>
  <outline>
    <contour>
      <point x="55.875" y="1002.375" type="curve"/>
      <point x="154.0" y="1003.0"/>
      <point x="262.75" y="1006.625"/>
      <point x="351.0" y="1013.0" type="curve"/>
      <point x="350.125" y="969.25"/>
      <point x="349.25" y="914.25"/>
      <point x="349.25" y="852.0" type="curve" smooth="yes"/>
      <point x="349.25" y="584.5"/>
      <point x="358.375" y="180.25"/>
      <point x="368.375" y="-14.0" type="curve"/>
      <point x="457.25" y="-14.0"/>
      <point x="653.25" y="-3.25"/>
      <point x="744.625" y="11.125" type="curve"/>
      <point x="742.5" y="47.125"/>
      <point x="702.125" y="847.75"/>
      <point x="694.875" y="1019.75" type="curve"/>
      <point x="770.25" y="1017.125"/>
      <point x="915.5" y="1016.625"/>
      <point x="964.375" y="1016.25" type="curve"/>
      <point x="977.5" y="1068.25"/>
      <point x="988.0" y="1184.375"/>
      <point x="987.5" y="1310.125" type="curve"/>
      <point x="870.25" y="1326.625"/>
      <point x="724.375" y="1332.375"/>
      <point x="576.125" y="1332.375" type="curve" smooth="yes"/>
      <point x="381.75" y="1332.375"/>
      <point x="182.75" y="1322.5"/>
      <point x="34.0" y="1311.125" type="curve"/>
      <point x="34.0" y="1275.375"/>
      <point x="42.25" y="1066.625"/>
    </contour>
  </outline>
</glyph>
<glyph name="U" format="2">
  <advance width="1212.0"/>
  <unicode hex="0055"/>
  <anchor x="606.0" y="0.0" name="bottom"/>
  <anchor x="758.625" y="0.0" name="ogonek"/>
  <anchor x="606.0" y="1324.75" name="top"/>
  <anchor x="1085.375" y="1174.0" name="topright"/>
  <outline>
    <contour>
      <point x="593.25" y="-29.0" type="curve" smooth="yes"/>
      <point x="1049.5" y="-29.0"/>
      <point x="1136.5" y="403.75"/>
      <point x="1136.5" y="939.625" type="curve" smooth="yes"/>
      <point x="1136.5" y="1066.75"/>
      <point x="1128.0" y="1194.625"/>
      <point x="1112.5" y="1298.5" type="curve"/>
      <point x="1083.5" y="1306.625"/>
      <point x="855.875" y="1328.25"/>
      <point x="737.375" y="1328.25" type="curve"/>
      <point x="750.25" y="1232.375"/>
      <point x="760.25" y="840.375"/>
      <point x="760.25" y="712.25" type="curve" smooth="yes"/>
      <point x="760.25" y="533.125"/>
      <point x="732.75" y="404.75"/>
      <point x="614.375" y="404.75" type="curve" smooth="yes"/>
      <point x="548.75" y="404.75"/>
      <point x="509.125" y="446.625"/>
      <point x="487.75" y="537.375" type="curve" smooth="yes"/>
      <point x="471.5" y="605.625"/>
      <point x="465.625" y="702.75"/>
      <point x="465.625" y="833.125" type="curve" smooth="yes"/>
      <point x="465.625" y="1002.875"/>
      <point x="473.0" y="1192.0"/>
      <point x="485.625" y="1338.375" type="curve"/>
      <point x="425.625" y="1344.875"/>
      <point x="347.5" y="1349.625"/>
      <point x="273.5" y="1349.625" type="curve" smooth="yes"/>
      <point x="216.5" y="1349.625"/>
      <point x="151.625" y="1345.0"/>
      <point x="90.0" y="1338.625" type="curve"/>
      <point x="86.625" y="1254.375"/>
      <point x="83.375" y="1155.5"/>
      <point x="83.375" y="1073.125" type="curve" smooth="yes"/>
      <point x="83.375" y="727.0"/>
      <point x="90.125" y="454.875"/>
      <point x="157.0" y="268.375" type="curve" smooth="yes"/>
      <point x="224.375" y="76.125"/>
      <point x="353.0" y="-29.0"/>
    </contour>
  </outline>
</glyph>
<glyph name="V" format="2">
  <advance width="1180.875"/>
  <unicode hex="0056"/>
  <anchor x="602.25" y="0.0" name="bottom"/>
  <anchor x="602.25" y="1291.0" name="top"/>
  <outline>
    <contour>
      <point x="641.125" y="-21.625" type="curve" smooth="yes"/>
      <point x="718.75" y="-21.625"/>
      <point x="794.625" y="-20.625"/>
      <point x="836.75" y="-16.0" type="curve"/>
      <point x="860.625" y="69.625"/>
      <point x="1060.75" y="782.75"/>
      <point x="1164.625" y="1304.125" type="curve"/>
      <point x="1046.625" y="1342.25"/>
      <point x="883.875" y="1364.5"/>
      <point x="764.375" y="1365.125" type="curve"/>
      <point x="758.625" y="1294.25"/>
      <point x="682.0" y="700.5"/>
      <point x="624.5" y="380.625" type="curve"/>
      <point x="545.125" y="808.875"/>
      <point x="431.125" y="1318.5"/>
      <point x="424.0" y="1359.25" type="curve"/>
      <point x="328.5" y="1359.25"/>
      <point x="124.75" y="1341.5"/>
      <point x="13.625" y="1306.75" type="curve"/>
      <point x="81.375" y="975.75"/>
      <point x="308.625" y="223.125"/>
      <point x="423.125" y="-10.0" type="curve"/>
      <point x="468.0" y="-16.0"/>
      <point x="555.875" y="-21.625"/>
    </contour>
  </outline>
</glyph>
<glyph name="W" format="2">
  <advance width="1344.0"/>
  <unicode hex="0057"/>
  <anchor x="672.0" y="0.0" name="bottom"/>
  <anchor x="672.0" y="1291.0" name="top"/>
  <outline>
    <contour>
      <point x="784.875" y="-15.25" type="curve"/>
      <point x="1118.75" y="19.625" type="line"/>
      <point x="1144.25" y="126.875"/>
      <point x="1304.75" y="817.125"/>
      <point x="1304.75" y="1386.125" type="curve"/>
      <point x="953.625" y="1349.25" type="line"/>
      <point x="953.625" y="1138.875"/>
      <point x="936.25" y="729.0"/>
      <point x="899.375" y="448.75" type="curve"/>
      <point x="867.25" y="604.875"/>
      <point x="813.375" y="868.875"/>
      <point x="797.125" y="956.375" type="curve"/>
      <point x="564.0" y="932.375" type="line"/>
      <point x="534.125" y="855.0"/>
      <point x="452.5" y="655.625"/>
      <point x="414.0" y="529.5" type="curve"/>
      <point x="418.625" y="761.25"/>
      <point x="431.75" y="1127.625"/>
      <point x="431.75" y="1340.0" type="curve"/>
      <point x="40.375" y="1354.5" type="line"/>
      <point x="40.375" y="821.5"/>
      <point x="118.625" y="226.125"/>
      <point x="144.5" y="17.375" type="curve"/>
      <point x="510.625" y="1.625" type="line"/>
      <point x="548.0" y="96.75"/>
      <point x="631.75" y="338.625"/>
      <point x="664.75" y="456.75" type="curve"/>
      <point x="692.125" y="327.875"/>
      <point x="748.25" y="107.125"/>
    </contour>
  </outline>
</glyph>
<glyph name="X" format="2">
  <advance width="1235.5"/>
  <unicode hex="0058"/>
  <anchor x="620.5" y="0.0" name="bottom"/>
  <anchor x="620.5" y="1291.0" name="top"/>
  <outline>
    <contour>
      <point x="431.875" y="639.875" type="curve"/>
      <point x="320.125" y="442.125"/>
      <point x="153.625" y="205.5"/>
      <point x="35.25" y="53.875" type="curve"/>
      <point x="189.0" y="11.125"/>
      <point x="284.375" y="-15.125"/>
      <point x="403.25" y="-27.0" type="curve"/>
      <point x="429.125" y="2.0"/>
      <point x="542.5" y="175.5"/>
      <point x="642.875" y="355.5" type="curve"/>
      <point x="748.375" y="184.375"/>
      <point x="801.25" y="57.125"/>
      <point x="837.625" y="-49.125" type="curve"/>
      <point x="932.125" y="-31.5"/>
      <point x="1092.5" y="14.625"/>
      <point x="1183.625" y="72.125" type="curve"/>
      <point x="1141.25" y="169.625"/>
      <point x="941.75" y="505.75"/>
      <point x="814.375" y="670.0" type="curve"/>
      <point x="919.125" y="810.5"/>
      <point x="1110.25" y="1069.375"/>
      <point x="1168.125" y="1202.875" type="curve"/>
      <point x="1113.875" y="1246.5"/>
      <point x="961.125" y="1300.75"/>
      <point x="797.125" y="1325.5" type="curve"/>
      <point x="763.0" y="1214.25"/>
      <point x="706.875" y="1056.375"/>
      <point x="636.0" y="930.125" type="curve"/>
      <point x="600.25" y="1004.0"/>
      <point x="477.25" y="1257.375"/>
      <point x="412.5" y="1344.625" type="curve"/>
      <point x="314.5" y="1330.875"/>
      <point x="100.25" y="1262.125"/>
      <point x="13.75" y="1218.25" type="curve"/>
      <point x="59.0" y="1169.75"/>
      <point x="298.625" y="882.5"/>
    </contour>
  </outline>
</glyph>
<glyph name="Y" format="2">
  <advance width="1065.0"/>
  <unicode hex="0059"/>
  <anchor x="581.75" y="0.0" name="bottom"/>
  <anchor x="581.75" y="1291.0" name="top"/>
  <anchor x="68.75" y="1291.0" name="topleft"/>
  <outline>
    <contour>
      <point x="412.5" y="571.25" type="curve"/>
      <point x="402.0" y="439.75"/>
      <point x="388.625" y="162.625"/>
      <point x="388.625" y="19.75" type="curve"/>
      <point x="435.25" y="10.625"/>
      <point x="514.375" y="4.375"/>
      <point x="587.25" y="4.375" type="curve" smooth="yes"/>
      <point x="656.25" y="4.375"/>
      <point x="720.25" y="10.625"/>
      <point x="737.0" y="17.75" type="curve"/>
      <point x="738.375" y="37.5"/>
      <point x="739.25" y="149.25"/>
      <point x="739.25" y="238.25" type="curve" smooth="yes"/>
      <point x="739.25" y="313.375"/>
      <point x="734.875" y="474.5"/>
      <point x="729.625" y="596.875" type="curve"/>
      <point x="852.875" y="841.75"/>
      <point x="997.5" y="1079.875"/>
      <point x="1086.5" y="1198.125" type="curve"/>
      <point x="1009.375" y="1244.25"/>
      <point x="872.75" y="1301.625"/>
      <point x="750.75" y="1308.25" type="curve"/>
      <point x="699.5" y="1225.0"/>
      <point x="586.375" y="993.875"/>
      <point x="555.375" y="924.375" type="curve"/>
      <point x="504.25" y="1025.25"/>
      <point x="405.5" y="1260.25"/>
      <point x="381.125" y="1324.125" type="curve"/>
      <point x="302.25" y="1323.5"/>
      <point x="166.125" y="1307.375"/>
      <point x="27.75" y="1255.25" type="curve"/>
      <point x="141.875" y="987.25"/>
      <point x="289.625" y="740.75"/>
    </contour>
  </outline>
</glyph>
<glyph name="Z" format="2">
  <advance width="1044.0"/>
  <unicode hex="005A"/>
  <anchor x="522.0" y="0.0" name="bottom"/>
  <anchor x="522.0" y="646.0" name="center"/>
  <anchor x="522.0" y="1291.0" name="top"/>
  <outline>
    <contour>
      <point x="923.625" y="-14.0" type="curve"/>
      <point x="930.875" y="15.375"/>
      <point x="940.0" y="100.875"/>
      <point x="940.25" y="181.375" type="curve" smooth="yes"/>
      <point x="940.5" y="249.125"/>
      <point x="937.125" y="320.375"/>
      <point x="933.625" y="358.0" type="curve"/>
      <point x="835.375" y="353.375"/>
      <point x="733.375" y="348.875"/>
      <point x="649.0" y="348.875" type="curve" smooth="yes"/>
      <point x="553.375" y="348.875"/>
      <point x="468.25" y="351.5"/>
      <point x="432.25" y="356.125" type="curve"/>
      <point x="529.125" y="471.125"/>
      <point x="857.0" y="893.625"/>
      <point x="953.5" y="1037.125" type="curve"/>
      <point x="957.25" y="1056.25"/>
      <point x="961.0" y="1117.875"/>
      <point x="961.0" y="1184.0" type="curve" smooth="yes"/>
      <point x="961.0" y="1236.375"/>
      <point x="958.375" y="1292.375"/>
      <point x="951.25" y="1330.0" type="curve"/>
      <point x="918.375" y="1333.5"/>
      <point x="816.375" y="1334.875"/>
      <point x="768.25" y="1334.75" type="curve" smooth="yes"/>
      <point x="560.375" y="1334.0"/>
      <point x="218.0" y="1306.125"/>
      <point x="95.875" y="1294.0" type="curve"/>
      <point x="92.25" y="1259.75"/>
      <point x="89.625" y="1206.875"/>
      <point x="89.625" y="1149.5" type="curve" smooth="yes"/>
      <point x="89.625" y="1099.25"/>
      <point x="93.125" y="1036.75"/>
      <point x="96.75" y="999.0" type="curve"/>
      <point x="242.875" y="1008.5"/>
      <point x="517.125" y="1024.125"/>
      <point x="582.5" y="1024.125" type="curve"/>
      <point x="525.5" y="930.25"/>
      <point x="191.125" y="518.375"/>
      <point x="43.125" y="351.5" type="curve"/>
      <point x="43.125" y="269.75"/>
      <point x="47.75" y="91.5"/>
      <point x="52.25" y="22.0" type="curve"/>
      <point x="399.375" y="-3.25"/>
      <point x="687.625" y="-14.0"/>
    </contour>
  </outline>
</glyph>
<glyph name="bracketleft" format="2">
  <advance width="735.0"/>
  <unicode hex="005B"/>
  <outline>
    <contour>
      <point x="347.5" y="-526.125" type="curve" smooth="yes"/>
      <point x="478.5" y="-526.125"/>
      <point x="579.875" y="-517.875"/>
      <point x="642.0" y="-510.125" type="curve"/>
      <point x="650.125" y="-456.125"/>
      <point x="662.75" y="-316.375"/>
      <point x="662.75" y="-225.125" type="curve"/>
      <point x="625.75" y="-225.375"/>
      <point x="563.5" y="-224.5"/>
      <point x="518.625" y="-222.75" type="curve" smooth="yes"/>
      <point x="461.375" y="-220.125"/>
      <point x="415.25" y="-217.5"/>
      <point x="395.625" y="-212.375" type="curve"/>
      <point x="384.75" y="-41.625"/>
      <point x="378.25" y="174.75"/>
      <point x="378.25" y="401.0" type="curve" smooth="yes"/>
      <point x="378.25" y="722.0"/>
      <point x="392.625" y="1068.75"/>
      <point x="429.75" y="1394.375" type="curve"/>
      <point x="512.625" y="1400.875"/>
      <point x="646.125" y="1409.0"/>
      <point x="682.625" y="1409.375" type="curve"/>
      <point x="686.375" y="1425.75"/>
      <point x="696.875" y="1476.75"/>
      <point x="704.75" y="1538.125" type="curve" smooth="yes"/>
      <point x="710.0" y="1580.0"/>
      <point x="714.25" y="1626.625"/>
      <point x="714.0" y="1669.5" type="curve"/>
      <point x="490.125" y="1667.75"/>
      <point x="250.0" y="1652.25"/>
      <point x="113.0" y="1625.5" type="curve"/>
      <point x="75.5" y="1422.875"/>
      <point x="44.0" y="997.75"/>
      <point x="44.0" y="521.625" type="curve" smooth="yes"/>
      <point x="44.0" y="179.0"/>
      <point x="59.625" y="-189.125"/>
      <point x="101.0" y="-516.75" type="curve"/>
      <point x="190.375" y="-523.25"/>
      <point x="272.875" y="-526.125"/>
    </contour>
  </outline>
</glyph>
<glyph name="backslash" format="2">
  <advance width="725.0"/>
  <unicode hex="005C"/>
  <outline>
    <contour>
      <point x="748.625" y="22.125" type="curve"/>
      <point x="478.25" y="527.75"/>
      <point x="357.375" y="877.0"/>
      <point x="266.125" y="1475.875" type="curve"/>
      <point x="141.25" y="1467.125"/>
      <point x="4.875" y="1430.0"/>
      <point x="-39.25" y="1377.0" type="curve"/>
      <point x="29.125" y="832.5"/>
      <point x="166.25" y="412.5"/>
      <point x="452.625" y="-115.5" type="curve"/>
      <point x="547.0" y="-93.125"/>
      <point x="647.75" y="-47.125"/>
    </contour>
  </outline>
</glyph>
<glyph name="bracketright" format="2">
  <advance width="619.0"/>
  <unicode hex="005D"/>
  <outline>
    <contour>
      <point x="607.75" y="571.625" type="curve" smooth="yes"/>
      <point x="607.75" y="943.25"/>
      <point x="580.5" y="1326.25"/>
      <point x="515.5" y="1645.0" type="curve"/>
      <point x="394.125" y="1668.125"/>
      <point x="263.75" y="1677.5"/>
      <point x="124.0" y="1677.5" type="curve" smooth="yes"/>
      <point x="84.625" y="1677.5"/>
      <point x="33.25" y="1676.625"/>
      <point x="4.5" y="1674.875" type="curve"/>
      <point x="-4.5" y="1627.75"/>
      <point x="-9.875" y="1535.25"/>
      <point x="-9.875" y="1457.625" type="curve"/>
      <point x="-8.5" y="1439.25"/>
      <point x="-5.375" y="1421.75"/>
      <point x="-0.25" y="1406.0" type="curve" smooth="yes"/>
      <point x="63.5" y="1404.25"/>
      <point x="137.125" y="1404.0"/>
      <point x="204.5" y="1401.875" type="curve"/>
      <point x="233.625" y="1266.375"/>
      <point x="252.5" y="948.125"/>
      <point x="252.5" y="614.0" type="curve" smooth="yes"/>
      <point x="252.5" y="322.875"/>
      <point x="237.75" y="20.125"/>
      <point x="204.25" y="-185.125" type="curve"/>
      <point x="163.25" y="-195.25"/>
      <point x="55.75" y="-207.625"/>
      <point x="13.375" y="-207.625" type="curve"/>
      <point x="13.125" y="-277.625"/>
      <point x="16.375" y="-407.75"/>
      <point x="20.75" y="-488.625" type="curve"/>
      <point x="153.0" y="-488.625"/>
      <point x="369.0" y="-482.0"/>
      <point x="524.0" y="-445.125" type="curve"/>
      <point x="570.25" y="-241.5"/>
      <point x="607.75" y="145.0"/>
    </contour>
  </outline>
</glyph>
<glyph name="asciicircum" format="2">
  <advance width="1032.0"/>
  <unicode hex="005E"/>
  <outline>
    <contour>
      <point x="681.375" y="1325.0" type="curve"/>
      <point x="656.75" y="1333.125"/>
      <point x="607.0" y="1336.25"/>
      <point x="554.375" y="1336.25" type="curve" smooth="yes"/>
      <point x="504.25" y="1336.25"/>
      <point x="452.125" y="1331.75"/>
      <point x="417.875" y="1326.0" type="curve"/>
      <point x="301.875" y="1217.0"/>
      <point x="125.5" y="976.0"/>
      <point x="17.0" y="812.0" type="curve"/>
      <point x="98.125" y="735.25"/>
      <point x="193.375" y="691.75"/>
      <point x="278.25" y="679.75" type="curve"/>
      <point x="337.375" y="798.125"/>
      <point x="475.75" y="1016.125"/>
      <point x="638.0" y="1145.375" type="curve"/>
      <point x="471.5" y="1154.25" type="line"/>
      <point x="602.125" y="1006.125"/>
      <point x="665.375" y="881.5"/>
      <point x="720.875" y="707.375" type="curve"/>
      <point x="853.875" y="731.125"/>
      <point x="942.25" y="762.625"/>
      <point x="993.0" y="805.0" type="curve"/>
      <point x="914.0" y="1017.5"/>
      <point x="782.25" y="1213.5"/>
    </contour>
  </outline>
</glyph>
<glyph name="underscore" format="2">
  <advance width="1549.0"/>
  <unicode hex="005F"/>
  <outline>
    <contour>
      <point x="316.75" y="26.875" type="curve" smooth="yes"/>
      <point x="258.875" y="26.875"/>
      <point x="76.375" y="26.875"/>
      <point x="23.75" y="28.875" type="curve"/>
      <point x="29.875" y="-49.625"/>
      <point x="46.0" y="-225.75"/>
      <point x="51.5" y="-270.625" type="curve"/>
      <point x="379.75" y="-278.75"/>
      <point x="726.5" y="-282.125"/>
      <point x="953.25" y="-282.125" type="curve" smooth="yes"/>
      <point x="1194.375" y="-282.125"/>
      <point x="1355.125" y="-278.5"/>
      <point x="1438.0" y="-275.5" type="curve"/>
      <point x="1449.75" y="-199.375"/>
      <point x="1458.0" y="-66.375"/>
      <point x="1458.0" y="59.25" type="curve"/>
      <point x="1243.5" y="48.875"/>
      <point x="784.875" y="26.875"/>
    </contour>
  </outline>
</glyph>
<glyph name="a" format="2">
  <advance width="1295.0"/>
  <unicode hex="0061"/>
  <anchor x="602.5" y="0.0" name="bottom"/>
  <anchor x="1165.0" y="0.875" name="ogonek"/>
  <anchor x="602.5" y="1063.0" name="top"/>
  <outline>
    <contour>
      <point x="503.625" y="-16.125" type="curve" smooth="yes"/>
      <point x="719.125" y="-16.125"/>
      <point x="852.75" y="61.875"/>
      <point x="882.5" y="139.75" type="curve"/>
      <point x="893.875" y="50.25"/>
      <point x="1008.125" y="-9.625"/>
      <point x="1125.5" y="-9.625" type="curve" smooth="yes"/>
      <point x="1233.25" y="-9.625"/>
      <point x="1301.5" y="32.75"/>
      <point x="1319.0" y="77.625" type="curve"/>
      <point x="1212.5" y="307.625" type="line"/>
      <point x="1202.875" y="285.5"/>
      <point x="1174.125" y="271.375"/>
      <point x="1140.75" y="271.375" type="curve" smooth="yes"/>
      <point x="1104.625" y="271.375"/>
      <point x="1083.0" y="293.0"/>
      <point x="1081.875" y="399.25" type="curve" smooth="yes"/>
      <point x="1080.875" y="470.75"/>
      <point x="1078.0" y="543.0"/>
      <point x="1071.875" y="618.0" type="curve" smooth="yes"/>
      <point x="1062.25" y="715.625"/>
      <point x="1041.25" y="792.625"/>
      <point x="1008.0" y="857.25" type="curve" smooth="yes"/>
      <point x="935.25" y="997.0"/>
      <point x="794.625" y="1073.375"/>
      <point x="554.5" y="1073.375" type="curve" smooth="yes"/>
      <point x="340.25" y="1073.375"/>
      <point x="139.875" y="987.5"/>
      <point x="49.0" y="863.125" type="curve"/>
      <point x="320.5" y="688.25" type="line"/>
      <point x="361.625" y="744.5"/>
      <point x="446.375" y="800.0"/>
      <point x="546.75" y="800.0" type="curve" smooth="yes"/>
      <point x="647.75" y="800.0"/>
      <point x="702.375" y="766.25"/>
      <point x="738.75" y="723.5" type="curve" smooth="yes"/>
      <point x="762.375" y="698.875"/>
      <point x="775.75" y="658.125"/>
      <point x="776.625" y="626.75" type="curve"/>
      <point x="744.625" y="648.125"/>
      <point x="653.25" y="673.75"/>
      <point x="560.5" y="673.75" type="curve" smooth="yes"/>
      <point x="298.125" y="673.75"/>
      <point x="54.75" y="582.0"/>
      <point x="54.75" y="327.75" type="curve" smooth="yes"/>
      <point x="54.75" y="75.875"/>
      <point x="256.875" y="-16.125"/>
    </contour>
    <contour>
      <point x="580.375" y="244.875" type="curve" smooth="yes"/>
      <point x="472.625" y="244.875"/>
      <point x="407.625" y="272.375"/>
      <point x="407.625" y="345.5" type="curve" smooth="yes"/>
      <point x="407.625" y="417.5"/>
      <point x="511.0" y="443.375"/>
      <point x="612.25" y="443.375" type="curve" smooth="yes"/>
      <point x="686.0" y="443.375"/>
      <point x="770.125" y="429.5"/>
      <point x="797.0" y="418.0" type="curve"/>
      <point x="796.375" y="395.0"/>
      <point x="799.375" y="352.75"/>
      <point x="802.875" y="324.375" type="curve"/>
      <point x="768.375" y="290.75"/>
      <point x="663.875" y="244.875"/>
    </contour>
  </outline>
</glyph>
<glyph name="b" format="2">
  <advance width="1200.0"/>
  <unicode hex="0062"/>
  <anchor x="617.5" y="0.0" name="bottom"/>
  <anchor x="617.5" y="1470.0" name="top"/>
  <outline>
    <contour>
      <point x="107.625" y="-4.5" type="curve"/>
      <point x="201.375" y="-15.875"/>
      <point x="331.0" y="-20.0"/>
      <point x="462.375" y="-19.0" type="curve"/>
      <point x="461.5" y="-6.375"/>
      <point x="456.875" y="74.875"/>
      <point x="454.75" y="113.875" type="curve"/>
      <point x="484.75" y="73.375"/>
      <point x="586.375" y="0.75"/>
      <point x="727.0" y="0.75" type="curve" smooth="yes"/>
      <point x="967.875" y="0.75"/>
      <point x="1123.875" y="171.75"/>
      <point x="1123.875" y="444.5" type="curve" smooth="yes"/>
      <point x="1123.875" y="762.75"/>
      <point x="963.75" y="918.625"/>
      <point x="733.75" y="918.625" type="curve" smooth="yes"/>
      <point x="605.0" y="918.625"/>
      <point x="483.375" y="848.875"/>
      <point x="419.0" y="780.75" type="curve"/>
      <point x="403.625" y="1043.0"/>
      <point x="401.25" y="1327.375"/>
      <point x="401.25" y="1448.5" type="curve"/>
      <point x="219.125" y="1420.5"/>
      <point x="85.125" y="1394.875"/>
      <point x="67.125" y="1391.0" type="curve"/>
      <point x="67.125" y="1179.0"/>
      <point x="95.625" y="159.5"/>
    </contour>
    <contour>
      <point x="444.875" y="358.125" type="curve"/>
      <point x="442.875" y="382.25"/>
      <point x="436.625" y="492.0"/>
      <point x="436.25" y="516.625" type="curve"/>
      <point x="469.25" y="560.25"/>
      <point x="540.375" y="633.125"/>
      <point x="664.0" y="633.125" type="curve" smooth="yes"/>
      <point x="764.25" y="633.125"/>
      <point x="804.5" y="559.625"/>
      <point x="804.5" y="471.5" type="curve" smooth="yes"/>
      <point x="804.5" y="365.125"/>
      <point x="750.5" y="310.25"/>
      <point x="624.625" y="310.25" type="curve" smooth="yes"/>
      <point x="552.0" y="310.25"/>
      <point x="475.875" y="338.75"/>
    </contour>
  </outline>
</glyph>
<glyph name="c" format="2">
  <advance width="1026.0"/>
  <unicode hex="0063"/>
  <anchor x="513.0" y="0.0" name="bottom"/>
  <anchor x="513.0" y="1063.0" name="top"/>
  <outline>
    <contour>
      <point x="984.625" y="213.5" type="curve"/>
      <point x="746.625" y="469.125" type="line"/>
      <point x="732.875" y="447.375"/>
      <point x="649.25" y="353.0"/>
      <point x="534.25" y="353.0" type="curve" smooth="yes"/>
      <point x="393.5" y="353.0"/>
      <point x="355.125" y="490.0"/>
      <point x="355.125" y="594.75" type="curve" smooth="yes"/>
      <point x="355.125" y="732.375"/>
      <point x="423.875" y="815.625"/>
      <point x="555.625" y="815.625" type="curve" smooth="yes"/>
      <point x="664.625" y="815.625"/>
      <point x="702.625" y="743.75"/>
      <point x="710.625" y="724.75" type="curve"/>
      <point x="954.375" y="858.125" type="line"/>
      <point x="870.125" y="1007.125"/>
      <point x="726.25" y="1095.75"/>
      <point x="538.75" y="1095.75" type="curve" smooth="yes"/>
      <point x="226.75" y="1095.75"/>
      <point x="22.0" y="854.375"/>
      <point x="22.0" y="542.375" type="curve" smooth="yes"/>
      <point x="22.0" y="240.625"/>
      <point x="217.625" y="-11.0"/>
      <point x="524.5" y="-11.0" type="curve" smooth="yes"/>
      <point x="763.125" y="-11.0"/>
      <point x="920.375" y="106.0"/>
    </contour>
  </outline>
</glyph>
<glyph name="d" format="2">
  <advance width="1195.0"/>
  <unicode hex="0064"/>
  <anchor x="598.0" y="0.0" name="bottom"/>
  <anchor x="846.125" y="1194.625" name="center"/>
  <anchor x="598.0" y="1470.0" name="top"/>
  <anchor x="1135.0" y="1055.75" name="topright"/>
  <outline>
    <contour>
      <point x="766.25" y="3.0" type="curve"/>
      <point x="838.125" y="-4.125"/>
      <point x="1015.125" y="-6.875"/>
      <point x="1066.25" y="-6.875" type="curve"/>
      <point x="1066.25" y="526.0"/>
      <point x="1077.75" y="963.75"/>
      <point x="1111.5" y="1421.125" type="curve"/>
      <point x="1027.875" y="1443.125"/>
      <point x="908.625" y="1453.0"/>
      <point x="823.625" y="1453.0" type="curve"/>
      <point x="817.25" y="1403.625"/>
      <point x="781.25" y="1045.5"/>
      <point x="772.125" y="849.375" type="curve"/>
      <point x="735.875" y="903.5"/>
      <point x="623.75" y="959.0"/>
      <point x="484.5" y="959.0" type="curve" smooth="yes"/>
      <point x="184.625" y="959.0"/>
      <point x="37.875" y="723.625"/>
      <point x="37.875" y="463.375" type="curve" smooth="yes"/>
      <point x="37.875" y="204.0"/>
      <point x="190.875" y="-1.625"/>
      <point x="439.125" y="-1.625" type="curve" smooth="yes"/>
      <point x="627.125" y="-1.625"/>
      <point x="724.25" y="81.625"/>
      <point x="761.0" y="130.375" type="curve"/>
      <point x="761.0" y="95.25"/>
      <point x="762.75" y="29.0"/>
    </contour>
    <contour>
      <point x="533.5" y="324.75" type="curve" smooth="yes"/>
      <point x="421.0" y="324.75"/>
      <point x="358.375" y="384.625"/>
      <point x="358.375" y="495.25" type="curve" smooth="yes"/>
      <point x="358.375" y="597.875"/>
      <point x="427.0" y="672.375"/>
      <point x="536.375" y="672.375" type="curve" smooth="yes"/>
      <point x="616.125" y="672.375"/>
      <point x="712.375" y="635.125"/>
      <point x="755.25" y="594.125" type="curve"/>
      <point x="753.25" y="557.5"/>
      <point x="752.875" y="473.5"/>
      <point x="752.875" y="422.5" type="curve"/>
      <point x="706.25" y="364.375"/>
      <point x="625.125" y="324.75"/>
    </contour>
  </outline>
</glyph>
<glyph name="e" format="2">
  <advance width="1119.125"/>
  <unicode hex="0065"/>
  <anchor x="570.0" y="10.0" name="bottom"/>
  <anchor x="771.125" y="18.875" name="ogonek"/>
  <anchor x="615.125" y="1063.875" name="top"/>
  <outline>
    <contour>
      <point x="1050.25" y="164.5" type="curve"/>
      <point x="1007.25" y="263.875"/>
      <point x="858.625" y="415.25"/>
      <point x="841.625" y="428.375" type="curve"/>
      <point x="771.625" y="361.875"/>
      <point x="698.25" y="318.0"/>
      <point x="599.0" y="318.0" type="curve" smooth="yes"/>
      <point x="508.75" y="318.0"/>
      <point x="429.375" y="356.25"/>
      <point x="405.75" y="425.625" type="curve" smooth="yes"/>
      <point x="400.125" y="442.875"/>
      <point x="397.375" y="464.0"/>
      <point x="397.25" y="483.875" type="curve"/>
      <point x="458.375" y="494.375"/>
      <point x="563.0" y="506.375"/>
      <point x="672.375" y="506.375" type="curve" smooth="yes"/>
      <point x="729.5" y="506.375"/>
      <point x="1009.125" y="500.75"/>
      <point x="1050.375" y="498.75" type="curve"/>
      <point x="1059.125" y="545.625"/>
      <point x="1062.375" y="581.875"/>
      <point x="1061.875" y="632.75" type="curve" smooth="yes"/>
      <point x="1058.5" y="904.5"/>
      <point x="884.25" y="1063.875"/>
      <point x="605.125" y="1063.875" type="curve" smooth="yes"/>
      <point x="272.125" y="1063.875"/>
      <point x="54.75" y="837.625"/>
      <point x="54.75" y="495.375" type="curve" smooth="yes"/>
      <point x="54.75" y="158.875"/>
      <point x="272.125" y="-10.625"/>
      <point x="576.375" y="-10.625" type="curve" smooth="yes"/>
      <point x="820.75" y="-10.625"/>
      <point x="970.5" y="67.875"/>
    </contour>
    <contour>
      <point x="411.375" y="688.25" type="curve"/>
      <point x="416.5" y="760.625"/>
      <point x="477.875" y="850.125"/>
      <point x="591.875" y="850.125" type="curve" smooth="yes"/>
      <point x="676.75" y="850.125"/>
      <point x="733.5" y="798.0"/>
      <point x="750.0" y="739.25" type="curve" smooth="yes"/>
      <point x="753.5" y="726.25"/>
      <point x="755.625" y="713.375"/>
      <point x="755.625" y="701.25" type="curve"/>
      <point x="737.0" y="702.375"/>
      <point x="687.0" y="704.625"/>
      <point x="632.875" y="704.625" type="curve" smooth="yes"/>
      <point x="534.0" y="704.625"/>
      <point x="460.125" y="696.125"/>
    </contour>
  </outline>
</glyph>
<glyph name="f" format="2">
  <advance width="896.0"/>
  <unicode hex="0066"/>
  <anchor x="448.0" y="0.0" name="bottom"/>
  <anchor x="448.0" y="1470.0" name="top"/>
  <outline>
    <contour>
      <point x="231.125" y="-12.875" type="curve"/>
      <point x="345.25" y="-12.75"/>
      <point x="526.25" y="-9.0"/>
      <point x="615.125" y="5.875" type="curve"/>
      <point x="604.75" y="54.375"/>
      <point x="541.625" y="399.75"/>
      <point x="527.75" y="488.5" type="curve"/>
      <point x="585.75" y="494.125"/>
      <point x="717.125" y="498.5"/>
      <point x="736.125" y="498.5" type="curve"/>
      <point x="736.125" y="583.875"/>
      <point x="733.125" y="704.375"/>
      <point x="723.875" y="782.875" type="curve"/>
      <point x="680.625" y="788.125"/>
      <point x="549.0" y="791.625"/>
      <point x="487.875" y="790.375" type="curve"/>
      <point x="479.875" y="819.0"/>
      <point x="477.75" y="847.875"/>
      <point x="477.75" y="873.5" type="curve" smooth="yes"/>
      <point x="477.75" y="952.25"/>
      <point x="510.75" y="1012.125"/>
      <point x="591.125" y="1012.125" type="curve" smooth="yes"/>
      <point x="645.5" y="1012.125"/>
      <point x="698.625" y="962.0"/>
      <point x="730.875" y="916.5" type="curve"/>
      <point x="761.0" y="958.25"/>
      <point x="856.875" y="1112.125"/>
      <point x="904.625" y="1199.625" type="curve"/>
      <point x="870.375" y="1252.75"/>
      <point x="785.875" y="1358.375"/>
      <point x="557.625" y="1358.375" type="curve" smooth="yes"/>
      <point x="273.875" y="1358.375"/>
      <point x="137.5" y="1137.625"/>
      <point x="137.5" y="901.125" type="curve" smooth="yes"/>
      <point x="137.5" y="848.625"/>
      <point x="142.125" y="793.0"/>
      <point x="149.625" y="738.75" type="curve"/>
      <point x="124.375" y="733.75"/>
      <point x="41.625" y="714.125"/>
      <point x="17.5" y="705.0" type="curve"/>
      <point x="17.875" y="599.25"/>
      <point x="31.0" y="472.875"/>
      <point x="53.0" y="401.875" type="curve"/>
      <point x="94.0" y="416.875"/>
      <point x="149.0" y="432.125"/>
      <point x="171.75" y="436.25" type="curve"/>
      <point x="194.625" y="242.875"/>
      <point x="223.625" y="34.125"/>
    </contour>
  </outline>
</glyph>
<glyph name="g" format="2">
  <advance width="1231.0"/>
  <unicode hex="0067"/>
  <anchor x="616.0" y="-530.0" name="bottom"/>
  <anchor x="616.0" y="1063.0" name="top"/>
  <outline>
    <contour>
      <point x="658.5" y="265.375" type="curve" smooth="yes"/>
      <point x="935.75" y="265.375"/>
      <point x="1118.5" y="402.625"/>
      <point x="1118.5" y="672.75" type="curve" smooth="yes"/>
      <point x="1118.5" y="742.875"/>
      <point x="1104.0" y="805.25"/>
      <point x="1074.0" y="857.625" type="curve"/>
      <point x="1109.875" y="907.75"/>
      <point x="1165.25" y="946.375"/>
      <point x="1213.25" y="968.625" type="curve"/>
      <point x="1169.75" y="1023.125"/>
      <point x="1089.25" y="1139.25"/>
      <point x="1058.25" y="1184.875" type="curve"/>
      <point x="991.625" y="1155.75"/>
      <point x="914.125" y="1084.125"/>
      <point x="871.5" y="1017.875" type="curve"/>
      <point x="805.375" y="1042.5"/>
      <point x="725.25" y="1056.0"/>
      <point x="631.25" y="1056.0" type="curve" smooth="yes"/>
      <point x="322.5" y="1056.0"/>
      <point x="96.875" y="920.5"/>
      <point x="96.875" y="660.375" type="curve" smooth="yes"/>
      <point x="96.875" y="568.0"/>
      <point x="126.875" y="476.625"/>
      <point x="200.625" y="404.5" type="curve"/>
      <point x="159.125" y="378.25"/>
      <point x="118.875" y="328.625"/>
      <point x="118.875" y="259.125" type="curve" smooth="yes"/>
      <point x="118.875" y="202.75"/>
      <point x="149.125" y="152.75"/>
      <point x="234.375" y="113.25" type="curve"/>
      <point x="111.125" y="52.625"/>
      <point x="41.25" y="-42.5"/>
      <point x="41.25" y="-148.5" type="curve" smooth="yes"/>
      <point x="41.25" y="-425.0"/>
      <point x="299.0" y="-499.0"/>
      <point x="614.75" y="-499.0" type="curve" smooth="yes"/>
      <point x="921.75" y="-499.0"/>
      <point x="1164.875" y="-395.75"/>
      <point x="1164.875" y="-114.625" type="curve" smooth="yes"/>
      <point x="1164.875" y="98.25"/>
      <point x="1016.375" y="190.125"/>
      <point x="804.375" y="190.125" type="curve" smooth="yes"/>
      <point x="670.375" y="190.125"/>
      <point x="588.625" y="186.625"/>
      <point x="504.875" y="181.375" type="curve"/>
      <point x="435.125" y="182.25"/>
      <point x="398.5" y="214.25"/>
      <point x="398.5" y="247.625" type="curve" smooth="yes"/>
      <point x="398.5" y="263.375"/>
      <point x="407.375" y="280.125"/>
      <point x="426.25" y="294.625" type="curve"/>
      <point x="491.0" y="275.625"/>
      <point x="567.875" y="265.375"/>
    </contour>
    <contour>
      <point x="623.125" y="-284.625" type="curve" smooth="yes"/>
      <point x="487.5" y="-284.625"/>
      <point x="398.125" y="-242.5"/>
      <point x="398.125" y="-165.125" type="curve" smooth="yes"/>
      <point x="398.125" y="-84.75"/>
      <point x="448.875" y="-66.75"/>
      <point x="519.375" y="-66.75" type="curve" smooth="yes"/>
      <point x="686.75" y="-66.75" type="line" smooth="yes"/>
      <point x="760.75" y="-66.75"/>
      <point x="831.875" y="-91.625"/>
      <point x="831.875" y="-165.125" type="curve" smooth="yes"/>
      <point x="831.875" y="-246.75"/>
      <point x="744.75" y="-284.625"/>
    </contour>
    <contour>
      <point x="629.375" y="530.5" type="curve" smooth="yes"/>
      <point x="532.25" y="530.5"/>
      <point x="456.0" y="575.875"/>
      <point x="456.0" y="668.875" type="curve" smooth="yes"/>
      <point x="456.0" y="766.75"/>
      <point x="549.5" y="799.0"/>
      <point x="641.5" y="799.0" type="curve" smooth="yes"/>
      <point x="722.625" y="799.0"/>
      <point x="798.75" y="749.0"/>
      <point x="798.75" y="671.875" type="curve" smooth="yes"/>
      <point x="798.75" y="574.75"/>
      <point x="735.5" y="530.5"/>
    </contour>
  </outline>
</glyph>
<glyph name="h" format="2">
  <advance width="1123.0"/>
  <unicode hex="0068"/>
  <anchor x="570.75" y="0.0" name="bottom"/>
  <anchor x="337.625" y="1198.5" name="center"/>
  <anchor x="227.0" y="1431.875" name="top"/>
  <outline>
    <contour>
      <point x="413.125" y="-8.0" type="curve"/>
      <point x="430.625" y="92.375"/>
      <point x="448.875" y="301.75"/>
      <point x="448.875" y="503.625" type="curve"/>
      <point x="484.75" y="548.75"/>
      <point x="554.5" y="610.875"/>
      <point x="634.25" y="610.875" type="curve" smooth="yes"/>
      <point x="704.5" y="610.875"/>
      <point x="737.125" y="556.25"/>
      <point x="737.125" y="453.5" type="curve" smooth="yes"/>
      <point x="737.125" y="356.0"/>
      <point x="709.375" y="124.25"/>
      <point x="690.375" y="6.5" type="curve"/>
      <point x="739.625" y="-3.25"/>
      <point x="799.125" y="-8.75"/>
      <point x="859.25" y="-8.75" type="curve" smooth="yes"/>
      <point x="914.125" y="-8.75"/>
      <point x="969.875" y="-4.375"/>
      <point x="1021.5" y="4.375" type="curve"/>
      <point x="1045.5" y="141.125"/>
      <point x="1067.25" y="353.75"/>
      <point x="1067.25" y="516.875" type="curve" smooth="yes"/>
      <point x="1067.25" y="773.75"/>
      <point x="1010.625" y="912.5"/>
      <point x="761.125" y="912.5" type="curve" smooth="yes"/>
      <point x="645.125" y="912.5"/>
      <point x="518.5" y="861.5"/>
      <point x="450.5" y="790.0" type="curve"/>
      <point x="442.625" y="1060.25"/>
      <point x="419.375" y="1292.0"/>
      <point x="388.5" y="1443.0" type="curve"/>
      <point x="323.5" y="1442.75"/>
      <point x="82.625" y="1408.25"/>
      <point x="62.75" y="1401.25" type="curve"/>
      <point x="76.5" y="1181.5"/>
      <point x="93.375" y="876.0"/>
      <point x="93.375" y="601.75" type="curve" smooth="yes"/>
      <point x="93.375" y="345.625"/>
      <point x="77.875" y="113.875"/>
      <point x="64.125" y="-0.625" type="curve"/>
      <point x="95.75" y="-13.0"/>
      <point x="167.75" y="-17.625"/>
      <point x="245.75" y="-17.625" type="curve" smooth="yes"/>
      <point x="311.875" y="-17.625"/>
      <point x="378.125" y="-14.125"/>
    </contour>
  </outline>
</glyph>
<glyph name="i" format="2">
  <advance width="610.0"/>
  <unicode hex="0069"/>
  <anchor x="297.875" y="0.0" name="bottom"/>
  <outline>
    <contour>
      <point x="446.875" y="2.25" type="curve"/>
      <point x="469.875" y="84.25"/>
      <point x="485.625" y="404.0"/>
      <point x="485.625" y="645.625" type="curve" smooth="yes"/>
      <point x="485.625" y="765.75"/>
      <point x="480.25" y="870.25"/>
      <point x="472.25" y="914.375" type="curve"/>
      <point x="399.875" y="914.375"/>
      <point x="204.0" y="906.875"/>
      <point x="142.0" y="902.375" type="curve"/>
      <point x="142.0" y="695.0"/>
      <point x="104.125" y="91.125"/>
      <point x="89.125" y="4.125" type="curve"/>
      <point x="146.5" y="-3.125"/>
      <point x="206.25" y="-6.0"/>
      <point x="262.5" y="-6.0" type="curve" smooth="yes"/>
      <point x="342.0" y="-6.0"/>
      <point x="423.625" y="0.25"/>
    </contour>
    <contour>
      <point x="317.875" y="1034.375" type="curve" smooth="yes"/>
      <point x="431.25" y="1034.375"/>
      <point x="519.125" y="1122.0"/>
      <point x="519.125" y="1236.25" type="curve" smooth="yes"/>
      <point x="519.125" y="1358.875"/>
      <point x="428.375" y="1444.625"/>
      <point x="307.25" y="1444.625" type="curve" smooth="yes"/>
      <point x="193.625" y="1444.625"/>
      <point x="85.0" y="1367.125"/>
      <point x="85.0" y="1240.875" type="curve" smooth="yes"/>
      <point x="85.0" y="1115.5"/>
      <point x="187.75" y="1034.375"/>
    </contour>
  </outline>
</glyph>
<glyph name="j" format="2">
  <advance width="703.625"/>
  <unicode hex="006A"/>
  <outline>
    <contour>
      <point x="623.375" y="240.5" type="curve" smooth="yes"/>
      <point x="623.375" y="485.875"/>
      <point x="561.25" y="819.25"/>
      <point x="536.125" y="895.75" type="curve"/>
      <point x="159.875" y="878.125" type="line"/>
      <point x="205.625" y="703.75"/>
      <point x="248.75" y="397.875"/>
      <point x="248.75" y="190.125" type="curve" smooth="yes"/>
      <point x="248.75" y="27.0"/>
      <point x="226.875" y="-212.625"/>
      <point x="120.75" y="-212.625" type="curve" smooth="yes"/>
      <point x="48.375" y="-212.625"/>
      <point x="-1.25" y="-147.375"/>
      <point x="-24.375" y="-70.625" type="curve"/>
      <point x="-111.25" y="-97.125"/>
      <point x="-279.5" y="-157.25"/>
      <point x="-372.625" y="-222.5" type="curve"/>
      <point x="-320.25" y="-401.0"/>
      <point x="-103.375" y="-524.0"/>
      <point x="120.625" y="-524.0" type="curve" smooth="yes"/>
      <point x="474.625" y="-524.0"/>
      <point x="623.375" y="-264.625"/>
    </contour>
    <contour>
      <point x="281.0" y="1440.5" type="curve" smooth="yes"/>
      <point x="148.75" y="1440.5"/>
      <point x="48.0" y="1337.5"/>
      <point x="48.0" y="1205.625" type="curve" smooth="yes"/>
      <point x="48.0" y="1081.5"/>
      <point x="160.25" y="999.375"/>
      <point x="278.5" y="999.375" type="curve" smooth="yes"/>
      <point x="402.625" y="999.375"/>
      <point x="520.375" y="1103.25"/>
      <point x="520.375" y="1225.5" type="curve" smooth="yes"/>
      <point x="520.375" y="1340.875"/>
      <point x="416.375" y="1440.5"/>
    </contour>
  </outline>
</glyph>
<glyph name="k" format="2">
  <advance width="1156.0"/>
  <unicode hex="006B"/>
  <anchor x="580.5" y="0.0" name="bottom"/>
  <anchor x="580.5" y="1470.0" name="top"/>
  <outline>
    <contour>
      <point x="812.125" y="-55.0" type="curve"/>
      <point x="873.75" y="-39.25"/>
      <point x="1099.0" y="45.75"/>
      <point x="1143.625" y="73.5" type="curve"/>
      <point x="1023.75" y="272.125"/>
      <point x="850.125" y="458.75"/>
      <point x="758.875" y="518.0" type="curve"/>
      <point x="826.75" y="568.375"/>
      <point x="1017.0" y="695.625"/>
      <point x="1127.375" y="767.5" type="curve"/>
      <point x="1088.25" y="834.375"/>
      <point x="980.125" y="985.5"/>
      <point x="934.625" y="1029.125" type="curve"/>
      <point x="792.75" y="932.375"/>
      <point x="569.875" y="782.25"/>
      <point x="438.75" y="646.5" type="curve"/>
      <point x="449.875" y="764.25"/>
      <point x="469.125" y="1165.875"/>
      <point x="469.125" y="1430.25" type="curve"/>
      <point x="410.5" y="1447.875"/>
      <point x="343.0" y="1455.0"/>
      <point x="271.875" y="1455.0" type="curve" smooth="yes"/>
      <point x="223.375" y="1455.0"/>
      <point x="173.125" y="1451.5"/>
      <point x="124.0" y="1447.125" type="curve"/>
      <point x="124.0" y="1269.75"/>
      <point x="64.375" y="89.5"/>
      <point x="58.0" y="-20.5" type="curve"/>
      <point x="104.625" y="-26.125"/>
      <point x="170.625" y="-31.625"/>
      <point x="244.125" y="-31.625" type="curve" smooth="yes"/>
      <point x="297.0" y="-31.625"/>
      <point x="353.875" y="-28.75"/>
      <point x="410.125" y="-22.375" type="curve"/>
      <point x="415.0" y="34.5"/>
      <point x="422.25" y="155.875"/>
      <point x="424.375" y="271.0" type="curve"/>
      <point x="436.375" y="282.375"/>
      <point x="483.75" y="320.75"/>
      <point x="508.25" y="337.0" type="curve"/>
      <point x="598.75" y="292.75"/>
      <point x="770.625" y="37.25"/>
    </contour>
  </outline>
</glyph>
<glyph name="l" format="2">
  <advance width="645.0"/>
  <unicode hex="006C"/>
  <anchor x="310.5" y="0.0" name="bottom"/>
  <anchor x="310.5" y="735.0" name="center"/>
  <anchor x="310.5" y="1470.0" name="top"/>
  <anchor x="459.5" y="1032.875" name="topright"/>
  <outline>
    <contour>
      <point x="656.0" y="40.875" type="curve"/>
      <point x="645.625" y="69.25"/>
      <point x="562.0" y="285.625"/>
      <point x="544.375" y="321.0" type="curve"/>
      <point x="525.75" y="291.0"/>
      <point x="499.75" y="271.5"/>
      <point x="456.25" y="271.5" type="curve" smooth="yes"/>
      <point x="384.625" y="271.5"/>
      <point x="375.25" y="373.875"/>
      <point x="375.25" y="495.375" type="curve" smooth="yes"/>
      <point x="375.25" y="645.5"/>
      <point x="401.875" y="1116.625"/>
      <point x="421.375" y="1426.0" type="curve"/>
      <point x="352.5" y="1431.625"/>
      <point x="298.625" y="1434.5"/>
      <point x="242.0" y="1434.5" type="curve" smooth="yes"/>
      <point x="200.375" y="1434.5"/>
      <point x="147.625" y="1432.625"/>
      <point x="94.75" y="1429.0" type="curve"/>
      <point x="79.625" y="1168.375"/>
      <point x="60.5" y="803.0"/>
      <point x="60.5" y="416.875" type="curve" smooth="yes"/>
      <point x="60.5" y="136.875"/>
      <point x="113.375" y="-41.625"/>
      <point x="364.125" y="-41.625" type="curve" smooth="yes"/>
      <point x="494.125" y="-41.625"/>
      <point x="615.5" y="3.25"/>
    </contour>
  </outline>
</glyph>
<glyph name="m" format="2">
  <advance width="1858.0"/>
  <unicode hex="006D"/>
  <anchor x="929.0" y="0.0" name="bottom"/>
  <anchor x="929.0" y="1063.0" name="top"/>
  <outline>
    <contour>
      <point x="118.5" y="-7.375" type="curve"/>
      <point x="161.5" y="-12.25"/>
      <point x="268.5" y="-16.875"/>
      <point x="364.375" y="-16.875" type="curve" smooth="yes"/>
      <point x="402.625" y="-16.875"/>
      <point x="467.125" y="-14.875"/>
      <point x="482.25" y="-13.875" type="curve"/>
      <point x="479.5" y="13.5"/>
      <point x="462.75" y="272.0"/>
      <point x="450.75" y="591.125" type="curve"/>
      <point x="475.25" y="670.75"/>
      <point x="561.0" y="745.5"/>
      <point x="651.875" y="745.5" type="curve" smooth="yes"/>
      <point x="788.625" y="745.5"/>
      <point x="802.25" y="545.5"/>
      <point x="802.25" y="242.875" type="curve" smooth="yes"/>
      <point x="802.25" y="158.25"/>
      <point x="802.0" y="82.75"/>
      <point x="804.25" y="-7.0" type="curve"/>
      <point x="832.25" y="-11.0"/>
      <point x="905.0" y="-13.0"/>
      <point x="976.0" y="-13.0" type="curve" smooth="yes"/>
      <point x="1035.375" y="-13.0"/>
      <point x="1094.5" y="-11.0"/>
      <point x="1123.375" y="-9.0" type="curve"/>
      <point x="1123.375" y="77.875"/>
      <point x="1126.875" y="161.25"/>
      <point x="1130.375" y="237.75" type="curve" smooth="yes"/>
      <point x="1141.75" y="522.5"/>
      <point x="1176.25" y="738.125"/>
      <point x="1338.625" y="738.125" type="curve" smooth="yes"/>
      <point x="1426.875" y="738.125"/>
      <point x="1459.5" y="648.25"/>
      <point x="1459.5" y="485.25" type="curve" smooth="yes"/>
      <point x="1459.5" y="360.25"/>
      <point x="1439.375" y="191.25"/>
      <point x="1412.625" y="-7.375" type="curve"/>
      <point x="1472.5" y="-12.875"/>
      <point x="1532.5" y="-14.75"/>
      <point x="1592.625" y="-14.75" type="curve" smooth="yes"/>
      <point x="1648.875" y="-14.75"/>
      <point x="1709.25" y="-12.75"/>
      <point x="1763.5" y="-9.625" type="curve"/>
      <point x="1770.625" y="124.875"/>
      <point x="1777.25" y="259.5"/>
      <point x="1777.25" y="376.625" type="curve" smooth="yes"/>
      <point x="1777.25" y="814.5"/>
      <point x="1701.25" y="1044.375"/>
      <point x="1370.375" y="1044.375" type="curve" smooth="yes"/>
      <point x="1183.0" y="1044.375"/>
      <point x="1044.125" y="911.75"/>
      <point x="995.75" y="783.125" type="curve"/>
      <point x="990.5" y="810.375"/>
      <point x="983.75" y="839.875"/>
      <point x="972.375" y="867.5" type="curve" smooth="yes"/>
      <point x="934.125" y="957.125"/>
      <point x="863.375" y="1037.875"/>
      <point x="732.125" y="1037.875" type="curve" smooth="yes"/>
      <point x="550.5" y="1037.875"/>
      <point x="450.25" y="919.375"/>
      <point x="435.0" y="871.125" type="curve"/>
      <point x="435.0" y="899.125"/>
      <point x="434.0" y="981.875"/>
      <point x="432.0" y="1027.0" type="curve"/>
      <point x="358.0" y="1026.875"/>
      <point x="165.0" y="1004.75"/>
      <point x="93.75" y="986.25" type="curve"/>
      <point x="93.75" y="800.5"/>
      <point x="102.5" y="199.125"/>
    </contour>
  </outline>
</glyph>
<glyph name="n" format="2">
  <advance width="1330.0"/>
  <unicode hex="006E"/>
  <anchor x="683.75" y="0.0" name="bottom"/>
  <anchor x="683.75" y="1063.0" name="top"/>
  <outline>
    <contour>
      <point x="433.0" y="-13.75" type="curve"/>
      <point x="447.625" y="99.5"/>
      <point x="468.5" y="315.5"/>
      <point x="470.0" y="624.5" type="curve"/>
      <point x="531.0" y="680.375"/>
      <point x="630.0" y="741.875"/>
      <point x="729.0" y="741.875" type="curve" smooth="yes"/>
      <point x="864.125" y="741.875"/>
      <point x="891.875" y="641.375"/>
      <point x="891.875" y="488.5" type="curve" smooth="yes"/>
      <point x="891.875" y="308.125"/>
      <point x="855.125" y="88.625"/>
      <point x="835.5" y="-3.0" type="curve"/>
      <point x="866.5" y="-6.125"/>
      <point x="943.0" y="-8.0"/>
      <point x="1019.375" y="-8.0" type="curve" smooth="yes"/>
      <point x="1090.25" y="-8.0"/>
      <point x="1161.0" y="-6.0"/>
      <point x="1192.0" y="-3.0" type="curve"/>
      <point x="1213.25" y="166.125"/>
      <point x="1223.625" y="376.5"/>
      <point x="1223.625" y="500.875" type="curve" smooth="yes"/>
      <point x="1223.625" y="875.25"/>
      <point x="1150.125" y="1060.0"/>
      <point x="845.375" y="1060.0" type="curve" smooth="yes"/>
      <point x="681.75" y="1060.0"/>
      <point x="520.75" y="956.625"/>
      <point x="477.0" y="882.875" type="curve"/>
      <point x="478.75" y="933.625"/>
      <point x="478.75" y="1017.25"/>
      <point x="478.375" y="1035.125" type="curve"/>
      <point x="438.75" y="1041.5"/>
      <point x="384.375" y="1044.125"/>
      <point x="328.75" y="1044.125" type="curve" smooth="yes"/>
      <point x="250.5" y="1044.125"/>
      <point x="167.625" y="1039.375"/>
      <point x="110.75" y="1032.0" type="curve"/>
      <point x="110.75" y="579.0"/>
      <point x="102.875" y="218.375"/>
      <point x="79.375" y="-3.875" type="curve"/>
      <point x="105.875" y="-6.875"/>
      <point x="193.375" y="-10.5"/>
      <point x="247.375" y="-12.25" type="curve" smooth="yes"/>
      <point x="316.25" y="-14.0"/>
      <point x="387.0" y="-13.875"/>
    </contour>
  </outline>
</glyph>
<glyph name="o" format="2">
  <advance width="1170.25"/>
  <unicode hex="006F"/>
  <anchor x="587.5" y="0.0" name="bottom"/>
  <anchor x="587.5" y="532.0" name="center"/>
  <anchor x="744.0" y="0.0" name="ogonek"/>
  <anchor x="587.5" y="1063.0" name="top"/>
  <anchor x="881.5" y="941.0" name="topright"/>
  <outline>
    <contour>
      <point x="600.125" y="-19.75" type="curve" smooth="yes"/>
      <point x="926.25" y="-19.75"/>
      <point x="1106.5" y="175.75"/>
      <point x="1106.5" y="476.75" type="curve" smooth="yes"/>
      <point x="1106.5" y="819.0"/>
      <point x="940.25" y="1060.375"/>
      <point x="613.375" y="1060.375" type="curve" smooth="yes"/>
      <point x="286.25" y="1060.375"/>
      <point x="59.375" y="884.125"/>
      <point x="59.375" y="524.5" type="curve" smooth="yes"/>
      <point x="59.375" y="169.875"/>
      <point x="245.375" y="-19.75"/>
    </contour>
    <contour>
      <point x="588.125" y="303.25" type="curve" smooth="yes"/>
      <point x="463.0" y="303.25"/>
      <point x="397.625" y="409.375"/>
      <point x="397.625" y="552.625" type="curve" smooth="yes"/>
      <point x="397.625" y="673.625"/>
      <point x="452.75" y="801.625"/>
      <point x="595.375" y="801.625" type="curve" smooth="yes"/>
      <point x="719.125" y="801.625"/>
      <point x="792.125" y="693.125"/>
      <point x="792.125" y="536.125" type="curve" smooth="yes"/>
      <point x="792.125" y="391.25"/>
      <point x="710.875" y="303.25"/>
    </contour>
  </outline>
</glyph>
<glyph name="p" format="2">
  <advance width="1225.25"/>
  <unicode hex="0070"/>
  <anchor x="600.0" y="0.0" name="bottom"/>
  <anchor x="600.0" y="1063.0" name="top"/>
  <outline>
    <contour>
      <point x="45.75" y="-451.75" type="curve"/>
      <point x="116.125" y="-451.75"/>
      <point x="268.625" y="-445.375"/>
      <point x="388.0" y="-421.75" type="curve"/>
      <point x="399.5" y="-304.375"/>
      <point x="414.375" y="70.625"/>
      <point x="414.875" y="155.0" type="curve"/>
      <point x="449.0" y="109.5"/>
      <point x="584.0" y="59.375"/>
      <point x="701.25" y="59.375" type="curve" smooth="yes"/>
      <point x="967.125" y="59.375"/>
      <point x="1174.75" y="255.25"/>
      <point x="1174.75" y="579.875" type="curve" smooth="yes"/>
      <point x="1174.75" y="887.375"/>
      <point x="1052.0" y="1070.125"/>
      <point x="778.875" y="1070.125" type="curve" smooth="yes"/>
      <point x="593.25" y="1070.125"/>
      <point x="471.25" y="964.125"/>
      <point x="436.75" y="914.875" type="curve"/>
      <point x="436.75" y="962.875"/>
      <point x="432.625" y="1023.625"/>
      <point x="428.375" y="1070.5" type="curve"/>
      <point x="315.5" y="1070.5"/>
      <point x="187.0" y="1058.625"/>
      <point x="94.0" y="1029.125" type="curve"/>
      <point x="94.0" y="858.375"/>
      <point x="82.125" y="107.25"/>
    </contour>
    <contour>
      <point x="646.25" y="407.625" type="curve" smooth="yes"/>
      <point x="525.0" y="407.625"/>
      <point x="467.125" y="460.125"/>
      <point x="434.25" y="494.5" type="curve"/>
      <point x="436.0" y="530.875"/>
      <point x="439.375" y="643.5"/>
      <point x="439.625" y="679.5" type="curve"/>
      <point x="474.5" y="724.5"/>
      <point x="551.375" y="782.125"/>
      <point x="666.125" y="782.125" type="curve" smooth="yes"/>
      <point x="788.5" y="782.125"/>
      <point x="836.625" y="718.75"/>
      <point x="836.625" y="605.375" type="curve" smooth="yes"/>
      <point x="836.625" y="480.375"/>
      <point x="764.75" y="407.625"/>
    </contour>
  </outline>
</glyph>
<glyph name="q" format="2">
  <advance width="1207.0"/>
  <unicode hex="0071"/>
  <anchor x="604.0" y="0.0" name="bottom"/>
  <anchor x="604.0" y="1063.0" name="top"/>
  <outline>
    <contour>
      <point x="1103.375" y="-460.875" type="curve"/>
      <point x="1089.5" y="-342.25"/>
      <point x="1064.875" y="-100.75"/>
      <point x="1064.875" y="131.375" type="curve" smooth="yes"/>
      <point x="1064.875" y="422.25"/>
      <point x="1084.625" y="780.875"/>
      <point x="1121.25" y="1046.625" type="curve"/>
      <point x="1007.875" y="1075.25"/>
      <point x="924.875" y="1089.0"/>
      <point x="804.375" y="1089.25" type="curve"/>
      <point x="800.25" y="1067.0"/>
      <point x="787.625" y="988.5"/>
      <point x="787.375" y="946.25" type="curve"/>
      <point x="698.75" y="1038.875"/>
      <point x="581.25" y="1084.25"/>
      <point x="429.5" y="1084.25" type="curve" smooth="yes"/>
      <point x="150.5" y="1084.25"/>
      <point x="52.375" y="818.125"/>
      <point x="52.375" y="525.25" type="curve" smooth="yes"/>
      <point x="52.375" y="215.375"/>
      <point x="205.75" y="3.5"/>
      <point x="500.125" y="3.5" type="curve" smooth="yes"/>
      <point x="630.125" y="3.5"/>
      <point x="728.875" y="53.875"/>
      <point x="751.5" y="92.625" type="curve"/>
      <point x="751.5" y="-100.125"/>
      <point x="757.875" y="-273.625"/>
      <point x="777.5" y="-445.125" type="curve"/>
      <point x="853.25" y="-452.625"/>
      <point x="963.0" y="-460.875"/>
    </contour>
    <contour>
      <point x="559.75" y="357.0" type="curve" smooth="yes"/>
      <point x="444.375" y="357.0"/>
      <point x="380.625" y="443.75"/>
      <point x="380.625" y="566.875" type="curve" smooth="yes"/>
      <point x="380.625" y="684.625"/>
      <point x="438.25" y="758.0"/>
      <point x="545.5" y="758.0" type="curve" smooth="yes"/>
      <point x="643.25" y="758.0"/>
      <point x="735.625" y="693.25"/>
      <point x="765.625" y="670.875" type="curve"/>
      <point x="761.25" y="595.875"/>
      <point x="754.75" y="484.5"/>
      <point x="751.5" y="412.875" type="curve"/>
      <point x="717.375" y="390.5"/>
      <point x="641.5" y="357.0"/>
    </contour>
  </outline>
</glyph>
<glyph name="r" format="2">
  <advance width="853.0"/>
  <unicode hex="0072"/>
  <anchor x="427.0" y="0.0" name="bottom"/>
  <anchor x="427.0" y="1063.0" name="top"/>
  <outline>
    <contour>
      <point x="385.5" y="898.875" type="curve"/>
      <point x="384.625" y="947.75"/>
      <point x="359.125" y="1036.25"/>
      <point x="343.0" y="1071.5" type="curve"/>
      <point x="314.625" y="1069.625"/>
      <point x="148.625" y="1042.625"/>
      <point x="39.625" y="1012.125" type="curve"/>
      <point x="86.375" y="810.25"/>
      <point x="126.875" y="263.375"/>
      <point x="126.875" y="-6.75" type="curve"/>
      <point x="254.25" y="-7.125"/>
      <point x="399.875" y="-3.75"/>
      <point x="506.5" y="10.25" type="curve"/>
      <point x="506.5" y="100.75"/>
      <point x="461.75" y="456.5"/>
      <point x="436.875" y="603.625" type="curve"/>
      <point x="490.375" y="673.25"/>
      <point x="563.25" y="715.75"/>
      <point x="648.625" y="715.75" type="curve" smooth="yes"/>
      <point x="704.0" y="715.75"/>
      <point x="750.625" y="697.5"/>
      <point x="779.375" y="686.0" type="curve"/>
      <point x="849.0" y="1043.0" type="line"/>
      <point x="822.625" y="1061.375"/>
      <point x="754.75" y="1076.625"/>
      <point x="694.25" y="1076.625" type="curve" smooth="yes"/>
      <point x="546.375" y="1076.625"/>
      <point x="425.5" y="985.25"/>
    </contour>
  </outline>
</glyph>
<glyph name="s" format="2">
  <advance width="988.875"/>
  <unicode hex="0073"/>
  <anchor x="503.25" y="-68.75" name="bottom"/>
  <anchor x="505.75" y="1120.125" name="top"/>
  <outline>
    <contour>
      <point x="491.0" y="-77.875" type="curve" smooth="yes"/>
      <point x="731.0" y="-77.875"/>
      <point x="939.625" y="42.5"/>
      <point x="939.625" y="297.125" type="curve" smooth="yes"/>
      <point x="939.625" y="504.875"/>
      <point x="736.25" y="614.5"/>
      <point x="596.625" y="671.75" type="curve" smooth="yes"/>
      <point x="479.0" y="721.375"/>
      <point x="415.25" y="751.75"/>
      <point x="415.25" y="802.25" type="curve" smooth="yes"/>
      <point x="415.25" y="852.5"/>
      <point x="479.625" y="867.125"/>
      <point x="534.75" y="867.125" type="curve" smooth="yes"/>
      <point x="618.75" y="867.125"/>
      <point x="705.125" y="812.75"/>
      <point x="756.25" y="764.375" type="curve"/>
      <point x="826.5" y="847.625"/>
      <point x="891.375" y="970.875"/>
      <point x="903.875" y="1012.125" type="curve"/>
      <point x="807.375" y="1087.25"/>
      <point x="647.75" y="1125.375"/>
      <point x="515.25" y="1125.375" type="curve" smooth="yes"/>
      <point x="296.0" y="1125.375"/>
      <point x="89.5" y="1016.75"/>
      <point x="89.5" y="813.875" type="curve" smooth="yes"/>
      <point x="89.5" y="615.25"/>
      <point x="232.375" y="522.875"/>
      <point x="386.5" y="456.375" type="curve" smooth="yes"/>
      <point x="491.125" y="411.625"/>
      <point x="606.875" y="343.875"/>
      <point x="606.875" y="288.0" type="curve" smooth="yes"/>
      <point x="606.875" y="237.5"/>
      <point x="561.0" y="218.125"/>
      <point x="498.0" y="218.125" type="curve" smooth="yes"/>
      <point x="405.625" y="218.125"/>
      <point x="280.25" y="301.125"/>
      <point x="182.375" y="380.625" type="curve"/>
      <point x="128.125" y="326.25"/>
      <point x="27.875" y="130.5"/>
      <point x="13.125" y="78.125" type="curve"/>
      <point x="61.5" y="28.25"/>
      <point x="238.625" y="-77.875"/>
    </contour>
  </outline>
</glyph>
<glyph name="t" format="2">
  <advance width="964.0"/>
  <unicode hex="0074"/>
  <anchor x="610.75" y="-46.375" name="bottom"/>
  <anchor x="469.5" y="532.0" name="center"/>
  <anchor x="402.5" y="1422.25" name="top"/>
  <anchor x="602.0" y="1379.75" name="topright"/>
  <outline>
    <contour>
      <point x="931.625" y="112.375" type="curve"/>
      <point x="908.75" y="140.625"/>
      <point x="793.125" y="286.375"/>
      <point x="754.25" y="342.0" type="curve"/>
      <point x="732.0" y="307.375"/>
      <point x="700.125" y="258.0"/>
      <point x="645.0" y="258.0" type="curve" smooth="yes"/>
      <point x="559.375" y="258.0"/>
      <point x="550.125" y="349.375"/>
      <point x="550.125" y="483.25" type="curve" smooth="yes"/>
      <point x="550.125" y="600.375"/>
      <point x="556.5" y="784.625"/>
      <point x="560.625" y="849.125" type="curve"/>
      <point x="591.375" y="852.25"/>
      <point x="659.625" y="857.0"/>
      <point x="706.5" y="859.625" type="curve" smooth="yes"/>
      <point x="774.625" y="863.125"/>
      <point x="863.0" y="866.875"/>
      <point x="876.125" y="866.625" type="curve"/>
      <point x="876.125" y="951.0"/>
      <point x="874.125" y="1072.625"/>
      <point x="864.25" y="1145.625" type="curve"/>
      <point x="849.125" y="1145.875"/>
      <point x="796.125" y="1146.375"/>
      <point x="715.0" y="1142.0" type="curve" smooth="yes"/>
      <point x="680.625" y="1140.25"/>
      <point x="611.625" y="1136.375"/>
      <point x="566.75" y="1134.375" type="curve"/>
      <point x="564.375" y="1190.25"/>
      <point x="563.625" y="1244.625"/>
      <point x="563.625" y="1286.375" type="curve" smooth="yes"/>
      <point x="563.625" y="1361.25"/>
      <point x="563.5" y="1419.125"/>
      <point x="563.875" y="1433.625" type="curve"/>
      <point x="232.5" y="1401.875" type="line"/>
      <point x="235.625" y="1374.5"/>
      <point x="239.75" y="1319.75"/>
      <point x="241.5" y="1272.375" type="curve" smooth="yes"/>
      <point x="243.25" y="1222.0"/>
      <point x="246.375" y="1144.25"/>
      <point x="248.625" y="1118.5" type="curve"/>
      <point x="151.625" y="1114.125"/>
      <point x="68.75" y="1106.5"/>
      <point x="-9.375" y="1097.125" type="curve"/>
      <point x="-9.375" y="1075.625"/>
      <point x="-4.625" y="923.625"/>
      <point x="18.5" y="795.875" type="curve"/>
      <point x="54.25" y="803.625"/>
      <point x="153.5" y="817.75"/>
      <point x="249.25" y="827.5" type="curve"/>
      <point x="244.375" y="753.5"/>
      <point x="231.375" y="520.25"/>
      <point x="231.375" y="329.5" type="curve" smooth="yes"/>
      <point x="231.375" y="121.0"/>
      <point x="346.125" y="-50.5"/>
      <point x="595.125" y="-50.5" type="curve" smooth="yes"/>
      <point x="782.0" y="-50.5"/>
      <point x="890.25" y="46.0"/>
    </contour>
  </outline>
</glyph>
<glyph name="u" format="2">
  <advance width="1178.0"/>
  <unicode hex="0075"/>
  <anchor x="571.5" y="0.0" name="bottom"/>
  <anchor x="807.25" y="0.0" name="ogonek"/>
  <anchor x="571.5" y="1063.0" name="top"/>
  <anchor x="1052.875" y="906.75" name="topright"/>
  <outline>
    <contour>
      <point x="713.25" y="971.125" type="curve"/>
      <point x="729.75" y="895.75"/>
      <point x="741.875" y="779.625"/>
      <point x="741.875" y="664.5" type="curve" smooth="yes"/>
      <point x="741.875" y="456.75"/>
      <point x="706.625" y="269.625"/>
      <point x="586.75" y="269.625" type="curve" smooth="yes"/>
      <point x="459.75" y="269.625"/>
      <point x="426.75" y="476.125"/>
      <point x="426.75" y="710.875" type="curve" smooth="yes"/>
      <point x="426.75" y="815.125"/>
      <point x="434.75" y="919.625"/>
      <point x="443.125" y="1001.125" type="curve"/>
      <point x="399.375" y="1013.875"/>
      <point x="315.375" y="1022.125"/>
      <point x="240.0" y="1022.5" type="curve" smooth="yes"/>
      <point x="187.5" y="1022.875"/>
      <point x="116.0" y="1019.75"/>
      <point x="76.25" y="1016.25" type="curve"/>
      <point x="69.5" y="922.75"/>
      <point x="65.25" y="829.5"/>
      <point x="65.25" y="740.625" type="curve" smooth="yes"/>
      <point x="65.25" y="285.125"/>
      <point x="163.625" y="-61.125"/>
      <point x="576.0" y="-61.125" type="curve" smooth="yes"/>
      <point x="964.25" y="-61.125"/>
      <point x="1094.125" y="272.25"/>
      <point x="1094.125" y="678.125" type="curve" smooth="yes"/>
      <point x="1094.125" y="777.0"/>
      <point x="1085.375" y="878.875"/>
      <point x="1070.625" y="979.25" type="curve"/>
      <point x="1027.625" y="986.375"/>
      <point x="951.75" y="991.625"/>
      <point x="896.5" y="991.625" type="curve" smooth="yes"/>
      <point x="829.75" y="991.625"/>
      <point x="750.75" y="983.5"/>
    </contour>
  </outline>
</glyph>
<glyph name="v" format="2">
  <advance width="1007.0"/>
  <unicode hex="0076"/>
  <anchor x="504.0" y="0.0" name="bottom"/>
  <anchor x="504.0" y="1063.0" name="top"/>
  <outline>
    <contour>
      <point x="655.5" y="1091.0" type="curve"/>
      <point x="604.875" y="791.75"/>
      <point x="561.75" y="609.125"/>
      <point x="511.5" y="435.25" type="curve"/>
      <point x="470.25" y="550.375"/>
      <point x="353.75" y="909.0"/>
      <point x="306.75" y="1092.0" type="curve"/>
      <point x="231.125" y="1069.5"/>
      <point x="43.375" y="1024.875"/>
      <point x="3.125" y="1019.0" type="curve"/>
      <point x="114.5" y="646.75"/>
      <point x="230.5" y="310.25"/>
      <point x="365.5" y="27.625" type="curve"/>
      <point x="402.625" y="23.0"/>
      <point x="458.625" y="17.625"/>
      <point x="514.75" y="17.625" type="curve" smooth="yes"/>
      <point x="567.875" y="17.625"/>
      <point x="621.0" y="21.25"/>
      <point x="658.875" y="27.625" type="curve"/>
      <point x="785.625" y="322.0"/>
      <point x="907.375" y="730.5"/>
      <point x="974.75" y="1012.125" type="curve"/>
      <point x="954.625" y="1018.875"/>
      <point x="813.75" y="1063.625"/>
    </contour>
  </outline>
</glyph>
<glyph name="w" format="2">
  <advance width="1520.0"/>
  <unicode hex="0077"/>
  <anchor x="760.0" y="0.0" name="bottom"/>
  <anchor x="760.0" y="1063.0" name="top"/>
  <outline>
    <contour>
      <point x="440.625" y="7.0" type="curve" smooth="yes"/>
      <point x="601.125" y="7.0"/>
      <point x="697.375" y="108.125"/>
      <point x="743.25" y="212.625" type="curve"/>
      <point x="779.875" y="111.625"/>
      <point x="857.25" y="14.875"/>
      <point x="1020.25" y="14.875" type="curve" smooth="yes"/>
      <point x="1330.25" y="14.875"/>
      <point x="1455.5" y="276.25"/>
      <point x="1455.5" y="706.0" type="curve" smooth="yes"/>
      <point x="1455.5" y="784.625"/>
      <point x="1447.375" y="948.25"/>
      <point x="1440.75" y="1033.75" type="curve"/>
      <point x="1404.625" y="1036.625"/>
      <point x="1325.625" y="1041.125"/>
      <point x="1278.25" y="1041.125" type="curve" smooth="yes"/>
      <point x="1228.75" y="1041.125"/>
      <point x="1180.125" y="1041.125"/>
      <point x="1130.5" y="1041.0" type="curve"/>
      <point x="1134.25" y="933.0"/>
      <point x="1134.625" y="823.75"/>
      <point x="1134.625" y="733.875" type="curve" smooth="yes"/>
      <point x="1134.625" y="479.875"/>
      <point x="1102.625" y="298.375"/>
      <point x="1005.375" y="298.375" type="curve" smooth="yes"/>
      <point x="896.125" y="298.375"/>
      <point x="890.625" y="515.375"/>
      <point x="890.625" y="904.625" type="curve" smooth="yes"/>
      <point x="890.625" y="1036.0" type="line"/>
      <point x="818.5" y="1039.0"/>
      <point x="658.5" y="1040.875"/>
      <point x="594.375" y="1040.875" type="curve"/>
      <point x="598.125" y="933.5"/>
      <point x="599.25" y="817.375"/>
      <point x="599.25" y="719.5" type="curve" smooth="yes"/>
      <point x="599.25" y="504.625"/>
      <point x="561.625" y="337.875"/>
      <point x="477.375" y="337.875" type="curve" smooth="yes"/>
      <point x="404.75" y="337.875"/>
      <point x="383.0" y="445.125"/>
      <point x="383.0" y="623.25" type="curve" smooth="yes"/>
      <point x="383.0" y="737.75"/>
      <point x="391.375" y="882.125"/>
      <point x="404.375" y="1045.5" type="curve"/>
      <point x="305.625" y="1052.75"/>
      <point x="176.875" y="1059.75"/>
      <point x="81.75" y="1059.75" type="curve"/>
      <point x="68.5" y="924.5"/>
      <point x="56.375" y="779.25"/>
      <point x="56.375" y="644.25" type="curve" smooth="yes"/>
      <point x="56.375" y="302.125"/>
      <point x="131.125" y="7.0"/>
    </contour>
  </outline>
</glyph>
<glyph name="x" format="2">
  <advance width="1142.0"/>
  <unicode hex="0078"/>
  <anchor x="573.5" y="0.0" name="bottom"/>
  <anchor x="573.5" y="1063.0" name="top"/>
  <outline>
    <contour>
      <point x="234.25" y="-34.5" type="curve"/>
      <point x="309.125" y="34.0"/>
      <point x="402.25" y="131.625"/>
      <point x="549.75" y="323.25" type="curve"/>
      <point x="639.625" y="213.5"/>
      <point x="726.25" y="90.75"/>
      <point x="804.75" y="-20.25" type="curve"/>
      <point x="894.25" y="29.125"/>
      <point x="994.25" y="85.25"/>
      <point x="1071.25" y="146.0" type="curve"/>
      <point x="953.875" y="311.5"/>
      <point x="866.5" y="441.125"/>
      <point x="760.5" y="568.875" type="curve"/>
      <point x="877.75" y="694.75"/>
      <point x="1024.75" y="898.25"/>
      <point x="1091.25" y="1010.625" type="curve"/>
      <point x="1020.25" y="1054.75"/>
      <point x="893.875" y="1119.875"/>
      <point x="798.75" y="1162.5" type="curve"/>
      <point x="713.25" y="1014.875"/>
      <point x="642.125" y="899.75"/>
      <point x="564.75" y="789.375" type="curve"/>
      <point x="499.125" y="880.875"/>
      <point x="330.25" y="1089.25"/>
      <point x="253.75" y="1165.625" type="curve"/>
      <point x="193.75" y="1133.75"/>
      <point x="27.375" y="1004.375"/>
      <point x="6.125" y="976.5" type="curve"/>
      <point x="74.625" y="903.75"/>
      <point x="187.75" y="784.875"/>
      <point x="376.5" y="574.375" type="curve"/>
      <point x="264.25" y="452.0"/>
      <point x="57.125" y="239.0"/>
      <point x="6.375" y="189.75" type="curve"/>
      <point x="61.25" y="115.125"/>
      <point x="167.875" y="17.875"/>
    </contour>
  </outline>
</glyph>
<glyph name="y" format="2">
  <advance width="1079.0"/>
  <unicode hex="0079"/>
  <anchor x="540.0" y="0.0" name="bottom"/>
  <anchor x="540.0" y="1063.0" name="top"/>
  <outline>
    <contour>
      <point x="451.375" y="-526.375" type="curve" smooth="yes"/>
      <point x="792.25" y="-526.375"/>
      <point x="959.5" y="-288.375"/>
      <point x="977.5" y="56.0" type="curve" smooth="yes"/>
      <point x="988.875" y="266.625"/>
      <point x="995.0" y="480.25"/>
      <point x="995.0" y="661.875" type="curve" smooth="yes"/>
      <point x="995.0" y="764.25"/>
      <point x="993.125" y="857.75"/>
      <point x="989.375" y="939.375" type="curve"/>
      <point x="919.25" y="954.625"/>
      <point x="853.375" y="961.75"/>
      <point x="784.0" y="961.75" type="curve" smooth="yes"/>
      <point x="750.625" y="961.75"/>
      <point x="716.375" y="959.875"/>
      <point x="681.875" y="957.0" type="curve"/>
      <point x="684.5" y="933.5"/>
      <point x="686.875" y="855.375"/>
      <point x="684.75" y="764.5" type="curve" smooth="yes"/>
      <point x="681.25" y="527.25"/>
      <point x="635.25" y="357.5"/>
      <point x="502.125" y="357.5" type="curve" smooth="yes"/>
      <point x="397.875" y="357.5"/>
      <point x="374.625" y="513.375"/>
      <point x="374.625" y="666.375" type="curve" smooth="yes"/>
      <point x="374.625" y="794.375"/>
      <point x="392.625" y="925.875"/>
      <point x="399.875" y="961.25" type="curve"/>
      <point x="371.125" y="967.625"/>
      <point x="278.625" y="972.875"/>
      <point x="195.5" y="972.875" type="curve" smooth="yes"/>
      <point x="137.0" y="972.875"/>
      <point x="83.25" y="970.125"/>
      <point x="58.25" y="964.625" type="curve"/>
      <point x="52.25" y="856.125"/>
      <point x="48.25" y="756.125"/>
      <point x="48.25" y="664.625" type="curve" smooth="yes"/>
      <point x="48.25" y="313.0"/>
      <point x="135.0" y="36.875"/>
      <point x="450.625" y="36.875" type="curve" smooth="yes"/>
      <point x="558.0" y="36.875"/>
      <point x="657.75" y="99.5"/>
      <point x="706.0" y="175.375" type="curve"/>
      <point x="700.75" y="-2.0"/>
      <point x="639.875" y="-213.0"/>
      <point x="462.5" y="-213.0" type="curve" smooth="yes"/>
      <point x="328.75" y="-213.0"/>
      <point x="183.125" y="-139.125"/>
      <point x="109.125" y="-91.25" type="curve"/>
      <point x="71.125" y="-143.625"/>
      <point x="-13.625" y="-305.375"/>
      <point x="-39.625" y="-377.875" type="curve"/>
      <point x="71.125" y="-450.875"/>
      <point x="242.125" y="-526.375"/>
    </contour>
  </outline>
</glyph>
<glyph name="z" format="2">
  <advance width="1074.0"/>
  <unicode hex="007A"/>
  <anchor x="537.0" y="0.0" name="bottom"/>
  <anchor x="537.0" y="532.0" name="center"/>
  <anchor x="537.0" y="1063.0" name="top"/>
  <outline>
    <contour>
      <point x="973.25" y="2.625" type="curve"/>
      <point x="980.125" y="40.375"/>
      <point x="986.75" y="277.125"/>
      <point x="986.75" y="305.25" type="curve"/>
      <point x="906.75" y="297.875"/>
      <point x="753.625" y="286.75"/>
      <point x="637.125" y="286.75" type="curve" smooth="yes"/>
      <point x="589.125" y="286.75"/>
      <point x="501.25" y="287.25"/>
      <point x="473.375" y="289.25" type="curve"/>
      <point x="540.25" y="376.75"/>
      <point x="817.75" y="677.125"/>
      <point x="966.0" y="811.625" type="curve"/>
      <point x="966.0" y="850.0"/>
      <point x="961.625" y="1023.75"/>
      <point x="957.0" y="1043.875" type="curve"/>
      <point x="852.125" y="1044.625"/>
      <point x="685.625" y="1044.875"/>
      <point x="545.25" y="1044.875" type="curve" smooth="yes"/>
      <point x="406.625" y="1044.875"/>
      <point x="172.75" y="1051.75"/>
      <point x="80.0" y="1055.5" type="curve"/>
      <point x="65.625" y="786.5" type="line"/>
      <point x="74.625" y="786.375"/>
      <point x="127.5" y="787.375"/>
      <point x="179.125" y="787.375" type="curve" smooth="yes"/>
      <point x="285.75" y="787.375"/>
      <point x="492.625" y="790.5"/>
      <point x="544.75" y="793.25" type="curve"/>
      <point x="375.125" y="634.0"/>
      <point x="134.875" y="369.375"/>
      <point x="58.0" y="259.375" type="curve"/>
      <point x="42.625" y="12.0" type="line"/>
      <point x="159.75" y="-4.25"/>
      <point x="341.875" y="-10.0"/>
      <point x="520.375" y="-10.0" type="curve" smooth="yes"/>
      <point x="696.375" y="-10.0"/>
      <point x="870.25" y="-4.125"/>
    </contour>
  </outline>
</glyph>
<glyph name="braceleft" format="2">
  <advance width="665.0"/>
  <unicode hex="007B"/>
  <outline>
    <contour>
      <point x="529.375" y="-451.375" type="curve"/>
      <point x="575.75" y="-377.25"/>
      <point x="617.875" y="-300.125"/>
      <point x="658.125" y="-212.5" type="curve"/>
      <point x="549.375" y="-189.25"/>
      <point x="495.75" y="-101.75"/>
      <point x="495.75" y="17.375" type="curve" smooth="yes"/>
      <point x="495.75" y="67.625"/>
      <point x="502.875" y="110.75"/>
      <point x="513.0" y="155.0" type="curve" smooth="yes"/>
      <point x="523.25" y="201.375"/>
      <point x="530.625" y="248.625"/>
      <point x="530.625" y="306.375" type="curve" smooth="yes"/>
      <point x="530.625" y="499.5"/>
      <point x="374.875" y="568.5"/>
      <point x="192.625" y="578.375" type="curve"/>
      <point x="192.25" y="555.125" type="line"/>
      <point x="368.25" y="558.625"/>
      <point x="495.25" y="688.25"/>
      <point x="495.25" y="852.625" type="curve" smooth="yes"/>
      <point x="495.25" y="907.875"/>
      <point x="487.875" y="946.75"/>
      <point x="477.75" y="985.625" type="curve" smooth="yes"/>
      <point x="467.75" y="1023.25"/>
      <point x="460.625" y="1061.75"/>
      <point x="460.625" y="1113.25" type="curve" smooth="yes"/>
      <point x="460.625" y="1224.0"/>
      <point x="509.0" y="1321.375"/>
      <point x="621.125" y="1350.25" type="curve"/>
      <point x="620.75" y="1450.875"/>
      <point x="562.875" y="1567.25"/>
      <point x="521.5" y="1597.75" type="curve"/>
      <point x="257.0" y="1576.625"/>
      <point x="132.5" y="1340.375"/>
      <point x="132.5" y="1132.75" type="curve" smooth="yes"/>
      <point x="132.5" y="1067.125"/>
      <point x="144.75" y="1025.625"/>
      <point x="160.0" y="986.0" type="curve" smooth="yes"/>
      <point x="175.25" y="946.25"/>
      <point x="188.5" y="907.5"/>
      <point x="188.5" y="846.375" type="curve" smooth="yes"/>
      <point x="188.5" y="769.125"/>
      <point x="136.75" y="703.875"/>
      <point x="39.875" y="689.625" type="curve"/>
      <point x="33.5" y="659.875"/>
      <point x="30.75" y="605.25"/>
      <point x="30.75" y="560.0" type="curve" smooth="yes"/>
      <point x="30.75" y="512.0"/>
      <point x="34.375" y="455.125"/>
      <point x="41.875" y="427.375" type="curve"/>
      <point x="155.375" y="406.125"/>
      <point x="226.125" y="341.875"/>
      <point x="226.125" y="259.625" type="curve" smooth="yes"/>
      <point x="226.125" y="231.0"/>
      <point x="220.0" y="195.125"/>
      <point x="210.75" y="155.125" type="curve" smooth="yes"/>
      <point x="198.75" y="103.25"/>
      <point x="187.125" y="44.375"/>
      <point x="187.125" y="-14.125" type="curve" smooth="yes"/>
      <point x="187.125" y="-244.875"/>
      <point x="307.375" y="-421.375"/>
    </contour>
  </outline>
</glyph>
<glyph name="bar" format="2">
  <advance width="487.0"/>
  <unicode hex="007C"/>
  <outline>
    <contour>
      <point x="372.375" y="-554.75" type="curve"/>
      <point x="402.875" y="-385.625"/>
      <point x="414.5" y="-66.125"/>
      <point x="414.5" y="285.75" type="curve" smooth="yes"/>
      <point x="414.5" y="720.25"/>
      <point x="398.5" y="1223.5"/>
      <point x="376.75" y="1538.75" type="curve"/>
      <point x="288.125" y="1538.75"/>
      <point x="115.625" y="1530.75"/>
      <point x="65.875" y="1527.75" type="curve"/>
      <point x="50.5" y="1068.625"/>
      <point x="46.0" y="641.625"/>
      <point x="46.0" y="293.5" type="curve" smooth="yes"/>
      <point x="46.0" y="-58.875"/>
      <point x="51.375" y="-340.75"/>
      <point x="56.375" y="-533.125" type="curve"/>
      <point x="155.0" y="-552.625"/>
      <point x="282.5" y="-554.75"/>
    </contour>
  </outline>
</glyph>
<glyph name="braceright" format="2">
  <advance width="614.0"/>
  <unicode hex="007D"/>
  <outline>
    <contour>
      <point x="175.0" y="-465.75" type="curve"/>
      <point x="360.625" y="-431.875"/>
      <point x="514.375" y="-233.875"/>
      <point x="514.375" y="-31.0" type="curve" smooth="yes"/>
      <point x="514.375" y="27.5"/>
      <point x="501.125" y="79.0"/>
      <point x="484.125" y="131.25" type="curve" smooth="yes"/>
      <point x="467.125" y="184.25"/>
      <point x="452.25" y="238.75"/>
      <point x="452.25" y="302.625" type="curve" smooth="yes"/>
      <point x="452.25" y="395.625"/>
      <point x="497.875" y="445.875"/>
      <point x="590.875" y="461.125" type="curve"/>
      <point x="607.0" y="489.125"/>
      <point x="615.375" y="546.5"/>
      <point x="615.375" y="589.625" type="curve" smooth="yes"/>
      <point x="615.375" y="633.875"/>
      <point x="606.25" y="689.5"/>
      <point x="588.375" y="725.125" type="curve"/>
      <point x="482.375" y="728.0"/>
      <point x="411.875" y="781.875"/>
      <point x="411.875" y="910.625" type="curve" smooth="yes"/>
      <point x="411.875" y="966.625"/>
      <point x="425.875" y="1020.375"/>
      <point x="441.625" y="1071.0" type="curve" smooth="yes"/>
      <point x="456.0" y="1117.0"/>
      <point x="467.25" y="1161.0"/>
      <point x="467.25" y="1203.75" type="curve" smooth="yes"/>
      <point x="467.25" y="1388.625"/>
      <point x="325.875" y="1584.0"/>
      <point x="137.875" y="1626.625" type="curve"/>
      <point x="84.875" y="1565.625"/>
      <point x="9.375" y="1467.75"/>
      <point x="-33.625" y="1390.375" type="curve"/>
      <point x="93.75" y="1355.375"/>
      <point x="145.875" y="1263.5"/>
      <point x="145.875" y="1136.875" type="curve" smooth="yes"/>
      <point x="145.875" y="1083.125"/>
      <point x="138.125" y="1042.625"/>
      <point x="129.375" y="1003.75" type="curve" smooth="yes"/>
      <point x="120.625" y="965.0"/>
      <point x="113.125" y="927.125"/>
      <point x="113.125" y="874.0" type="curve" smooth="yes"/>
      <point x="113.125" y="672.75"/>
      <point x="300.375" y="556.625"/>
      <point x="458.75" y="554.875" type="curve"/>
      <point x="461.75" y="596.75" type="line"/>
      <point x="298.0" y="596.125"/>
      <point x="158.25" y="467.875"/>
      <point x="158.25" y="313.875" type="curve" smooth="yes"/>
      <point x="158.25" y="249.5"/>
      <point x="174.25" y="193.5"/>
      <point x="193.0" y="137.625" type="curve" smooth="yes"/>
      <point x="210.875" y="83.625"/>
      <point x="226.875" y="30.625"/>
      <point x="226.875" y="-28.875" type="curve" smooth="yes"/>
      <point x="226.875" y="-106.75"/>
      <point x="180.75" y="-164.125"/>
      <point x="73.625" y="-216.375" type="curve"/>
      <point x="92.0" y="-326.375"/>
      <point x="143.625" y="-427.875"/>
    </contour>
  </outline>
</glyph>
<glyph name="asciitilde" format="2">
  <advance width="1050.0"/>
  <unicode hex="007E"/>
  <outline>
    <contour>
      <point x="93.5" y="745.0" type="curve"/>
      <point x="256.75" y="606.125" type="line"/>
      <point x="272.875" y="641.375"/>
      <point x="315.375" y="722.0"/>
      <point x="393.0" y="722.0" type="curve" smooth="yes"/>
      <point x="430.5" y="722.0"/>
      <point x="468.625" y="694.75"/>
      <point x="508.875" y="662.625" type="curve" smooth="yes"/>
      <point x="557.375" y="623.75"/>
      <point x="613.75" y="581.375"/>
      <point x="682.0" y="581.375" type="curve" smooth="yes"/>
      <point x="844.375" y="581.375"/>
      <point x="935.0" y="736.75"/>
      <point x="947.625" y="801.125" type="curve"/>
      <point x="779.625" y="908.0" type="line"/>
      <point x="762.125" y="854.625"/>
      <point x="723.75" y="799.625"/>
      <point x="665.25" y="799.625" type="curve" smooth="yes"/>
      <point x="620.125" y="799.625"/>
      <point x="584.75" y="827.625"/>
      <point x="547.75" y="859.375" type="curve" smooth="yes"/>
      <point x="503.375" y="896.875"/>
      <point x="452.375" y="936.0"/>
      <point x="375.875" y="936.0" type="curve" smooth="yes"/>
      <point x="242.125" y="936.0"/>
      <point x="126.625" y="839.25"/>
    </contour>
  </outline>
</glyph>
<glyph name="exclamdown" format="2">
  <advance width="708.0"/>
  <unicode hex="00A1"/>
  <outline>
    <contour>
      <point x="179.625" y="613.0" type="curve"/>
      <point x="170.0" y="368.0"/>
      <point x="117.5" y="-266.875"/>
      <point x="102.625" y="-389.625" type="curve"/>
      <point x="519.5" y="-406.875" type="line"/>
      <point x="522.25" y="-85.75"/>
      <point x="507.625" y="282.75"/>
      <point x="484.0" y="597.625" type="curve"/>
      <point x="408.75" y="606.625"/>
      <point x="246.75" y="613.0"/>
    </contour>
    <contour>
      <point x="318.75" y="1092.125" type="curve" smooth="yes"/>
      <point x="192.75" y="1092.125"/>
      <point x="97.25" y="1008.0"/>
      <point x="97.25" y="874.375" type="curve" smooth="yes"/>
      <point x="97.25" y="762.25"/>
      <point x="198.125" y="679.625"/>
      <point x="322.5" y="679.625" type="curve" smooth="yes"/>
      <point x="447.625" y="679.625"/>
      <point x="549.0" y="755.0"/>
      <point x="549.0" y="878.0" type="curve" smooth="yes"/>
      <point x="549.0" y="1003.125"/>
      <point x="449.375" y="1092.125"/>
    </contour>
  </outline>
</glyph>
<glyph name="cent" format="2">
  <advance width="1026.0"/>
  <unicode hex="00A2"/>
  <anchor x="513.0" y="160.375" name="bottom"/>
  <anchor x="513.0" y="1223.375" name="top"/>
  <outline>
    <contour>
      <point x="564.5" y="1371.625" type="curve"/>
      <point x="537.5" y="1048.625"/>
      <point x="390.625" y="404.75"/>
      <point x="298.625" y="46.75" type="curve"/>
      <point x="366.875" y="3.125"/>
      <point x="425.5" y="-6.75"/>
      <point x="495.25" y="-7.625" type="curve"/>
      <point x="558.375" y="217.0"/>
      <point x="680.375" y="969.5"/>
      <point x="716.375" y="1332.5" type="curve"/>
      <point x="691.0" y="1354.5"/>
      <point x="619.125" y="1371.625"/>
    </contour>
    <component base="c" yOffset="160.375"/>
  </outline>
</glyph>
<glyph name="sterling" format="2">
  <advance width="1140.0"/>
  <unicode hex="00A3"/>
  <outline>
    <contour>
      <point x="163.125" y="501.875" type="curve" smooth="yes"/>
      <point x="342.375" y="501.875"/>
      <point x="693.375" y="519.125"/>
      <point x="780.5" y="545.125" type="curve"/>
      <point x="780.5" y="585.0"/>
      <point x="774.375" y="749.375"/>
      <point x="770.875" y="780.0" type="curve"/>
      <point x="684.875" y="761.75"/>
      <point x="364.75" y="748.5"/>
      <point x="183.875" y="748.5" type="curve" smooth="yes"/>
      <point x="125.75" y="748.5"/>
      <point x="76.375" y="749.5"/>
      <point x="41.875" y="752.375" type="curve"/>
      <point x="33.125" y="507.875" type="line"/>
      <point x="57.0" y="503.875"/>
      <point x="104.375" y="501.875"/>
    </contour>
    <component base="sterlira"/>
  </outline>
</glyph>
<glyph name="currency" format="2">
  <advance width="974.0"/>
  <unicode hex="00A4"/>
  <outline>
    <contour>
      <point x="187.375" y="43.0" type="curve"/>
      <point x="234.75" y="90.5"/>
      <point x="390.25" y="274.875"/>
      <point x="424.5" y="323.125" type="curve"/>
      <point x="221.25" y="457.5" type="line"/>
      <point x="150.0" y="391.0"/>
      <point x="52.125" y="296.125"/>
      <point x="-19.875" y="226.125" type="curve"/>
      <point x="6.125" y="197.5"/>
      <point x="153.5" y="68.625"/>
    </contour>
    <contour>
      <point x="793.0" y="66.75" type="curve"/>
      <point x="818.875" y="92.875"/>
      <point x="939.375" y="216.125"/>
      <point x="963.25" y="242.0" type="curve"/>
      <point x="914.625" y="290.0"/>
      <point x="800.0" y="388.875"/>
      <point x="725.125" y="453.125" type="curve"/>
      <point x="556.625" y="318.625" type="line"/>
      <point x="590.0" y="281.875"/>
      <point x="721.0" y="138.75"/>
    </contour>
    <contour>
      <point x="214.625" y="646.25" type="curve"/>
      <point x="372.0" y="803.0" type="line"/>
      <point x="312.875" y="879.125"/>
      <point x="228.25" y="978.625"/>
      <point x="173.125" y="1033.625" type="curve"/>
      <point x="134.0" y="1007.625"/>
      <point x="11.625" y="890.125"/>
      <point x="-3.5" y="866.625" type="curve"/>
      <point x="59.0" y="796.625"/>
      <point x="137.625" y="712.375"/>
    </contour>
    <contour>
      <point x="731.5" y="647.375" type="line"/>
      <point x="806.375" y="710.75"/>
      <point x="912.125" y="821.125"/>
      <point x="975.375" y="891.125" type="curve"/>
      <point x="949.5" y="916.25"/>
      <point x="809.75" y="1050.75"/>
      <point x="792.5" y="1076.75" type="curve"/>
      <point x="725.75" y="1013.5"/>
      <point x="606.625" y="886.625"/>
      <point x="543.75" y="818.25" type="curve"/>
    </contour>
    <component base="degree" xOffset="106.0" yOffset="-656.0"/>
  </outline>
</glyph>
<glyph name="yen" format="2">
  <advance width="1065.0"/>
  <unicode hex="00A5"/>
  <anchor x="610.5" y="0.0" name="bottom"/>
  <anchor x="610.5" y="1291.0" name="top"/>
  <anchor x="97.5" y="1291.0" name="topleft"/>
  <outline>
    <contour>
      <point x="154.5" y="504.0" type="curve"/>
      <point x="247.5" y="506.125"/>
      <point x="917.375" y="515.125"/>
      <point x="1011.375" y="515.125" type="curve"/>
      <point x="1011.375" y="576.5"/>
      <point x="1000.75" y="664.625"/>
      <point x="989.25" y="738.375" type="curve"/>
      <point x="901.375" y="748.375"/>
      <point x="770.125" y="753.25"/>
      <point x="626.0" y="753.25" type="curve" smooth="yes"/>
      <point x="471.75" y="753.25"/>
      <point x="318.75" y="748.25"/>
      <point x="178.25" y="737.375" type="curve"/>
      <point x="171.5" y="703.75"/>
      <point x="154.625" y="589.25"/>
    </contour>
    <contour>
      <point x="1016.875" y="204.5" type="curve"/>
      <point x="1017.25" y="283.0"/>
      <point x="1000.875" y="386.75"/>
      <point x="993.875" y="420.25" type="curve"/>
      <point x="894.625" y="428.375"/>
      <point x="748.5" y="433.75"/>
      <point x="603.125" y="433.75" type="curve" smooth="yes"/>
      <point x="430.375" y="433.75"/>
      <point x="268.375" y="427.375"/>
      <point x="163.25" y="419.125" type="curve"/>
      <point x="151.875" y="352.125"/>
      <point x="142.5" y="290.375"/>
      <point x="142.5" y="216.75" type="curve"/>
      <point x="236.5" y="217.0"/>
      <point x="902.25" y="207.125"/>
    </contour>
    <component base="Y" xOffset="28.75"/>
  </outline>
</glyph>
<glyph name="brokenbar" format="2">
  <advance width="432.0"/>
  <unicode hex="00A6"/>
  <outline>
    <contour>
      <point x="50.0" y="281.625" type="curve"/>
      <point x="50.0" y="137.25"/>
      <point x="76.625" y="-277.375"/>
      <point x="92.75" y="-427.875" type="curve"/>
      <point x="168.125" y="-427.875"/>
      <point x="325.0" y="-420.5"/>
      <point x="369.5" y="-401.875" type="curve"/>
      <point x="362.125" y="-272.125"/>
      <point x="358.0" y="206.0"/>
      <point x="358.0" y="293.0" type="curve"/>
      <point x="268.875" y="293.0"/>
      <point x="138.625" y="290.375"/>
    </contour>
    <contour>
      <point x="59.25" y="800.625" type="curve"/>
      <point x="83.125" y="797.125"/>
      <point x="236.5" y="787.0"/>
      <point x="367.75" y="787.375" type="curve"/>
      <point x="364.25" y="908.0"/>
      <point x="364.375" y="1333.0"/>
      <point x="365.625" y="1472.25" type="curve"/>
      <point x="314.875" y="1498.125"/>
      <point x="162.125" y="1502.0"/>
      <point x="83.375" y="1502.0" type="curve"/>
      <point x="77.0" y="1393.5"/>
      <point x="59.25" y="1040.0"/>
    </contour>
  </outline>
</glyph>
<glyph name="section" format="2">
  <advance width="1000.0"/>
  <unicode hex="00A7"/>
  <outline>
    <contour>
      <point x="524.5" y="664.625" type="curve"/>
      <point x="287.25" y="803.25" type="line"/>
      <point x="170.25" y="755.625"/>
      <point x="81.375" y="664.75"/>
      <point x="81.375" y="534.5" type="curve" smooth="yes"/>
      <point x="81.375" y="336.375"/>
      <point x="231.625" y="248.25"/>
      <point x="393.625" y="187.25" type="curve" smooth="yes"/>
      <point x="538.5" y="133.125"/>
      <point x="647.375" y="69.625"/>
      <point x="647.375" y="16.25" type="curve" smooth="yes"/>
      <point x="647.375" y="-45.5"/>
      <point x="593.125" y="-70.0"/>
      <point x="511.25" y="-70.0" type="curve" smooth="yes"/>
      <point x="414.5" y="-70.0"/>
      <point x="281.375" y="-5.75"/>
      <point x="169.5" y="65.0" type="curve"/>
      <point x="122.125" y="20.25"/>
      <point x="26.375" y="-140.5"/>
      <point x="-0.625" y="-193.75" type="curve"/>
      <point x="51.875" y="-243.625"/>
      <point x="237.875" y="-357.25"/>
      <point x="504.25" y="-357.25" type="curve" smooth="yes"/>
      <point x="755.25" y="-357.25"/>
      <point x="954.75" y="-216.875"/>
      <point x="954.75" y="14.0" type="curve" smooth="yes"/>
      <point x="954.75" y="219.25"/>
      <point x="761.75" y="327.625"/>
      <point x="616.0" y="384.875" type="curve" smooth="yes"/>
      <point x="492.25" y="434.5"/>
      <point x="398.375" y="483.75"/>
      <point x="398.375" y="543.0" type="curve" smooth="yes"/>
      <point x="398.375" y="622.625"/>
      <point x="482.375" y="658.5"/>
    </contour>
    <contour>
      <point x="542.5" y="395.875" type="curve"/>
      <point x="702.75" y="194.125" type="line"/>
      <point x="853.625" y="248.0"/>
      <point x="967.25" y="367.375"/>
      <point x="967.25" y="532.375" type="curve" smooth="yes"/>
      <point x="967.25" y="737.625"/>
      <point x="761.75" y="844.75"/>
      <point x="616.0" y="902.0" type="curve" smooth="yes"/>
      <point x="492.25" y="951.625"/>
      <point x="409.625" y="990.75"/>
      <point x="409.625" y="1041.25" type="curve" smooth="yes"/>
      <point x="409.625" y="1091.5"/>
      <point x="484.125" y="1106.125"/>
      <point x="541.0" y="1106.125" type="curve" smooth="yes"/>
      <point x="619.75" y="1106.125"/>
      <point x="737.625" y="1060.5"/>
      <point x="791.375" y="1012.125" type="curve"/>
      <point x="866.0" y="1096.25"/>
      <point x="923.875" y="1232.625"/>
      <point x="929.375" y="1251.125" type="curve"/>
      <point x="818.0" y="1326.25"/>
      <point x="658.375" y="1364.375"/>
      <point x="519.75" y="1364.375" type="curve" smooth="yes"/>
      <point x="315.375" y="1364.375"/>
      <point x="110.125" y="1255.75"/>
      <point x="110.125" y="1052.875" type="curve" smooth="yes"/>
      <point x="110.125" y="854.25"/>
      <point x="231.625" y="765.625"/>
      <point x="393.625" y="704.375" type="curve" smooth="yes"/>
      <point x="538.5" y="650.0"/>
      <point x="659.875" y="596.375"/>
      <point x="659.875" y="534.625" type="curve" smooth="yes"/>
      <point x="659.875" y="456.125"/>
      <point x="608.25" y="403.25"/>
    </contour>
  </outline>
</glyph>
<glyph name="copyright" format="2">
  <advance width="1745.0"/>
  <unicode hex="00A9"/>
  <outline>
    <contour>
      <point x="874.875" y="-68.0" type="curve" smooth="yes"/>
      <point x="1344.375" y="-68.0"/>
      <point x="1687.0" y="194.125"/>
      <point x="1687.0" y="571.375" type="curve" smooth="yes"/>
      <point x="1687.0" y="1088.75"/>
      <point x="1392.75" y="1350.0"/>
      <point x="918.25" y="1350.0" type="curve" smooth="yes"/>
      <point x="407.375" y="1350.0"/>
      <point x="51.375" y="1059.375"/>
      <point x="51.375" y="567.0" type="curve" smooth="yes"/>
      <point x="51.375" y="145.875"/>
      <point x="405.375" y="-68.0"/>
    </contour>
    <contour>
      <point x="857.25" y="198.625" type="curve" smooth="yes"/>
      <point x="578.375" y="198.625"/>
      <point x="406.5" y="354.875"/>
      <point x="406.5" y="625.25" type="curve" smooth="yes"/>
      <point x="406.5" y="901.75"/>
      <point x="649.25" y="1091.0"/>
      <point x="916.5" y="1091.0" type="curve" smooth="yes"/>
      <point x="1227.5" y="1091.0"/>
      <point x="1354.75" y="911.875"/>
      <point x="1354.75" y="607.125" type="curve" smooth="yes"/>
      <point x="1354.75" y="339.375"/>
      <point x="1158.5" y="198.625"/>
    </contour>
    <contour>
      <point x="865.375" y="288.75" type="curve" smooth="yes"/>
      <point x="1018.375" y="288.75"/>
      <point x="1178.375" y="362.75"/>
      <point x="1244.5" y="499.75" type="curve"/>
      <point x="1182.125" y="550.375"/>
      <point x="1106.125" y="602.625"/>
      <point x="1043.125" y="633.0" type="curve"/>
      <point x="996.125" y="563.0"/>
      <point x="939.0" y="538.625"/>
      <point x="888.5" y="538.625" type="curve" smooth="yes"/>
      <point x="818.75" y="538.625"/>
      <point x="767.25" y="575.25"/>
      <point x="767.25" y="645.25" type="curve" smooth="yes"/>
      <point x="767.25" y="722.125"/>
      <point x="829.0" y="767.75"/>
      <point x="896.125" y="767.75" type="curve" smooth="yes"/>
      <point x="943.875" y="767.75"/>
      <point x="1000.875" y="747.125"/>
      <point x="1021.25" y="721.75" type="curve"/>
      <point x="1059.875" y="754.125"/>
      <point x="1124.125" y="827.125"/>
      <point x="1181.375" y="905.75" type="curve"/>
      <point x="1129.5" y="964.75"/>
      <point x="1047.5" y="993.75"/>
      <point x="935.375" y="993.75" type="curve" smooth="yes"/>
      <point x="696.5" y="993.75"/>
      <point x="526.5" y="832.625"/>
      <point x="526.5" y="612.625" type="curve" smooth="yes"/>
      <point x="526.5" y="411.0"/>
      <point x="654.5" y="288.75"/>
    </contour>
  </outline>
</glyph>
<glyph name="ordfeminine" format="2">
  <advance width="750.0"/>
  <unicode hex="00AA"/>
  <outline>
    <contour>
      <point x="459.5" y="728.75" type="curve"/>
      <point x="491.5" y="723.25"/>
      <point x="560.375" y="721.25"/>
      <point x="607.375" y="721.25" type="curve" smooth="yes"/>
      <point x="625.0" y="721.25"/>
      <point x="663.0" y="721.375"/>
      <point x="669.5" y="722.375" type="curve"/>
      <point x="677.5" y="773.875"/>
      <point x="692.375" y="885.125"/>
      <point x="692.375" y="1008.0" type="curve" smooth="yes"/>
      <point x="692.375" y="1273.125"/>
      <point x="614.75" y="1430.875"/>
      <point x="345.0" y="1430.875" type="curve" smooth="yes"/>
      <point x="211.5" y="1430.875"/>
      <point x="109.5" y="1395.625"/>
      <point x="35.125" y="1341.75" type="curve"/>
      <point x="155.5" y="1182.125" type="line"/>
      <point x="185.5" y="1202.125"/>
      <point x="264.25" y="1224.625"/>
      <point x="329.625" y="1224.625" type="curve" smooth="yes"/>
      <point x="402.375" y="1224.625"/>
      <point x="435.0" y="1204.5"/>
      <point x="451.5" y="1182.5" type="curve" smooth="yes"/>
      <point x="463.5" y="1169.5"/>
      <point x="470.75" y="1149.0"/>
      <point x="471.25" y="1131.75" type="curve"/>
      <point x="458.0" y="1147.625"/>
      <point x="385.875" y="1160.625"/>
      <point x="336.625" y="1160.625" type="curve" smooth="yes"/>
      <point x="176.125" y="1160.625"/>
      <point x="28.0" y="1093.875"/>
      <point x="28.0" y="931.375" type="curve" smooth="yes"/>
      <point x="28.0" y="792.375"/>
      <point x="131.375" y="727.375"/>
      <point x="285.875" y="727.375" type="curve" smooth="yes"/>
      <point x="357.625" y="727.375"/>
      <point x="434.75" y="753.125"/>
      <point x="466.875" y="783.875" type="curve"/>
      <point x="465.5" y="764.375"/>
      <point x="461.5" y="735.25"/>
    </contour>
    <contour>
      <point x="368.375" y="912.125" type="curve" smooth="yes"/>
      <point x="310.125" y="912.125"/>
      <point x="279.375" y="925.625"/>
      <point x="279.375" y="959.75" type="curve" smooth="yes"/>
      <point x="279.375" y="994.375"/>
      <point x="329.75" y="1007.625"/>
      <point x="378.0" y="1007.625" type="curve" smooth="yes"/>
      <point x="414.375" y="1007.625"/>
      <point x="456.625" y="1001.625"/>
      <point x="470.625" y="995.5" type="curve"/>
      <point x="471.75" y="988.5"/>
      <point x="471.875" y="971.25"/>
      <point x="471.875" y="965.125" type="curve" smooth="yes"/>
      <point x="471.875" y="959.875"/>
      <point x="471.625" y="951.0"/>
      <point x="471.25" y="943.0" type="curve"/>
      <point x="449.625" y="926.875"/>
      <point x="414.25" y="912.125"/>
    </contour>
  </outline>
</glyph>
<glyph name="guillemetleft" format="2">
  <advance width="1214.0"/>
  <unicode hex="00AB"/>
  <outline>
    <contour>
      <point x="1011.125" y="1135.0" type="curve"/>
      <point x="829.25" y="972.75"/>
      <point x="650.625" y="783.875"/>
      <point x="469.125" y="574.0" type="curve"/>
      <point x="1029.125" y="127.625" type="line"/>
      <point x="1055.25" y="233.0"/>
      <point x="1075.125" y="368.0"/>
      <point x="1075.25" y="436.75" type="curve"/>
      <point x="1022.125" y="481.75"/>
      <point x="890.5" y="558.0"/>
      <point x="805.625" y="603.5" type="curve"/>
      <point x="1160.5" y="921.875" type="line"/>
      <point x="1140.5" y="987.25"/>
      <point x="1085.625" y="1089.875"/>
    </contour>
    <contour>
      <point x="520.125" y="1120.0" type="curve"/>
      <point x="335.125" y="928.0"/>
      <point x="169.125" y="736.5"/>
      <point x="14.125" y="543.375" type="curve"/>
      <point x="207.125" y="335.875"/>
      <point x="422.25" y="158.75"/>
      <point x="641.125" y="0.0" type="curve"/>
      <point x="670.0" y="74.125"/>
      <point x="712.75" y="190.25"/>
      <point x="725.25" y="238.5" type="curve"/>
      <point x="695.25" y="255.5"/>
      <point x="493.625" y="432.0"/>
      <point x="349.25" y="560.875" type="curve"/>
      <point x="691.0" y="954.5" type="line"/>
      <point x="653.25" y="998.75"/>
      <point x="580.5" y="1074.5"/>
    </contour>
  </outline>
</glyph>
<glyph name="logicalnot" format="2">
  <advance width="1000.0"/>
  <unicode hex="00AC"/>
  <outline>
    <contour>
      <point x="961.75" y="886.875" type="curve"/>
      <point x="784.625" y="886.875"/>
      <point x="194.0" y="865.125"/>
      <point x="44.75" y="849.75" type="curve"/>
      <point x="42.25" y="773.125"/>
      <point x="42.625" y="638.625"/>
      <point x="43.0" y="566.5" type="curve"/>
      <point x="151.875" y="570.5"/>
      <point x="503.25" y="588.375"/>
      <point x="697.25" y="601.5" type="curve"/>
      <point x="692.0" y="533.5"/>
      <point x="683.0" y="342.125"/>
      <point x="682.0" y="250.0" type="curve"/>
      <point x="741.25" y="247.375"/>
      <point x="884.0" y="246.625"/>
      <point x="933.25" y="247.25" type="curve"/>
      <point x="935.0" y="362.125"/>
      <point x="949.5" y="744.5"/>
    </contour>
  </outline>
</glyph>
<glyph name="softhyphen" format="2">
  <advance width="800.625"/>
  <unicode hex="00AD"/>
  <outline>
    <contour>
      <point x="752.0" y="829.75" type="curve"/>
      <point x="667.0" y="842.25"/>
      <point x="563.0" y="846.625"/>
      <point x="432.5" y="846.625" type="curve" smooth="yes"/>
      <point x="315.875" y="846.625"/>
      <point x="166.625" y="834.625"/>
      <point x="46.875" y="817.75" type="curve"/>
      <point x="38.125" y="773.0"/>
      <point x="25.125" y="583.875"/>
      <point x="25.5" y="500.375" type="curve"/>
      <point x="192.125" y="512.25"/>
      <point x="675.875" y="528.875"/>
      <point x="766.75" y="528.875" type="curve"/>
      <point x="766.875" y="611.25"/>
      <point x="766.0" y="736.375"/>
    </contour>
  </outline>
</glyph>
<glyph name="registered" format="2">
  <advance width="1400.0"/>
  <unicode hex="00AE"/>
  <outline>
    <contour>
      <point x="725.375" y="265.5" type="curve" smooth="yes"/>
      <point x="1084.625" y="265.5"/>
      <point x="1359.375" y="457.25"/>
      <point x="1359.375" y="815.5" type="curve" smooth="yes"/>
      <point x="1359.375" y="1161.375"/>
      <point x="1098.375" y="1321.0"/>
      <point x="725.125" y="1321.0" type="curve" smooth="yes"/>
      <point x="371.625" y="1321.0"/>
      <point x="56.75" y="1129.375"/>
      <point x="56.75" y="769.875" type="curve" smooth="yes"/>
      <point x="56.75" y="354.25"/>
      <point x="396.125" y="265.5"/>
    </contour>
    <contour>
      <point x="715.5" y="469.25" type="curve" smooth="yes"/>
      <point x="544.25" y="469.25"/>
      <point x="336.5" y="491.25"/>
      <point x="336.5" y="786.5" type="curve" smooth="yes"/>
      <point x="336.5" y="1023.0"/>
      <point x="532.5" y="1122.625"/>
      <point x="719.375" y="1122.625" type="curve" smooth="yes"/>
      <point x="924.75" y="1122.625"/>
      <point x="1077.125" y="1049.25"/>
      <point x="1077.125" y="794.625" type="curve" smooth="yes"/>
      <point x="1077.125" y="552.875"/>
      <point x="895.375" y="469.25"/>
    </contour>
    <contour>
      <point x="700.375" y="549.375" type="curve"/>
      <point x="700.375" y="581.75"/>
      <point x="699.5" y="690.875"/>
      <point x="697.75" y="720.5" type="curve"/>
      <point x="704.625" y="721.375"/>
      <point x="714.375" y="722.5"/>
      <point x="716.875" y="722.875" type="curve"/>
      <point x="737.5" y="683.625"/>
      <point x="750.625" y="590.0"/>
      <point x="759.125" y="549.375" type="curve"/>
      <point x="833.875" y="549.375"/>
      <point x="903.25" y="557.375"/>
      <point x="942.125" y="580.0" type="curve"/>
      <point x="938.25" y="616.0"/>
      <point x="902.5" y="735.5"/>
      <point x="869.25" y="776.375" type="curve"/>
      <point x="919.0" y="793.875"/>
      <point x="952.125" y="847.375"/>
      <point x="952.125" y="903.0" type="curve" smooth="yes"/>
      <point x="952.125" y="1011.875"/>
      <point x="827.25" y="1046.25"/>
      <point x="707.5" y="1046.25" type="curve" smooth="yes"/>
      <point x="631.375" y="1046.25"/>
      <point x="570.375" y="1034.125"/>
      <point x="514.25" y="1000.875" type="curve"/>
      <point x="503.625" y="922.0"/>
      <point x="496.25" y="687.75"/>
      <point x="496.25" y="578.875" type="curve"/>
      <point x="545.625" y="563.625"/>
      <point x="631.375" y="549.375"/>
    </contour>
    <contour>
      <point x="686.125" y="854.875" type="curve"/>
      <point x="686.125" y="870.25"/>
      <point x="684.25" y="906.625"/>
      <point x="683.125" y="917.5" type="curve"/>
      <point x="695.125" y="919.625"/>
      <point x="709.75" y="920.875"/>
      <point x="722.625" y="920.875" type="curve" smooth="yes"/>
      <point x="746.0" y="920.875"/>
      <point x="765.125" y="916.125"/>
      <point x="765.125" y="891.375" type="curve" smooth="yes"/>
      <point x="765.125" y="861.75"/>
      <point x="719.125" y="854.875"/>
    </contour>
  </outline>
</glyph>
<glyph name="degree" format="2">
  <advance width="814.0"/>
  <unicode hex="00B0"/>
  <outline>
    <contour>
      <point x="374.875" y="866.875" type="curve" smooth="yes"/>
      <point x="575.5" y="866.875"/>
      <point x="744.625" y="1032.75"/>
      <point x="744.625" y="1228.25" type="curve" smooth="yes"/>
      <point x="744.625" y="1404.875"/>
      <point x="576.375" y="1533.125"/>
      <point x="368.75" y="1533.125" type="curve" smooth="yes"/>
      <point x="175.0" y="1533.125"/>
      <point x="13.25" y="1394.75"/>
      <point x="13.25" y="1197.75" type="curve" smooth="yes"/>
      <point x="13.25" y="1017.375"/>
      <point x="179.0" y="866.875"/>
    </contour>
    <contour>
      <point x="373.25" y="1111.625" type="curve" smooth="yes"/>
      <point x="319.125" y="1111.625"/>
      <point x="284.375" y="1150.75"/>
      <point x="284.375" y="1207.875" type="curve" smooth="yes"/>
      <point x="284.375" y="1256.25"/>
      <point x="324.625" y="1288.375"/>
      <point x="372.625" y="1288.375" type="curve" smooth="yes"/>
      <point x="440.75" y="1288.375"/>
      <point x="474.25" y="1248.125"/>
      <point x="474.25" y="1198.0" type="curve" smooth="yes"/>
      <point x="474.25" y="1149.375"/>
      <point x="426.875" y="1111.625"/>
    </contour>
  </outline>
</glyph>
<glyph name="twosuperior" format="2">
  <advance width="737.875"/>
  <unicode hex="00B2"/>
  <outline>
    <contour>
      <point x="636.75" y="762.0" type="curve"/>
      <point x="550.5" y="755.5"/>
      <point x="451.125" y="745.5"/>
      <point x="396.5" y="737.625" type="curve"/>
      <point x="421.375" y="746.75"/>
      <point x="486.625" y="799.0"/>
      <point x="535.375" y="856.625" type="curve" smooth="yes"/>
      <point x="611.625" y="945.5"/>
      <point x="632.125" y="1034.25"/>
      <point x="632.125" y="1101.25" type="curve" smooth="yes"/>
      <point x="632.125" y="1241.75"/>
      <point x="540.5" y="1327.625"/>
      <point x="388.0" y="1327.625" type="curve" smooth="yes"/>
      <point x="245.25" y="1327.625"/>
      <point x="97.0" y="1240.5"/>
      <point x="24.75" y="1127.625" type="curve"/>
      <point x="60.75" y="1091.0"/>
      <point x="157.375" y="1015.75"/>
      <point x="216.875" y="987.0" type="curve"/>
      <point x="238.75" y="1012.5"/>
      <point x="299.0" y="1059.75"/>
      <point x="346.875" y="1059.75" type="curve" smooth="yes"/>
      <point x="380.125" y="1059.75"/>
      <point x="396.0" y="1043.625"/>
      <point x="396.0" y="1018.375" type="curve" smooth="yes"/>
      <point x="396.0" y="975.75"/>
      <point x="334.375" y="915.625"/>
      <point x="238.25" y="849.75" type="curve" smooth="yes"/>
      <point x="144.375" y="786.375"/>
      <point x="76.0" y="739.875"/>
      <point x="33.5" y="721.5" type="curve"/>
      <point x="36.375" y="647.625"/>
      <point x="72.875" y="504.625"/>
      <point x="76.75" y="490.0" type="curve"/>
      <point x="646.875" y="516.0" type="line"/>
      <point x="647.25" y="544.75"/>
      <point x="646.375" y="716.875"/>
    </contour>
  </outline>
</glyph>
<glyph name="threesuperior" format="2">
  <advance width="787.25"/>
  <unicode hex="00B3"/>
  <outline>
    <contour>
      <point x="354.125" y="498.0" type="curve" smooth="yes"/>
      <point x="530.625" y="498.0"/>
      <point x="691.125" y="584.5"/>
      <point x="691.125" y="738.25" type="curve" smooth="yes"/>
      <point x="691.125" y="850.0"/>
      <point x="596.25" y="919.25"/>
      <point x="496.75" y="926.125" type="curve"/>
      <point x="585.625" y="953.25"/>
      <point x="644.5" y="1014.375"/>
      <point x="644.5" y="1097.375" type="curve" smooth="yes"/>
      <point x="644.5" y="1223.25"/>
      <point x="508.25" y="1298.625"/>
      <point x="366.125" y="1298.625" type="curve" smooth="yes"/>
      <point x="174.5" y="1298.625"/>
      <point x="51.125" y="1207.875"/>
      <point x="26.0" y="1182.375" type="curve"/>
      <point x="42.5" y="1158.25"/>
      <point x="152.375" y="1066.75"/>
      <point x="196.0" y="1030.5" type="curve"/>
      <point x="217.125" y="1046.625"/>
      <point x="299.25" y="1082.25"/>
      <point x="348.25" y="1082.25" type="curve" smooth="yes"/>
      <point x="389.0" y="1082.25"/>
      <point x="405.75" y="1064.125"/>
      <point x="405.75" y="1038.0" type="curve" smooth="yes"/>
      <point x="405.75" y="993.5"/>
      <point x="297.75" y="967.875"/>
      <point x="198.0" y="967.875" type="curve"/>
      <point x="198.0" y="909.125"/>
      <point x="208.0" y="834.125"/>
      <point x="218.125" y="806.25" type="curve"/>
      <point x="383.875" y="806.25"/>
      <point x="438.125" y="783.625"/>
      <point x="438.125" y="745.875" type="curve" smooth="yes"/>
      <point x="438.125" y="711.25"/>
      <point x="406.125" y="692.25"/>
      <point x="359.625" y="692.25" type="curve" smooth="yes"/>
      <point x="295.0" y="692.25"/>
      <point x="250.125" y="723.625"/>
      <point x="235.0" y="749.5" type="curve"/>
      <point x="183.0" y="729.0"/>
      <point x="88.625" y="674.375"/>
      <point x="39.0" y="641.125" type="curve"/>
      <point x="78.5" y="557.125"/>
      <point x="190.75" y="498.0"/>
    </contour>
  </outline>
</glyph>
